<?xml version="1.0" encoding="UTF-8" standalone="no" ?>
<!DOCTYPE svg PUBLIC "-//W3C//DTD SVG 1.1//EN" "http://www.w3.org/Graphics/SVG/1.1/DTD/svg11.dtd">
<svg xmlns="http://www.w3.org/2000/svg" xmlns:xlink="http://www.w3.org/1999/xlink" version="1.1" width="320" height="320" viewBox="0 0 320 320" xml:space="preserve">
<desc>Created with Fabric.js 5.2.4</desc>
<defs>
</defs>
<rect x="0" y="0" width="100%" height="100%" fill="transparent"></rect>
<g transform="matrix(1 0 0 1 160 160)" id="935ecf1e-9c5c-4a2f-b0fc-648d6e5bb259"  >
<rect style="stroke: none; stroke-width: 1; stroke-dasharray: none; stroke-linecap: butt; stroke-dashoffset: 0; stroke-linejoin: miter; stroke-miterlimit: 4; fill: rgb(255,255,255); fill-rule: nonzero; opacity: 1; visibility: hidden;" vector-effect="non-scaling-stroke"  x="-160" y="-160" rx="0" ry="0" width="320" height="320" />
</g>
<g transform="matrix(Infinity NaN NaN Infinity 0 0)" id="4a5423b4-5874-48ba-ad36-4b3dfe34119c"  >
</g>
<g transform="matrix(0.3 0 0 0.3 320 320)"  >
<rect style="stroke: none; stroke-width: 1; stroke-dasharray: none; stroke-linecap: butt; stroke-dashoffset: 0; stroke-linejoin: miter; stroke-miterlimit: 4; fill: rgb(255,255,255); fill-rule: nonzero; opacity: 1; visibility: hidden;" vector-effect="non-scaling-stroke"  x="-160" y="-160" rx="0" ry="0" width="320" height="320" />
</g>
<g transform="matrix(0.81 0 0 0.81 121.55 192.22)"  >
<polygon style="stroke: none; stroke-width: 1; stroke-dasharray: none; stroke-linecap: butt; stroke-dashoffset: 0; stroke-linejoin: miter; stroke-miterlimit: 4; fill: rgb(0,0,0); fill-rule: nonzero; opacity: 1;" vector-effect="non-scaling-stroke"  points="-75.9,31.7 25.6,63.9 101.1,1.4 -101.1,-63.9 " />
</g>
<g transform="matrix(0.81 0 0 0.81 181.54 103.06)"  >
<polygon style="stroke: none; stroke-width: 1; stroke-dasharray: none; stroke-linecap: butt; stroke-dashoffset: 0; stroke-linejoin: miter; stroke-miterlimit: 4; fill: rgb(0,0,0); fill-rule: nonzero; opacity: 1;" vector-effect="non-scaling-stroke"  points="-8.4,-84.2 -87,-12.5 -70.6,84.2 87,-58.3 " />
</g>
<g transform="matrix(0.81 0 0 0.81 233.69 201.08)"  >
<polygon style="stroke: none; stroke-width: 1; stroke-dasharray: none; stroke-linecap: butt; stroke-dashoffset: 0; stroke-linejoin: miter; stroke-miterlimit: 4; fill: rgb(0,0,0); fill-rule: nonzero; opacity: 1;" vector-effect="non-scaling-stroke"  points="57.35,34.3 34.55,-69.7 -57.35,-103.9 -12.75,103.9 " />
</g>
</svg>