<svg xml:space="preserve" viewBox="22.400000000000002 117.12 278.4 85.76" version="1.1" xmlns:xlink="http://www.w3.org/1999/xlink" xmlns="http://www.w3.org/2000/svg" style="max-height: 500px" width="278.4" height="85.76">
<desc>Created with Fabric.js 5.2.4</desc>
<defs>
</defs>
<g id="cc09833c-0671-4204-b72e-b8f22a6ef41d" transform="matrix(0 0 0 0 0 0)">
</g>
<g id="4309fc77-bb6d-47a1-b4a0-e465d9e4de86" transform="matrix(1 0 0 1 160 160)">
<rect height="320" width="320" ry="0" rx="0" y="-160" x="-160" style="stroke: none; stroke-width: 1; stroke-dasharray: none; stroke-linecap: butt; stroke-dashoffset: 0; stroke-linejoin: miter; stroke-miterlimit: 4; fill: rgb(255,255,255); fill-rule: nonzero; opacity: 1; visibility: hidden;"/>
</g>
<g transform="matrix(0.23 0 0 0.23 48.94 170.2)">
<polygon points="-75.9,31.7 25.6,63.9 101.1,1.4 -101.1,-63.9" style="stroke: none; stroke-width: 1; stroke-dasharray: none; stroke-linecap: butt; stroke-dashoffset: 0; stroke-linejoin: miter; stroke-miterlimit: 4; fill: rgb(0,0,0); fill-rule: nonzero; opacity: 1;"/>
</g>
<g transform="matrix(0.23 0 0 0.23 66.07 144.74)">
<polygon points="-8.4,-84.2 -87,-12.5 -70.6,84.2 87,-58.3" style="stroke: none; stroke-width: 1; stroke-dasharray: none; stroke-linecap: butt; stroke-dashoffset: 0; stroke-linejoin: miter; stroke-miterlimit: 4; fill: rgb(0,0,0); fill-rule: nonzero; opacity: 1;"/>
</g>
<g transform="matrix(0.23 0 0 0.23 78.96 170.73)">
<polygon points="57.35,34.3 34.55,-69.7 -57.35,-103.9 -12.75,103.9" style="stroke: none; stroke-width: 1; stroke-dasharray: none; stroke-linecap: butt; stroke-dashoffset: 0; stroke-linejoin: miter; stroke-miterlimit: 4; fill: rgb(0,0,0); fill-rule: nonzero; opacity: 1;"/>
</g>
<g transform="matrix(0.77 0 0 0.77 197.91 176.23)">
<path stroke-linecap="round" d="M 6.98 21.63 L 1.92 21.63 L 1.92 8.92 L 6.96 8.92 Q 8.73 8.92 9.78 9.49 Q 10.84 10.05 11.31 11.02 Q 11.78 11.99 11.78 13.2 L 11.78 13.2 L 11.78 17.39 Q 11.78 18.76 11.25 19.71 Q 10.72 20.65 9.66 21.14 Q 8.6 21.63 6.98 21.63 L 6.98 21.63 Z M 3.69 10.25 L 3.69 20.31 L 6.8 20.31 Q 7.72 20.31 8.44 20.11 Q 9.17 19.92 9.59 19.33 Q 10.01 18.74 10.01 17.57 L 10.01 17.57 L 10.01 13.1 Q 10.01 11.92 9.58 11.31 Q 9.16 10.7 8.43 10.47 Q 7.71 10.25 6.8 10.25 L 6.8 10.25 L 3.69 10.25 Z M 25.67 21.63 L 25.67 20.31 L 28.09 20.31 L 28.09 10.23 L 25.67 10.23 L 25.67 8.92 L 32.28 8.92 L 32.28 10.23 L 29.86 10.23 L 29.86 20.31 L 32.28 20.31 L 32.28 21.63 L 25.67 21.63 Z M 51.49 21.82 L 51.49 21.82 Q 49.9 21.82 48.87 21.5 Q 47.84 21.17 47.26 20.58 Q 46.68 19.99 46.44 19.17 Q 46.2 18.35 46.2 17.36 L 46.2 17.36 L 46.2 13.37 Q 46.2 12.36 46.43 11.51 Q 46.67 10.66 47.25 10.04 Q 47.83 9.41 48.86 9.07 Q 49.89 8.73 51.49 8.73 L 51.49 8.73 Q 53.03 8.73 53.99 9.01 Q 54.95 9.3 55.47 9.81 Q 55.99 10.33 56.19 11.02 Q 56.38 11.71 56.38 12.52 L 56.38 12.52 L 56.38 12.71 L 54.76 12.84 L 54.76 12.65 Q 54.76 11.66 54.49 11.12 Q 54.23 10.58 53.52 10.37 Q 52.81 10.15 51.49 10.15 L 51.49 10.15 Q 50.38 10.15 49.59 10.4 Q 48.8 10.65 48.39 11.28 Q 47.98 11.91 47.98 13.04 L 47.98 13.04 L 47.98 17.63 Q 47.98 18.76 48.39 19.35 Q 48.79 19.95 49.58 20.18 Q 50.37 20.4 51.49 20.4 L 51.49 20.4 Q 52.63 20.4 53.35 20.18 Q 54.07 19.95 54.41 19.35 Q 54.74 18.76 54.74 17.63 L 54.74 17.63 L 54.74 16.46 L 51.73 16.46 L 51.73 15.17 L 56.52 15.17 L 56.52 21.63 L 55.55 21.63 L 55.33 19.47 Q 55.25 19.99 54.99 20.42 Q 54.74 20.85 54.27 21.16 Q 53.81 21.48 53.12 21.65 Q 52.43 21.82 51.49 21.82 Z M 70.53 21.63 L 70.53 20.31 L 72.96 20.31 L 72.96 10.23 L 70.53 10.23 L 70.53 8.92 L 77.14 8.92 L 77.14 10.23 L 74.72 10.23 L 74.72 20.31 L 77.14 20.31 L 77.14 21.63 L 70.53 21.63 Z M 95.6 21.63 L 93.83 21.63 L 93.83 10.37 L 90.17 10.37 L 90.17 8.92 L 99.27 8.92 L 99.27 10.37 L 95.6 10.37 L 95.6 21.63 Z M 112.65 21.63 L 110.81 21.63 L 115.55 8.92 L 117.1 8.92 L 121.85 21.63 L 120.05 21.63 L 116.24 10.56 L 116.5 10.57 L 112.65 21.63 Z M 119.92 19.15 L 112.74 19.15 L 113.16 17.85 L 119.52 17.85 L 119.92 19.15 Z M 135.14 21.63 L 135.14 8.92 L 136.91 8.92 L 136.91 20.27 L 142.61 20.27 L 142.61 21.63 L 135.14 21.63 Z M 170.94 21.63 L 170.94 8.92 L 178.16 8.92 L 178.16 10.24 L 172.71 10.24 L 172.71 14.48 L 177.84 14.48 L 177.84 15.79 L 172.71 15.79 L 172.71 21.63 L 170.94 21.63 Z M 192.43 21.63 L 190.59 21.63 L 195.33 8.92 L 196.88 8.92 L 201.63 21.63 L 199.83 21.63 L 196.02 10.56 L 196.29 10.57 L 192.43 21.63 Z M 199.7 19.15 L 192.52 19.15 L 192.95 17.85 L 199.3 17.85 L 199.7 19.15 Z M 219.55 21.82 L 219.55 21.82 Q 217.96 21.82 216.96 21.5 Q 215.96 21.17 215.42 20.58 Q 214.88 19.99 214.67 19.17 Q 214.46 18.35 214.46 17.36 L 214.46 17.36 L 214.46 13.37 Q 214.46 12.36 214.66 11.51 Q 214.86 10.66 215.4 10.04 Q 215.94 9.41 216.94 9.07 Q 217.94 8.73 219.53 8.73 L 219.53 8.73 Q 220.98 8.73 221.91 8.99 Q 222.84 9.25 223.36 9.76 Q 223.88 10.27 224.08 11.02 Q 224.29 11.77 224.29 12.75 L 224.29 12.75 L 224.29 12.87 L 222.61 13.02 L 222.61 12.78 Q 222.61 11.63 222.32 11.07 Q 222.02 10.5 221.35 10.33 Q 220.67 10.15 219.53 10.15 L 219.53 10.15 Q 218.42 10.15 217.69 10.4 Q 216.96 10.65 216.6 11.28 Q 216.24 11.91 216.24 13.04 L 216.24 13.04 L 216.24 17.63 Q 216.24 18.76 216.61 19.35 Q 216.98 19.95 217.72 20.18 Q 218.46 20.4 219.59 20.4 L 219.59 20.4 Q 220.7 20.4 221.36 20.25 Q 222.02 20.1 222.32 19.57 Q 222.61 19.04 222.61 17.9 L 222.61 17.9 L 222.61 17.69 L 224.29 17.69 L 224.29 17.78 Q 224.29 18.74 224.11 19.49 Q 223.93 20.24 223.44 20.76 Q 222.95 21.28 222.01 21.55 Q 221.07 21.82 219.55 21.82 Z M 238.2 21.63 L 238.2 8.92 L 246.13 8.92 L 246.13 10.24 L 239.96 10.24 L 239.96 14.42 L 245.41 14.42 L 245.41 15.74 L 239.96 15.74 L 239.96 20.31 L 246.24 20.31 L 246.24 21.63 L 238.2 21.63 Z" transform="translate(-124.08, -15.28)" style="stroke: none; stroke-width: 1; stroke-dasharray: none; stroke-linecap: butt; stroke-dashoffset: 0; stroke-linejoin: miter; stroke-miterlimit: 4; fill: rgb(7,13,29); fill-rule: nonzero; opacity: 1;"/>
</g>
<g transform="matrix(0.77 0 0 0.77 197.64 148.15)">
<path stroke-linecap="round" d="M 28.69 39.31 L 3.19 39.31 L 3.19 13.81 L 28.22 13.81 L 28.22 16.47 L 6.38 16.47 L 6.38 24.97 L 27.31 24.97 L 27.31 27.63 L 6.38 27.63 L 6.38 36.66 L 28.69 36.66 L 28.69 39.31 Z M 61.63 39.31 L 31.88 39.31 L 31.88 36.66 L 56.54 16.47 L 32.94 16.47 L 32.94 13.81 L 61.09 13.81 L 61.09 16.47 L 36.29 36.66 L 61.63 36.66 L 61.63 39.31 Z M 78.59 30.81 L 65.84 30.81 L 65.84 28.16 L 78.59 28.16 L 78.59 30.81 Z M 99.84 39.31 L 95.59 39.31 L 81.85 13.81 L 85.5 13.81 L 97.72 37.05 L 109.94 13.81 L 113.54 13.81 L 99.84 39.31 Z M 116.84 26.89 L 116.84 26.89 L 116.84 26.23 Q 116.84 22.84 117.17 20.54 Q 117.51 18.25 118.32 16.8 Q 119.13 15.36 120.54 14.59 Q 121.94 13.83 124.06 13.56 Q 126.19 13.28 129.18 13.28 L 129.18 13.28 L 135.87 13.28 Q 139.29 13.28 141.64 13.6 Q 143.99 13.93 145.42 14.88 Q 146.86 15.84 147.5 17.69 Q 148.15 19.54 148.15 22.59 L 148.15 22.59 L 144.96 22.59 Q 144.96 20.19 144.53 18.85 Q 144.1 17.51 143.08 16.92 Q 142.06 16.32 140.3 16.18 Q 138.54 16.04 135.87 16.04 L 135.87 16.04 L 129.18 16.04 Q 126.8 16.04 125.18 16.18 Q 123.55 16.32 122.53 16.83 Q 121.51 17.33 120.97 18.43 Q 120.43 19.52 120.23 21.42 Q 120.03 23.31 120.03 26.23 L 120.03 26.23 L 120.03 26.89 Q 120.03 29.72 120.23 31.58 Q 120.43 33.44 120.97 34.55 Q 121.51 35.66 122.53 36.21 Q 123.55 36.76 125.18 36.92 Q 126.8 37.09 129.18 37.09 L 129.18 37.09 L 135.87 37.09 Q 138.54 37.09 140.3 36.97 Q 142.06 36.86 143.08 36.29 Q 144.1 35.73 144.53 34.41 Q 144.96 33.09 144.96 30.7 L 144.96 30.7 L 148.15 30.7 Q 148.15 33.75 147.5 35.58 Q 146.86 37.4 145.42 38.32 Q 143.99 39.25 141.64 39.54 Q 139.29 39.84 135.87 39.84 L 135.87 39.84 L 129.18 39.84 Q 125.44 39.84 123.03 39.34 Q 120.63 38.83 119.27 37.47 Q 117.92 36.11 117.38 33.55 Q 116.84 31 116.84 26.89 Z M 155.11 39.31 L 151.39 39.31 L 166.26 13.81 L 170.51 13.81 L 185.39 39.31 L 181.67 39.31 L 178.48 33.47 L 158.3 33.47 L 155.11 39.31 Z M 168.39 15.94 L 159.89 30.81 L 176.89 30.81 L 168.39 15.94 Z M 189.71 39.31 L 189.71 13.81 L 206.77 13.81 Q 210.51 13.81 212.79 14.14 Q 215.07 14.48 216.25 15.29 Q 217.43 16.1 217.85 17.51 Q 218.26 18.93 218.26 21.08 L 218.26 21.08 L 218.26 21.75 Q 218.26 23.74 217.79 25.18 Q 217.31 26.61 215.97 27.5 Q 214.63 28.39 211.99 28.75 L 211.99 28.75 L 217.53 39.31 L 214.34 39.31 L 208.91 28.99 Q 208.58 29 208.23 29 Q 207.87 29 207.49 29 L 207.49 29 L 192.89 29 L 192.89 39.31 L 189.71 39.31 Z M 192.89 16.57 L 192.89 26.25 L 206.99 26.25 Q 209.83 26.25 211.46 26.06 Q 213.1 25.87 213.87 25.38 Q 214.64 24.9 214.86 24.02 Q 215.07 23.14 215.07 21.75 L 215.07 21.75 L 215.07 21.08 Q 215.07 19.51 214.77 18.59 Q 214.48 17.68 213.58 17.25 Q 212.68 16.82 210.91 16.69 Q 209.13 16.57 206.16 16.57 L 206.16 16.57 L 192.89 16.57 Z M 243.28 39.31 L 224.35 39.31 L 224.35 13.81 L 243.28 13.81 Q 247.01 13.81 249.42 14.26 Q 251.83 14.71 253.18 16 Q 254.54 17.28 255.07 19.74 Q 255.61 22.2 255.61 26.23 L 255.61 26.23 L 255.61 26.89 Q 255.61 30.8 255.07 33.24 Q 254.54 35.69 253.18 37.01 Q 251.83 38.33 249.42 38.82 Q 247.01 39.31 243.28 39.31 L 243.28 39.31 Z M 227.54 16.57 L 227.54 36.56 L 243.28 36.56 Q 246.25 36.56 248.06 36.27 Q 249.87 35.99 250.82 35.05 Q 251.76 34.1 252.09 32.16 Q 252.43 30.21 252.43 26.89 L 252.43 26.89 L 252.43 26.23 Q 252.43 23.47 252.23 21.68 Q 252.03 19.89 251.49 18.85 Q 250.95 17.81 249.93 17.32 Q 248.91 16.83 247.28 16.7 Q 245.65 16.57 243.28 16.57 L 243.28 16.57 L 227.54 16.57 Z" transform="translate(-129.4, -26.56)" style="stroke: none; stroke-width: 1; stroke-dasharray: none; stroke-linecap: butt; stroke-dashoffset: 0; stroke-linejoin: miter; stroke-miterlimit: 4; fill: rgb(7,13,29); fill-rule: nonzero; opacity: 1;"/>
</g>
</svg>