<svg xml:space="preserve" viewBox="35.2 31.36 249.60000000000002 255.36" version="1.1" xmlns:xlink="http://www.w3.org/1999/xlink" xmlns="http://www.w3.org/2000/svg" style="max-height: 500px" width="249.60000000000002" height="255.36">
<desc>Created with Fabric.js 5.2.4</desc>
<defs>
</defs>
<rect fill="transparent" height="100%" width="100%" y="0" x="0"/>
<g id="935ecf1e-9c5c-4a2f-b0fc-648d6e5bb259" transform="matrix(1 0 0 1 160 160)">
<rect height="320" width="320" ry="0" rx="0" y="-160" x="-160" style="stroke: none; stroke-width: 1; stroke-dasharray: none; stroke-linecap: butt; stroke-dashoffset: 0; stroke-linejoin: miter; stroke-miterlimit: 4; fill: rgb(255,255,255); fill-rule: nonzero; opacity: 1; visibility: hidden;"/>
</g>
<g id="4a5423b4-5874-48ba-ad36-4b3dfe34119c" transform="matrix(Infinity NaN NaN Infinity 0 0)">
</g>
<g transform="matrix(0.3 0 0 0.3 320 320)">
<rect height="320" width="320" ry="0" rx="0" y="-160" x="-160" style="stroke: none; stroke-width: 1; stroke-dasharray: none; stroke-linecap: butt; stroke-dashoffset: 0; stroke-linejoin: miter; stroke-miterlimit: 4; fill: rgb(255,255,255); fill-rule: nonzero; opacity: 1; visibility: hidden;"/>
</g>
<g transform="matrix(0.81 0 0 0.81 121.55 192.22)">
<polygon points="-75.9,31.7 25.6,63.9 101.1,1.4 -101.1,-63.9" style="stroke: none; stroke-width: 1; stroke-dasharray: none; stroke-linecap: butt; stroke-dashoffset: 0; stroke-linejoin: miter; stroke-miterlimit: 4; fill: rgb(255,255,255); fill-rule: nonzero; opacity: 1;"/>
</g>
<g transform="matrix(0.81 0 0 0.81 181.54 103.06)">
<polygon points="-8.4,-84.2 -87,-12.5 -70.6,84.2 87,-58.3" style="stroke: none; stroke-width: 1; stroke-dasharray: none; stroke-linecap: butt; stroke-dashoffset: 0; stroke-linejoin: miter; stroke-miterlimit: 4; fill: rgb(255,255,255); fill-rule: nonzero; opacity: 1;"/>
</g>
<g transform="matrix(0.81 0 0 0.81 233.69 201.08)">
<polygon points="57.35,34.3 34.55,-69.7 -57.35,-103.9 -12.75,103.9" style="stroke: none; stroke-width: 1; stroke-dasharray: none; stroke-linecap: butt; stroke-dashoffset: 0; stroke-linejoin: miter; stroke-miterlimit: 4; fill: rgb(255,255,255); fill-rule: nonzero; opacity: 1;"/>
</g>
</svg>