<svg xmlns:xlink="http://www.w3.org/1999/xlink" xmlns="http://www.w3.org/2000/svg" viewBox="0 0 575 575" class="roots-wrapper" width="575"  height="575" ><g transform="rotate(0 0 0)"><svg viewBoxSize="575" data-root-id="1557975638546" xmlns="http://www.w3.org/2000/svg" xmlns:xlink="http://www.w3.org/1999/xlink" version="1.1" id="Vrstva_1" x="217.59501525878906" y="169.92699224853516" viewBox="81 7.5 297.8999938964844 315.29998779296875" xml:space="preserve" height="147.9760043838197" width="139.809814453125" preserveAspectRatio="xMinYMin" zoom="1" editorType="buyer" data-layer-role="icon" style="position: absolute; height: 147.976px; width: 139.81px; top: 169.927px; left: 217.595px;"><polygon points="106.2,234.1 207.7,266.3 283.2,203.8 81,138.5   " name="Layer %{number}" zoom="1" data-layer-id="0155102438546" style="fill-opacity: 1;" fill="#FFFFFF"></polygon><polygon points="259.1,7.5 180.5,79.2 196.9,175.9 354.5,33.4   " name="Layer %{number}" zoom="1" data-layer-id="3269492638546" style="fill-opacity: 1;" fill="#FFFFFF"></polygon><polygon points="378.9,253.2 356.1,149.2 264.2,115 308.8,322.8   " name="Layer %{number}" zoom="1" data-layer-id="4540558838546" style="fill-opacity: 1;" fill="#FFFFFF"></polygon></svg></g><g transform="rotate(0 0 0)"><svg viewBoxSize="575" data-root-id="7380545338546" xmlns="http://www.w3.org/2000/svg" y="547.65" viewBox="3.2799999713897705 13.670000076293945 259.8500061035156 27.350000381469727" x="97.5547" height="27.350000381469727" width="259.8500061035156" fontUrl="https://fonts.gstatic.com/s/michroma/v20/PN_zRfy9qWD8fEagAMg6rzjb_-Da.ttf" zoom="1" editorType="buyer" data-layer-role="brandName" style="position: absolute; top: 547.65px; width: 259.85px; height: 27.35px; left: 97.5547px;"><g data-horizontal-grow="center" zoom="1" root="[object Object]" style="fill-opacity: 1;" fill="#FFFFFF"><path d="M29.53 40.47L3.28 40.47L3.28 14.22L29.05 14.22L29.05 16.95L6.56 16.95L6.56 25.70L28.11 25.70L28.11 28.44L6.56 28.44L6.56 37.73L29.53 37.73L29.53 40.47ZM63.44 40.47L32.81 40.47L32.81 37.73L58.21 16.95L33.91 16.95L33.91 14.22L62.89 14.22L62.89 16.95L37.36 37.73L63.44 37.73L63.44 40.47ZM80.90 31.72L67.78 31.72L67.78 28.98L80.90 28.98L80.90 31.72ZM102.78 40.47L98.40 40.47L84.25 14.22L88.01 14.22L100.59 38.14L113.17 14.22L116.88 14.22L102.78 40.47ZM120.28 27.69L120.28 27.69L120.28 27.00Q120.28 23.52 120.62 21.15Q120.96 18.78 121.80 17.29Q122.64 15.81 124.08 15.02Q125.52 14.24 127.71 13.95Q129.90 13.67 132.98 13.67L132.98 13.67L139.86 13.67Q143.38 13.67 145.80 14.01Q148.22 14.34 149.70 15.32Q151.18 16.30 151.84 18.21Q152.51 20.11 152.51 23.26L152.51 23.26L149.23 23.26Q149.23 20.78 148.78 19.41Q148.34 18.03 147.29 17.41Q146.24 16.80 144.43 16.65Q142.61 16.51 139.86 16.51L139.86 16.51L132.98 16.51Q130.53 16.51 128.86 16.65Q127.18 16.80 126.13 17.32Q125.08 17.84 124.53 18.97Q123.97 20.10 123.76 22.05Q123.56 23.99 123.56 27.00L123.56 27.00L123.56 27.69Q123.56 30.59 123.76 32.50Q123.97 34.42 124.53 35.56Q125.08 36.71 126.13 37.27Q127.18 37.84 128.86 38.01Q130.53 38.18 132.98 38.18L132.98 38.18L139.86 38.18Q142.61 38.18 144.43 38.06Q146.24 37.94 147.29 37.36Q148.34 36.78 148.78 35.42Q149.23 34.06 149.23 31.60L149.23 31.60L152.51 31.60Q152.51 34.74 151.84 36.62Q151.18 38.50 149.70 39.45Q148.22 40.40 145.80 40.71Q143.38 41.02 139.86 41.02L139.86 41.02L132.98 41.02Q129.13 41.02 126.65 40.49Q124.17 39.97 122.78 38.57Q121.39 37.17 120.83 34.54Q120.28 31.91 120.28 27.69ZM159.67 40.47L155.84 40.47L171.15 14.22L175.53 14.22L190.84 40.47L187.01 40.47L183.73 34.45L162.95 34.45L159.67 40.47ZM173.34 16.41L164.59 31.72L182.09 31.72L173.34 16.41ZM195.29 40.47L195.29 14.22L212.85 14.22Q216.70 14.22 219.05 14.56Q221.40 14.90 222.61 15.74Q223.83 16.58 224.25 18.03Q224.68 19.48 224.68 21.70L224.68 21.70L224.68 22.39Q224.68 24.44 224.19 25.92Q223.71 27.40 222.32 28.31Q220.94 29.22 218.22 29.60L218.22 29.60L223.93 40.47L220.65 40.47L215.06 29.84Q214.72 29.86 214.35 29.86Q213.98 29.86 213.59 29.86L213.59 29.86L198.57 29.86L198.57 40.47L195.29 40.47ZM198.57 17.06L198.57 27.02L213.08 27.02Q216.00 27.02 217.68 26.82Q219.37 26.63 220.16 26.13Q220.95 25.63 221.18 24.73Q221.40 23.82 221.40 22.39L221.40 22.39L221.40 21.70Q221.40 20.08 221.09 19.14Q220.78 18.20 219.86 17.76Q218.94 17.31 217.11 17.18Q215.28 17.06 212.22 17.06L212.22 17.06L198.57 17.06ZM250.43 40.47L230.95 40.47L230.95 14.22L250.43 14.22Q254.28 14.22 256.76 14.68Q259.24 15.14 260.63 16.47Q262.02 17.79 262.58 20.32Q263.13 22.85 263.13 27.00L263.13 27.00L263.13 27.69Q263.13 31.70 262.58 34.22Q262.02 36.74 260.63 38.10Q259.24 39.46 256.76 39.96Q254.28 40.47 250.43 40.47L250.43 40.47ZM234.23 17.06L234.23 37.63L250.43 37.63Q253.49 37.63 255.36 37.34Q257.22 37.05 258.19 36.08Q259.17 35.10 259.51 33.10Q259.85 31.10 259.85 27.69L259.85 27.69L259.85 27.00Q259.85 24.17 259.65 22.32Q259.44 20.47 258.89 19.41Q258.33 18.34 257.28 17.83Q256.23 17.33 254.55 17.19Q252.88 17.06 250.43 17.06L250.43 17.06L234.23 17.06Z" transform="translate(0, 0)" fill="#FFFFFF"></path></g></svg></g></svg>