<svg xmlns:xlink="http://www.w3.org/1999/xlink" xmlns="http://www.w3.org/2000/svg" viewBox="0 0 575 575" class="roots-wrapper" width="575"  height="575" ><g transform="rotate(0 0 0)"><svg viewBoxSize="575" data-root-id="8014042822346" xmlns="http://www.w3.org/2000/svg" xmlns:xlink="http://www.w3.org/1999/xlink" xmlnsSerif="http://www.serif.com/" viewBox="-0.00005447864532470703 -0.00004598498344421387 273.9949951171875 290.8990478515625" version="1.1" xml:space="preserve" height="86.47297668457031" width="81.44805952685313" y="244.264" x="155" preserveAspectRatio="xMinYMin" zoom="1" editorType="buyer" data-layer-role="icon" style="fill-rule: evenodd; clip-rule: evenodd; stroke-linejoin: round; stroke-miterlimit: 2; position: absolute; height: 86.473px; width: 81.4481px; top: 244.264px; left: 155px;"><path d="M153.101,281.992c-3.954,-0.48 -7.892,-1.1 -11.806,-1.854c-2.023,0.283 -4.723,0.641 -6.743,0.944c1.605,0.892 3.697,2.175 5.354,2.968c4.003,0.503 8.031,0.866 12.078,1.087c1.944,-0.341 4.533,-0.815 6.48,-1.134c-1.61,-0.601 -3.708,-1.549 -5.363,-2.011m2.823,-4.496c-3.721,-0.852 -7.429,-1.837 -11.118,-2.948c-2.152,0.163 -5.023,0.357 -7.173,0.546c1.316,1.089 3,2.634 4.392,3.625c3.867,0.845 7.757,1.557 11.662,2.131c2.027,-0.209 4.727,-0.511 6.756,-0.694c-1.357,-0.796 -3.081,-2.021 -4.519,-2.66m10.961,-9.993c-2.814,-1.679 -5.632,-3.476 -8.447,-5.384c-2.212,-0.189 -5.159,-0.489 -7.375,-0.629c0.526,1.476 1.115,3.491 1.763,4.919c3.174,1.633 6.359,3.149 9.546,4.542c2.01,0.139 4.694,0.276 6.7,0.465c-0.658,-1.173 -1.296,-2.906 -2.187,-3.913m6.834,-4.281c-2.249,-2.032 -4.512,-4.176 -6.783,-6.426c-2.091,-0.409 -4.871,-1.006 -6.973,-1.36c0.173,1.576 0.292,3.693 0.584,5.25c2.679,2 5.36,3.89 8.034,5.664c1.863,0.352 4.358,0.767 6.209,1.176c-0.324,-1.29 -0.438,-3.133 -1.071,-4.304m16.451,-7.378c-0.888,-2.643 -1.814,-5.387 -2.774,-8.224c-1.656,-0.85 -3.834,-2.047 -5.524,-2.829c-0.556,1.696 -1.379,3.932 -1.849,5.654c1.433,2.655 2.84,5.215 4.219,7.67c1.388,0.771 3.28,1.728 4.624,2.572c0.389,-1.453 1.308,-3.338 1.304,-4.843m8.148,-2.499c-0.215,-2.85 -0.479,-5.797 -0.79,-8.833c-1.385,-1.04 -3.184,-2.494 -4.621,-3.46c-0.87,1.704 -2.096,3.945 -2.897,5.683c0.792,2.893 1.547,5.695 2.262,8.397c1.106,0.944 2.647,2.132 3.683,3.153c0.708,-1.483 2.025,-3.333 2.363,-4.94m16.967,-2.86c1.189,-3.086 2.304,-6.265 3.345,-9.53c-0.71,-1.39 -1.563,-3.297 -2.375,-4.63c-1.436,1.607 -3.388,3.717 -4.782,5.359c-0.583,3.218 -1.231,6.35 -1.943,9.387c0.43,1.253 1.12,2.889 1.425,4.177c1.299,-1.429 3.296,-3.132 4.33,-4.763m7.318,-0.036c1.794,-3.089 3.504,-6.271 5.128,-9.538c-0.365,-1.524 -0.739,-3.589 -1.225,-5.08c-1.635,1.501 -3.845,3.471 -5.447,5.007c-1.197,3.271 -2.471,6.458 -3.821,9.552c0.094,1.362 0.341,3.176 0.304,4.541c1.517,-1.345 3.761,-2.926 5.061,-4.482m6.446,0.864c2.327,-3.017 4.56,-6.13 6.698,-9.328c0.013,-1.63 0.16,-3.807 0.033,-5.432c-1.776,1.356 -4.167,3.135 -5.919,4.523c-1.76,3.256 -3.609,6.428 -5.545,9.506c-0.242,1.444 -0.442,3.396 -0.816,4.812c1.664,-1.225 4.06,-2.647 5.549,-4.081m5.163,1.705c2.753,-2.876 5.406,-5.85 7.955,-8.912c0.411,-1.69 1.076,-3.92 1.362,-5.635c-1.784,1.19 -4.178,2.758 -5.949,3.969c-2.255,3.169 -4.608,6.252 -7.057,9.239c-0.611,1.485 -1.322,3.513 -2.045,4.948c1.72,-1.083 4.152,-2.333 5.734,-3.609m-106.435,33.947c-3.963,-0.524 -7.891,-1.188 -11.774,-1.989c-1.627,0.35 -3.799,0.806 -5.423,1.167c1.936,1.012 4.475,2.447 6.458,3.366c3.838,0.606 7.721,1.071 11.637,1.39c1.602,-0.419 3.734,-0.991 5.34,-1.397c-1.872,-0.759 -4.299,-1.971 -6.238,-2.537m0.692,-5.877c-3.927,-0.829 -7.82,-1.791 -11.669,-2.882c-1.91,0.305 -4.46,0.698 -6.368,1.018c1.659,1.221 3.811,2.937 5.535,4.065c3.884,0.873 7.814,1.611 11.779,2.211c1.847,-0.362 4.307,-0.859 6.158,-1.203c-1.632,-0.961 -3.691,-2.472 -5.435,-3.209m8.864,-14.059c-3.468,-1.558 -6.911,-3.232 -10.322,-5.017c-2.363,0.109 -5.514,0.232 -7.875,0.367c0.897,1.643 1.983,3.9 2.997,5.473c3.62,1.536 7.278,2.953 10.966,4.247c2.205,-0.142 5.145,-0.357 7.352,-0.473c-0.938,-1.378 -1.886,-3.475 -3.118,-4.597m7.676,-7.007c-3.07,-1.92 -6.124,-3.949 -9.157,-6.081c-2.5,-0.025 -5.832,-0.089 -8.332,-0.08c0.457,1.823 0.938,4.291 1.533,6.074c3.323,1.874 6.677,3.64 10.053,5.291c2.295,-0.003 5.356,-0.038 7.652,-0.007c-0.528,-1.559 -0.781,-3.867 -1.749,-5.197m21.344,-13.4c-1.963,-2.615 -3.936,-5.323 -5.914,-8.117c-2.381,-0.504 -5.546,-1.229 -7.938,-1.676c-0.38,1.991 -0.983,4.631 -1.262,6.639c2.372,2.581 4.75,5.071 7.127,7.462c2.155,0.442 5.041,0.976 7.183,1.477c0.239,-1.736 0.469,-4.065 0.804,-5.785m11.435,-5.122c-1.371,-2.881 -2.765,-5.849 -4.178,-8.895c-2.222,-0.728 -5.167,-1.758 -7.409,-2.423c-0.728,2.01 -1.778,4.664 -2.421,6.703c1.835,2.862 3.66,5.642 5.473,8.33c1.981,0.656 4.643,1.469 6.6,2.192c0.579,-1.773 1.277,-4.163 1.935,-5.907m25.468,-7.814c-0.05,-3.285 -0.153,-6.649 -0.308,-10.081c-1.714,-1.184 -3.953,-2.832 -5.716,-3.942c-1.363,1.942 -3.23,4.497 -4.54,6.475c0.596,3.323 1.15,6.576 1.661,9.748c1.454,1.081 3.45,2.45 4.843,3.608c1.217,-1.743 3.409,-3.784 4.06,-5.808m11.792,-1.994c0.561,-3.389 1.055,-6.854 1.483,-10.385c-1.41,-1.383 -3.224,-3.296 -4.703,-4.606c-1.598,1.854 -3.767,4.292 -5.321,6.181c0.003,3.463 -0.051,6.859 -0.161,10.177c1.15,1.261 2.763,2.874 3.83,4.207c1.461,-1.672 3.901,-3.577 4.872,-5.574m21.498,-0.264c1.676,-3.403 3.26,-6.881 4.749,-10.425c-0.718,-1.739 -1.569,-4.105 -2.399,-5.794c-1.904,1.56 -4.47,3.609 -6.347,5.202c-1.115,3.57 -2.313,7.074 -3.595,10.503c0.477,1.569 1.23,3.629 1.583,5.23c1.802,-1.416 4.55,-2.949 6.009,-4.716m-105.361,42.694c-3.758,-1.192 -7.484,-2.508 -11.171,-3.944c-2.163,0.223 -5.05,0.502 -7.211,0.745c1.304,1.446 2.958,3.456 4.352,4.815c3.809,1.2 7.66,2.274 11.546,3.216c2.058,-0.265 4.8,-0.639 6.861,-0.884c-1.315,-1.182 -2.875,-3.015 -4.377,-3.948m23.554,-21.458c-2.547,-2.294 -5.091,-4.688 -7.624,-7.174c-2.489,-0.262 -5.802,-0.658 -8.295,-0.868c0.006,1.947 -0.095,4.546 0.027,6.489c2.885,2.248 5.79,4.397 8.707,6.44c2.286,0.207 5.339,0.434 7.619,0.693c-0.132,-1.674 -0.413,-3.901 -0.434,-5.58m35.633,-16.01c-0.716,-3.117 -1.471,-6.315 -2.26,-9.585c-2.003,-0.961 -4.645,-2.306 -6.679,-3.198c-1.073,2.001 -2.566,4.636 -3.571,6.671c1.226,3.123 2.427,6.169 3.601,9.131c1.751,0.877 4.121,1.978 5.833,2.928c0.921,-1.784 2.789,-3.959 3.076,-5.947m36.758,-6.162c1.173,-3.433 2.264,-6.941 3.274,-10.513c-1.06,-1.583 -2.388,-3.756 -3.542,-5.273c-1.795,1.72 -4.219,3.98 -5.98,5.734c-0.605,3.552 -1.281,7.04 -2.029,10.453c0.809,1.439 1.99,3.305 2.689,4.8c1.676,-1.561 4.323,-3.291 5.588,-5.201m18.965,2.54c2.148,-3.303 4.192,-6.683 6.131,-10.131c-0.244,-1.883 -0.44,-4.414 -0.819,-6.274c-1.913,1.347 -4.477,3.125 -6.377,4.491c-1.632,3.524 -3.362,6.982 -5.188,10.365c0.063,1.697 0.278,3.961 0.202,5.657c1.815,-1.232 4.507,-2.549 6.051,-4.108m-141.766,45.339c-3.78,-1.209 -7.507,-2.547 -11.171,-4.009c-1.68,0.276 -3.921,0.639 -5.599,0.923c1.716,1.527 3.935,3.647 5.727,5.086c3.661,1.278 7.383,2.427 11.159,3.441c1.638,-0.33 3.822,-0.778 5.463,-1.097c-1.675,-1.301 -3.73,-3.304 -5.579,-4.344m16.948,-26.715c-3.171,-2.169 -6.307,-4.438 -9.4,-6.802c-2.59,0.082 -6.045,0.169 -8.635,0.276c0.405,2.136 0.817,5.014 1.358,7.121c3.315,2.137 6.681,4.173 10.088,6.101c2.42,-0.102 5.645,-0.261 8.066,-0.338c-0.445,-1.906 -1.166,-4.425 -1.477,-6.358m40.413,-25.445c-1.72,-3.083 -3.447,-6.239 -5.178,-9.46c-2.665,-0.583 -6.208,-1.413 -8.886,-1.938c-0.905,2.312 -2.19,5.366 -3.011,7.709c2.093,3.045 4.196,6.019 6.302,8.914c2.458,0.523 5.747,1.164 8.192,1.746c0.772,-2.092 1.73,-4.909 2.581,-6.971m-55.214,43.448c-3.683,-1.525 -7.315,-3.169 -10.888,-4.928c-2.034,0.243 -4.748,0.557 -6.781,0.813c1.321,1.76 2.989,4.181 4.409,5.862c3.645,1.556 7.352,2.991 11.112,4.301c1.952,-0.285 4.553,-0.678 6.507,-0.948c-1.31,-1.529 -2.768,-3.868 -4.359,-5.1m5.429,-8.645c-3.49,-1.834 -6.934,-3.778 -10.325,-5.826c-2.327,0.181 -5.431,0.406 -7.756,0.605c0.9,1.955 1.987,4.62 3.009,6.515c3.535,1.832 7.128,3.553 10.771,5.157c2.204,-0.212 5.14,-0.512 7.345,-0.704c-0.915,-1.723 -1.709,-4.324 -3.044,-5.747m21.08,-19.219c-2.737,-2.52 -5.451,-5.129 -8.136,-7.821c-2.747,-0.102 -6.407,-0.282 -9.155,-0.336c-0.13,2.297 -0.413,5.356 -0.425,7.657c2.976,2.469 5.991,4.849 9.038,7.133c2.573,0.048 6.006,0.067 8.578,0.165c0.028,-2.039 -0.036,-4.763 0.1,-6.798m13.142,-8.231c-2.269,-2.814 -4.528,-5.708 -6.774,-8.676c-2.749,-0.333 -6.409,-0.826 -9.164,-1.108c-0.525,2.324 -1.318,5.403 -1.742,7.748c2.576,2.766 5.178,5.452 7.799,8.051c2.558,0.277 5.974,0.598 8.525,0.929c0.405,-2.084 0.856,-4.881 1.356,-6.944m47.306,-18.997c-0.58,-3.491 -1.202,-7.043 -1.863,-10.647c-2.319,-1.071 -5.382,-2.565 -7.732,-3.565c-1.531,2.207 -3.624,5.116 -5.101,7.36c1.051,3.488 2.074,6.921 3.07,10.29c2.089,0.986 4.908,2.233 6.961,3.292c1.399,-2.019 3.217,-4.746 4.665,-6.73m32.631,-5.499c0.584,-3.688 1.093,-7.43 1.524,-11.218c-1.717,-1.559 -3.945,-3.71 -5.729,-5.191c-1.947,1.93 -4.576,4.471 -6.488,6.436c-0.062,3.749 -0.186,7.453 -0.375,11.1c1.487,1.436 3.543,3.279 4.953,4.791c1.834,-1.776 4.917,-3.664 6.115,-5.918m14.075,-0.069c1.086,-3.69 2.082,-7.435 2.984,-11.225c-1.369,-1.778 -3.111,-4.215 -4.569,-5.921c-2.047,1.739 -4.803,4.025 -6.821,5.796c-0.557,3.794 -1.195,7.542 -1.914,11.237c1.149,1.63 2.774,3.743 3.822,5.439c1.949,-1.598 5.087,-3.237 6.498,-5.326m12.394,1.661c1.528,-3.63 2.953,-7.317 4.271,-11.052c-0.942,-1.975 -2.08,-4.67 -3.148,-6.58c-2.069,1.508 -4.849,3.491 -6.897,5.027c-1.014,3.782 -2.123,7.518 -3.327,11.199c0.781,1.809 1.946,4.174 2.594,6.035c1.951,-1.389 5,-2.766 6.507,-4.629m9.928,3.28c1.883,-3.514 3.651,-7.088 5.302,-10.713c-0.444,-2.123 -0.911,-4.984 -1.487,-7.075c-1.902,1.269 -4.449,2.949 -6.342,4.233c-1.413,3.711 -2.935,7.374 -4.566,10.979c0.306,1.945 0.84,4.524 1.008,6.486c1.825,-1.173 4.606,-2.322 6.085,-3.91m-180.455,60.033c-3.528,-1.594 -6.986,-3.312 -10.363,-5.151c-1.346,0.196 -3.141,0.462 -4.488,0.652c1.798,1.791 4.118,4.261 5.998,5.965c3.344,1.692 6.766,3.257 10.259,4.691c1.317,-0.248 3.075,-0.58 4.393,-0.827c-1.741,-1.597 -3.86,-3.979 -5.799,-5.33m1.083,-9.196c-3.5,-1.833 -6.93,-3.781 -10.282,-5.839c-1.758,0.218 -4.102,0.506 -5.86,0.727c1.391,2.01 3.149,4.76 4.643,6.694c3.379,1.893 6.837,3.669 10.367,5.322c1.7,-0.259 3.966,-0.612 5.667,-0.865c-1.362,-1.81 -2.85,-4.525 -4.535,-6.039m13.87,-21.998c-3.14,-2.405 -6.224,-4.901 -9.245,-7.485c-2.529,0.147 -5.902,0.327 -8.429,0.492c0.389,2.411 0.781,5.65 1.307,8.036c3.179,2.394 6.428,4.692 9.74,6.891c2.391,-0.168 5.577,-0.41 7.968,-0.559c-0.405,-2.212 -1.07,-5.143 -1.341,-7.375m12.011,-10.964c-2.828,-2.689 -5.613,-5.459 -8.347,-8.304c-2.835,0.059 -6.617,0.113 -9.453,0.2c-0.145,2.565 -0.467,5.982 -0.474,8.551c2.954,2.651 5.969,5.218 9.037,7.696c2.656,-0.076 6.195,-0.201 8.851,-0.252c0.113,-2.367 0.154,-5.532 0.386,-7.891m33.398,-20.968c-1.961,-3.233 -3.912,-6.527 -5.848,-9.874c-2.981,-0.423 -6.948,-1.037 -9.937,-1.408c-1.05,2.596 -2.529,6.027 -3.495,8.655c2.234,3.185 4.497,6.311 6.783,9.369c2.806,0.366 6.555,0.805 9.354,1.225c0.941,-2.39 2.124,-5.609 3.143,-7.967m17.893,-8.015c-1.497,-3.442 -3.001,-6.936 -4.51,-10.473c-2.924,-0.666 -6.81,-1.609 -9.747,-2.217c-1.383,2.539 -3.292,5.891 -4.606,8.466c1.828,3.399 3.665,6.747 5.509,10.038c2.736,0.603 6.399,1.352 9.122,2.015c1.268,-2.349 2.899,-5.515 4.232,-7.829m39.851,-12.226c-0.461,-3.759 -0.97,-7.558 -1.528,-11.387c-2.576,-1.198 -5.981,-2.863 -8.589,-3.988c-1.916,2.305 -4.512,5.345 -6.384,7.686c0.89,3.747 1.748,7.46 2.571,11.13c2.373,1.112 5.572,2.526 7.91,3.712c1.805,-2.146 4.174,-5.041 6.02,-7.153m18.452,-3.121c0.018,-3.84 -0.031,-7.717 -0.148,-11.621c-2.318,-1.451 -5.365,-3.458 -7.731,-4.831c-2.072,2.138 -4.868,4.958 -6.905,7.13c0.443,3.853 0.831,7.677 1.167,11.461c2.115,1.349 4.985,3.075 7.047,4.503c1.971,-1.993 4.566,-4.683 6.57,-6.642m33.639,-0.413c0.892,-3.851 1.682,-7.738 2.368,-11.652c-1.652,-1.952 -3.773,-4.628 -5.512,-6.503c-2.177,1.691 -5.104,3.917 -7.257,5.639c-0.403,3.934 -0.897,7.841 -1.479,11.712c1.464,1.807 3.504,4.148 4.873,6.028c2.102,-1.568 5.556,-3.04 7.007,-5.224m-164.556,66.78c-3.369,-2.12 -6.672,-4.344 -9.902,-6.667c-2.159,0.203 -5.038,0.465 -7.196,0.678c0.907,2.227 2.001,5.248 3.032,7.421c3.322,2.143 6.722,4.18 10.191,6.105c2.065,-0.232 4.818,-0.553 6.885,-0.773c-0.905,-2.028 -1.605,-5.043 -3.01,-6.764m36.742,-33.471c-2.421,-2.985 -4.812,-6.039 -7.17,-9.157c-2.961,-0.17 -6.906,-0.442 -9.869,-0.564c-0.654,2.625 -1.621,6.104 -2.174,8.753c2.624,2.936 5.294,5.802 8.004,8.589c2.804,0.118 6.545,0.229 9.347,0.396c0.556,-2.406 1.21,-5.635 1.862,-8.017m55.581,-24.974c-0.985,-3.629 -1.997,-7.304 -3.036,-11.014c-2.791,-0.927 -6.495,-2.224 -9.308,-3.085c-1.687,2.442 -3.989,5.665 -5.621,8.144c1.368,3.599 2.725,7.156 4.069,10.665c2.596,0.857 6.08,1.937 8.653,2.862c1.572,-2.273 3.62,-5.336 5.243,-7.572m57.338,-9.612c0.496,-3.877 0.906,-7.79 1.229,-11.728c-1.993,-1.719 -4.589,-4.085 -6.649,-5.723c-2.167,1.918 -5.083,4.444 -7.222,6.394c-0.016,3.923 -0.106,7.82 -0.269,11.682c1.795,1.598 4.259,3.655 5.981,5.332c2.078,-1.788 5.611,-3.553 6.93,-5.957m-175.647,71.874c-3.204,-2.179 -6.32,-4.469 -9.337,-6.867c-1.397,0.136 -3.258,0.328 -4.656,0.452c1.445,2.237 3.271,5.287 4.824,7.45c3.015,2.271 6.128,4.427 9.329,6.465c1.359,-0.179 3.171,-0.414 4.529,-0.597c-1.409,-2.069 -2.965,-5.088 -4.689,-6.903m23.363,-36.827c-2.763,-2.875 -5.461,-5.824 -8.085,-8.841c-2.723,0.127 -6.354,0.283 -9.076,0.425c-0.151,2.79 -0.48,6.507 -0.493,9.301c2.777,2.862 5.637,5.646 8.571,8.346c2.579,-0.142 6.017,-0.347 8.597,-0.472c0.143,-2.628 0.21,-6.142 0.486,-8.759m55.708,-35.075c-1.711,-3.537 -3.412,-7.114 -5.099,-10.721c-3.186,-0.498 -7.427,-1.211 -10.621,-1.657c-1.509,2.773 -3.586,6.436 -5.024,9.246c1.937,3.486 3.904,6.934 5.895,10.335c3.038,0.441 7.096,0.979 10.125,1.474c1.416,-2.604 3.243,-6.11 4.724,-8.677m-75.889,59.851c-3.128,-2.407 -6.17,-4.914 -9.118,-7.514c-1.873,0.172 -4.369,0.402 -6.241,0.573c0.936,2.457 2.065,5.783 3.127,8.189c2.998,2.462 6.093,4.821 9.276,7.072c1.804,-0.204 4.21,-0.481 6.014,-0.682c-0.92,-2.29 -1.622,-5.63 -3.058,-7.638m7.469,-11.894c-2.988,-2.63 -5.898,-5.348 -8.721,-8.148c-2.298,0.17 -5.361,0.388 -7.658,0.564c0.425,2.636 0.864,6.174 1.426,8.784c2.922,2.651 5.937,5.211 9.035,7.675c2.196,-0.193 5.123,-0.459 7.32,-0.642c-0.424,-2.469 -0.24,-6.013 -1.402,-8.233m29.002,-26.441c-2.444,-3.127 -4.839,-6.314 -7.178,-9.555c-3.027,-0.021 -7.062,-0.09 -10.088,-0.066c-0.749,2.903 -1.847,6.748 -2.488,9.677c2.539,3.088 5.146,6.113 7.814,9.069c2.904,-0.037 6.775,-0.127 9.679,-0.119c0.676,-2.702 1.488,-6.33 2.261,-9.006m18.079,-11.325c-2.105,-3.339 -4.179,-6.726 -6.216,-10.156c-3.149,-0.245 -7.345,-0.616 -10.497,-0.813c-1.148,2.858 -2.76,6.637 -3.82,9.528c2.264,3.292 4.58,6.533 6.94,9.717c3.014,0.189 7.036,0.395 10.047,0.633c1.062,-2.673 2.403,-6.269 3.546,-8.909m43.528,-19.522c-1.289,-3.704 -2.59,-7.439 -3.901,-11.194c-3.143,-0.763 -7.32,-1.834 -10.477,-2.537c-1.813,2.659 -4.284,6.168 -6.042,8.864c1.573,3.656 3.152,7.284 4.736,10.876c2.984,0.7 6.977,1.576 9.947,2.338c1.72,-2.505 3.965,-5.879 5.737,-8.347m66.451,-14.179c-0.043,-3.971 -0.165,-7.957 -0.366,-11.95c-2.545,-1.599 -5.892,-3.807 -8.486,-5.324c-2.266,2.087 -5.315,4.84 -7.553,6.958c0.456,3.966 0.848,7.925 1.176,11.866c2.375,1.499 5.592,3.422 7.914,5.002c2.194,-1.966 5.092,-4.618 7.315,-6.552m-186.132,86.513c-2.811,-2.537 -5.514,-5.182 -8.101,-7.932c-0.95,-0.001 -2.217,0.035 -3.165,-0.007c1.498,2.419 3.391,5.712 5.002,8.057c2.567,2.663 5.249,5.213 8.036,7.647c0.93,-0.043 2.172,-0.078 3.101,-0.144c-1.464,-2.285 -3.17,-5.509 -4.873,-7.621m1.365,-11.599c-2.792,-2.691 -5.478,-5.478 -8.05,-8.358c-1.45,0.086 -3.381,0.218 -4.831,0.284c1.002,2.624 2.22,6.172 3.35,8.744c2.589,2.782 5.293,5.463 8.104,8.038c1.41,-0.121 3.293,-0.274 4.703,-0.405c-0.986,-2.49 -1.842,-6.042 -3.276,-8.303m17.494,-27.745c-2.561,-3.059 -5.033,-6.186 -7.41,-9.375c-2.462,0.144 -5.744,0.332 -8.206,0.481c-0.14,2.967 -0.454,6.921 -0.458,9.892c2.471,3.078 5.045,6.082 7.716,9.008c2.362,-0.161 5.51,-0.383 7.872,-0.536c0.143,-2.842 0.21,-6.639 0.486,-9.47m15.148,-13.828c-2.359,-3.242 -4.646,-6.538 -6.854,-9.882c-2.907,0.111 -6.785,0.243 -9.692,0.371c-0.718,3.082 -1.796,7.166 -2.384,10.275c2.337,3.23 4.767,6.4 7.281,9.505c2.773,-0.123 6.47,-0.302 9.244,-0.411c0.719,-2.958 1.576,-6.929 2.405,-9.858m42.124,-26.447c-1.801,-3.592 -3.572,-7.212 -5.309,-10.851c-3.299,-0.33 -7.695,-0.813 -10.999,-1.096c-1.604,2.972 -3.81,6.9 -5.342,9.911c1.913,3.544 3.878,7.06 5.887,10.54c3.195,0.277 7.458,0.602 10.648,0.927c1.533,-2.83 3.514,-6.638 5.115,-9.431m72.831,-25.529c-0.836,-3.93 -1.716,-7.862 -2.639,-11.787c-3.193,-1.124 -7.429,-2.686 -10.645,-3.74c-2.272,2.47 -5.335,5.734 -7.569,8.238c1.118,3.877 2.213,7.756 3.282,11.629c3.061,1.06 7.166,2.407 10.202,3.536c2.21,-2.363 5.123,-5.545 7.369,-7.876m23.272,-3.936c-0.528,-3.983 -1.123,-7.964 -1.786,-11.932c-3.004,-1.406 -6.979,-3.352 -10.019,-4.681c-2.336,2.242 -5.478,5.205 -7.784,7.478c0.854,3.939 1.659,7.886 2.414,11.834c2.87,1.33 6.73,3.033 9.562,4.441c2.283,-2.143 5.301,-5.028 7.613,-7.14m42.426,-0.521c0.035,-3.99 -0.04,-7.977 -0.228,-11.951c-2.429,-2.004 -5.602,-4.757 -8.1,-6.673c-2.23,1.686 -5.223,3.91 -7.434,5.622c0.356,3.986 0.615,7.986 0.779,11.989c2.297,1.894 5.43,4.339 7.654,6.319c2.198,-1.592 5.111,-3.743 7.329,-5.306m-207.364,84.202c-2.702,-2.875 -5.304,-5.833 -7.797,-8.869c-1.964,0.133 -4.581,0.315 -6.545,0.442c0.444,2.819 0.907,6.601 1.487,9.396c2.547,2.93 5.209,5.773 7.974,8.524c1.896,-0.161 4.425,-0.376 6.321,-0.537c-0.435,-2.687 -0.3,-6.485 -1.44,-8.956m46.271,-42.152c-2.093,-3.43 -4.133,-6.9 -6.115,-10.403c-3.159,-0.096 -7.371,-0.264 -10.531,-0.319c-1.231,3.08 -2.957,7.153 -4.099,10.267c2.139,3.396 4.35,6.75 6.628,10.053c3.065,0.039 7.152,0.05 10.216,0.132c1.169,-2.92 2.649,-6.845 3.901,-9.73m69.997,-31.452c-1.172,-3.843 -2.362,-7.695 -3.568,-11.546c-3.318,-0.839 -7.729,-2.013 -11.061,-2.792c-2.124,2.681 -4.999,6.222 -7.076,8.939c1.4,3.785 2.802,7.565 4.205,11.33c3.193,0.78 7.465,1.763 10.642,2.605c2.057,-2.561 4.758,-6.01 6.858,-8.536m72.21,-12.104c-0.223,-4.003 -0.537,-8.001 -0.943,-11.987c-2.735,-1.722 -6.335,-4.097 -9.122,-5.735c-2.318,1.965 -5.432,4.559 -7.727,6.551c0.586,3.976 1.096,7.965 1.533,11.958c2.6,1.629 6.118,3.722 8.664,5.434c2.277,-1.867 5.293,-4.383 7.595,-6.221m-211.292,88.38c-2.338,-3.007 -4.552,-6.109 -6.633,-9.299c-0.975,-0.064 -2.28,-0.1 -3.252,-0.215c1.031,2.77 2.283,6.512 3.444,9.23c2.08,3.136 4.292,6.173 6.629,9.106c0.959,0.021 2.237,0.078 3.195,0.066c-1.017,-2.665 -2.044,-6.369 -3.383,-8.888m27.483,-43.32c-2.109,-3.37 -4.122,-6.789 -6.031,-10.249c-2.589,0.118 -6.041,0.276 -8.63,0.396c-0.689,3.209 -1.728,7.466 -2.288,10.7c1.976,3.394 4.067,6.733 6.264,10.012c2.498,-0.136 5.829,-0.322 8.327,-0.453c0.705,-3.122 1.529,-7.314 2.358,-10.406m65.529,-41.259c-1.56,-3.716 -3.092,-7.436 -4.593,-11.155c-3.401,-0.4 -7.932,-0.976 -11.338,-1.332c-1.955,2.997 -4.617,6.957 -6.512,9.991c1.61,3.665 3.27,7.324 4.976,10.969c3.332,0.349 7.779,0.77 11.106,1.165c1.907,-2.892 4.397,-6.784 6.361,-9.638m-89.098,70.375c-2.294,-3.13 -4.468,-6.338 -6.513,-9.621c-1.526,0.037 -3.562,0.111 -5.089,0.124c0.46,2.959 0.944,6.927 1.542,9.862c2.066,3.223 4.264,6.361 6.587,9.409c1.493,-0.073 3.484,-0.156 4.976,-0.244c-0.454,-2.858 -0.453,-6.833 -1.503,-9.53m8.774,-13.974c-2.221,-3.245 -4.331,-6.555 -6.322,-9.923c-2.044,0.096 -4.768,0.234 -6.812,0.32c-0.09,3.099 -0.337,7.231 -0.29,10.332c2.033,3.304 4.194,6.539 6.472,9.697c1.986,-0.123 4.634,-0.283 6.62,-0.41c0.097,-3.005 1.11,-7.112 0.332,-10.016m34.072,-31.064c-1.939,-3.502 -3.802,-7.037 -5.584,-10.597c-3.013,0.021 -7.032,0.017 -10.045,0.073c-1.288,3.263 -3.095,7.58 -4.286,10.88c1.867,3.494 3.833,6.951 5.888,10.364c2.961,-0.085 6.91,-0.234 9.873,-0.281c1.244,-3.133 2.823,-7.343 4.154,-10.439m21.241,-13.304c-1.764,-3.612 -3.474,-7.243 -5.124,-10.884c-3.246,-0.172 -7.572,-0.437 -10.82,-0.57c-1.65,3.15 -3.922,7.314 -5.497,10.502c1.749,3.581 3.575,7.142 5.47,10.674c3.187,0.115 7.437,0.229 10.622,0.385c1.603,-3.033 3.675,-7.112 5.349,-10.107m51.136,-22.934c-1.339,-3.803 -2.679,-7.6 -4.015,-11.382c-3.466,-0.651 -8.078,-1.567 -11.554,-2.166c-2.182,2.813 -5.136,6.529 -7.272,9.377c1.449,3.739 2.922,7.485 4.415,11.229c3.387,0.601 7.912,1.352 11.289,2.006c2.14,-2.72 4.953,-6.38 7.137,-9.064m25.325,-7.77c-1.129,-3.867 -2.286,-7.72 -3.467,-11.55c-3.444,-0.908 -8.021,-2.173 -11.481,-3.02c-2.316,2.608 -5.439,6.056 -7.718,8.696c1.296,3.796 2.589,7.609 3.874,11.431c3.356,0.854 7.846,1.937 11.186,2.854c2.281,-2.524 5.29,-5.919 7.606,-8.411m52.742,-8.889c-0.693,-3.94 -1.467,-7.858 -2.325,-11.742c-3.14,-1.517 -7.292,-3.614 -10.47,-5.051c-2.343,2.073 -5.487,4.814 -7.808,6.912c0.968,3.873 1.871,7.778 2.713,11.703c3.039,1.449 7.129,3.305 10.13,4.833c2.327,-1.997 5.41,-4.684 7.76,-6.655m-209.955,99.029c-1.801,-3.349 -3.458,-6.79 -4.965,-10.319c-0.447,-0.271 -1.12,-0.535 -1.485,-0.909c1.037,2.875 2.293,6.757 3.464,9.58c1.503,3.516 3.156,6.934 4.949,10.25c0.448,0.221 1.017,0.587 1.495,0.731c-1.04,-2.799 -2.292,-6.584 -3.458,-9.333m1.513,-12.849c-1.795,-3.397 -3.448,-6.873 -4.953,-10.422c-0.983,-0.126 -2.303,-0.232 -3.275,-0.423c0.502,3.045 1.04,7.129 1.68,10.147c1.507,3.534 3.165,6.984 4.967,10.344c0.979,0.082 2.283,0.228 3.265,0.268c-0.508,-2.974 -0.778,-7.036 -1.684,-9.914m19.378,-30.734c-1.721,-3.514 -3.323,-7.073 -4.797,-10.67c-2.139,0.064 -4.99,0.163 -7.129,0.212c-0.663,3.288 -1.667,7.651 -2.204,10.962c1.489,3.58 3.116,7.109 4.872,10.581c2.099,-0.09 4.896,-0.203 6.995,-0.301c0.676,-3.236 2.611,-7.496 2.263,-10.784m16.78,-15.316c-1.657,-3.573 -3.213,-7.174 -4.662,-10.794c-2.681,0.091 -6.257,0.213 -8.939,0.306c-1.223,3.347 -2.961,7.774 -4.069,11.161c1.468,3.603 3.059,7.173 4.766,10.702c2.617,-0.113 6.107,-0.266 8.725,-0.377c1.252,-3.3 2.829,-7.737 4.179,-10.998m46.661,-29.295c-1.479,-3.685 -2.91,-7.365 -4.285,-11.031c-3.292,-0.255 -7.678,-0.628 -10.972,-0.848c-1.989,3.102 -4.7,7.203 -6.63,10.344c1.403,3.651 2.88,7.305 4.427,10.954c3.272,0.202 7.638,0.436 10.909,0.677c1.964,-3.029 4.529,-7.105 6.551,-10.096m24.998,-11.199c-1.385,-3.727 -2.747,-7.436 -4.084,-11.12c-3.447,-0.461 -8.037,-1.116 -11.49,-1.534c-2.196,2.916 -5.169,6.771 -7.317,9.722c1.365,3.671 2.778,7.359 4.234,11.055c3.418,0.416 7.982,0.928 11.395,1.388c2.178,-2.854 5.039,-6.692 7.262,-9.511m55.677,-17.08c-1.172,-3.792 -2.384,-7.548 -3.634,-11.259c-3.513,-0.981 -8.181,-2.346 -11.711,-3.266c-2.373,2.433 -5.563,5.653 -7.909,8.112c1.28,3.703 2.544,7.446 3.791,11.22c3.462,0.939 8.096,2.133 11.541,3.135c2.376,-2.383 5.519,-5.587 7.922,-7.942m-156.784,88.294c-1.757,-3.457 -3.38,-6.975 -4.861,-10.549c-1.554,-0.012 -3.626,0.002 -5.178,-0.043c-0.082,3.188 -0.319,7.439 -0.265,10.629c1.489,3.559 3.127,7.049 4.903,10.467c1.537,-0.024 3.586,-0.036 5.122,-0.082c0.082,-3.126 0.903,-7.357 0.279,-10.422m51.199,-46.641c-1.567,-3.63 -3.057,-7.27 -4.463,-10.913c-3.035,-0.062 -7.081,-0.173 -10.117,-0.206c-1.689,3.272 -4.013,7.598 -5.624,10.91c1.429,3.627 2.959,7.239 4.584,10.829c3.025,0 7.058,-0.032 10.083,0.001c1.66,-3.187 3.804,-7.473 5.537,-10.621m-68.359,47.102c-1.171,-3.648 -2.162,-7.302 -2.978,-10.955c-0.398,-0.243 -1.005,-0.476 -1.323,-0.817c0.453,3.001 0.927,7.024 1.518,10.001c0.817,3.681 1.808,7.353 2.979,11.009c0.438,0.286 0.981,0.743 1.463,0.947c-0.501,-3.055 -1.004,-7.159 -1.659,-10.185m28.777,-45.362c-1.194,-3.61 -2.242,-7.175 -3.147,-10.688c-2.135,0.124 -4.982,0.289 -7.118,0.415c-1.203,3.266 -2.918,7.582 -4.004,10.889c0.87,3.548 1.896,7.134 3.081,10.755c2.146,-0.061 5.007,-0.139 7.152,-0.205c1.209,-3.351 3.926,-7.606 4.036,-11.166m68.619,-43.204c-1.251,-3.575 -2.435,-7.054 -3.55,-10.434c-3.233,-0.221 -7.54,-0.559 -10.776,-0.732c-2.223,2.865 -5.24,6.644 -7.407,9.552c1.059,3.407 2.206,6.904 3.442,10.486c3.288,0.263 7.674,0.574 10.958,0.879c2.199,-2.926 5.078,-6.867 7.333,-9.751m82.089,-25.176c-1.319,-3.555 -2.664,-6.984 -4.032,-10.287c-3.498,-0.923 -8.146,-2.222 -11.662,-3.074c-2.314,2.101 -5.425,4.874 -7.709,7.006c1.308,3.314 2.614,6.752 3.917,10.31c3.522,0.982 8.236,2.227 11.738,3.278c2.324,-2.17 5.395,-5.094 7.748,-7.233m-175.242,98.826c-1.162,-3.638 -2.149,-7.265 -2.965,-10.874c-0.966,-0.082 -2.26,-0.149 -3.222,-0.275c-0.119,3.131 -0.406,7.303 -0.388,10.436c0.804,3.641 1.784,7.289 2.942,10.937c1.006,0.129 2.344,0.339 3.354,0.427c0.081,-3.196 0.663,-7.478 0.279,-10.651m9.178,-14.616c-1.17,-3.625 -2.176,-7.222 -3.021,-10.785c-1.522,0.037 -3.553,0.1 -5.076,0.122c-0.648,3.215 -1.632,7.479 -2.151,10.717c0.822,3.597 1.813,7.217 2.977,10.851c1.551,0.018 3.621,0.058 5.173,0.057c0.627,-3.289 2.239,-7.617 2.098,-10.962m35.64,-32.494c-1.203,-3.595 -2.282,-7.125 -3.24,-10.585c-2.642,0.095 -6.167,0.185 -8.807,0.317c-1.735,3.247 -4.131,7.534 -5.776,10.828c0.912,3.496 1.961,7.048 3.15,10.654c2.705,-0.077 6.311,-0.211 9.016,-0.255c1.695,-3.288 3.876,-7.715 5.657,-10.959m22.217,-13.916c-1.223,-3.582 -2.348,-7.083 -3.377,-10.499c-2.965,-0.042 -6.92,-0.137 -9.886,-0.137c-2.016,3.072 -4.771,7.126 -6.716,10.244c0.976,3.448 2.066,6.97 3.274,10.561c3.028,0.073 7.066,0.135 10.092,0.245c1.983,-3.125 4.561,-7.334 6.613,-10.414m53.49,-23.989c-1.272,-3.561 -2.508,-7.013 -3.705,-10.352c-3.406,-0.425 -7.941,-1.043 -11.352,-1.413c-2.343,2.624 -5.507,6.087 -7.805,8.751c1.137,3.363 2.333,6.83 3.587,10.397c3.452,0.476 8.063,1.063 11.507,1.592c2.33,-2.694 5.394,-6.322 7.768,-8.975m26.49,-8.128c-1.296,-3.553 -2.587,-6.988 -3.868,-10.302c-3.492,-0.649 -8.138,-1.573 -11.641,-2.159c-2.369,2.38 -5.562,5.52 -7.895,7.936c1.219,3.332 2.469,6.779 3.747,10.337c3.528,0.706 8.244,1.591 11.76,2.358c2.369,-2.452 5.492,-5.754 7.897,-8.17m55.169,-9.297c-1.347,-3.545 -2.751,-6.961 -4.208,-10.245c-3.413,-1.223 -7.938,-2.93 -11.38,-4.071c-2.166,1.789 -5.075,4.149 -7.218,5.965c1.397,3.291 2.762,6.71 4.092,10.257c3.427,1.279 8.024,2.911 11.42,4.271c2.187,-1.853 5.083,-4.352 7.294,-6.177m23.794,-0.116c-1.368,-3.545 -2.821,-6.96 -4.354,-10.245c-3.251,-1.538 -7.545,-3.675 -10.838,-5.122c-1.95,1.479 -4.568,3.43 -6.501,4.932c1.477,3.283 2.895,6.698 4.247,10.243c3.255,1.589 7.638,3.624 10.847,5.304c1.98,-1.534 4.601,-3.603 6.599,-5.112m37.74,8.352c-1.402,-3.552 -2.934,-6.984 -4.586,-10.295c-2.451,-2.16 -5.64,-5.137 -8.177,-7.196c-1.122,0.861 -2.609,2.02 -3.74,2.869c1.613,3.296 3.12,6.72 4.512,10.268c2.497,2.224 5.916,5.093 8.318,7.419c1.102,-0.919 2.587,-2.126 3.673,-3.065m-273.052,93.158l-0.607,-6.087l1.219,10.997l-0.612,-4.91m1.498,-12.723c-0.467,-3.606 -0.766,-7.196 -0.9,-10.762c-0.346,-0.185 -0.881,-0.339 -1.152,-0.624c-0.118,2.998 -0.397,6.992 -0.384,9.992c0.122,3.637 0.41,7.289 0.87,10.946c0.382,0.232 0.86,0.61 1.278,0.769c0.084,-3.096 0.38,-7.225 0.288,-10.321m19.189,-30.434c-0.571,-3.442 -0.994,-6.835 -1.272,-10.172c-1.521,0.116 -3.549,0.279 -5.071,0.387c-1.178,3.112 -2.851,7.225 -3.919,10.377c0.209,3.419 0.572,6.883 1.094,10.384c1.556,-0.061 3.629,-0.136 5.184,-0.206c1.193,-3.232 3.6,-7.347 3.984,-10.77m16.617,-15.168c-0.662,-3.36 -1.192,-6.655 -1.594,-9.878c-2.105,0.204 -4.912,0.467 -7.015,0.681c-1.657,3.109 -3.957,7.207 -5.516,10.366c0.306,3.308 0.754,6.675 1.346,10.096c2.131,-0.147 4.971,-0.347 7.102,-0.489c1.701,-3.234 5.098,-7.168 5.677,-10.776m46.206,-29.01c-0.911,-3.203 -1.74,-6.31 -2.489,-9.315c-2.87,-0.009 -6.697,-0.057 -9.568,-0.026c-2.217,2.751 -5.225,6.378 -7.388,9.172c0.62,3.076 1.337,6.243 2.155,9.497c2.962,0.041 6.913,0.058 9.875,0.139c2.223,-2.841 5.137,-6.669 7.415,-9.467m105.416,-32.321c-1.479,-3.029 -2.991,-5.926 -4.532,-8.689c-3.418,-0.836 -7.959,-2.016 -11.394,-2.782c-2.124,1.705 -4.976,3.954 -7.079,5.684c1.399,2.786 2.789,5.702 4.167,8.747c3.483,0.899 8.147,2.029 11.611,3.001c2.167,-1.789 5.037,-4.199 7.227,-5.961m-180.633,91.748c-0.492,-3.524 -0.823,-7.015 -0.995,-10.467c-0.915,-0.018 -2.135,-0.007 -3.048,-0.061c-0.659,3.074 -1.652,7.15 -2.19,10.247c0.133,3.531 0.428,7.09 0.89,10.67c0.955,0.067 2.225,0.184 3.18,0.22c0.646,-3.184 2,-7.365 2.163,-10.609m50.644,-46.137c-0.77,-3.271 -1.432,-6.459 -1.989,-9.561c-2.525,0.121 -5.894,0.25 -8.416,0.405c-2.021,2.967 -4.78,6.882 -6.732,9.895c0.44,3.181 1.002,6.438 1.687,9.767c2.615,-0.103 6.102,-0.272 8.718,-0.339c2.018,-3.051 4.646,-7.162 6.732,-10.167m76.614,-34.424c-1.19,-3.082 -2.355,-6.044 -3.494,-8.884c-3.299,-0.351 -7.692,-0.869 -10.996,-1.167c-2.335,2.258 -5.481,5.237 -7.783,7.53c0.994,2.89 2.033,5.895 3.118,9.012c3.383,0.404 7.9,0.892 11.277,1.35c2.362,-2.353 5.48,-5.524 7.878,-7.841m-136.131,80.34c0.128,-2.156 0.315,-4.304 0.56,-6.44c-0.289,3.774 -0.791,8.801 -0.923,12.584l0.363,-6.144m26.949,-42.48c-0.058,-3.148 0.018,-6.227 0.226,-9.231c-1.459,0.187 -3.404,0.437 -4.863,0.623c-1.582,2.9 -3.776,6.724 -5.267,9.672c-0.334,3.133 -0.526,6.33 -0.573,9.584c1.508,-0.134 3.519,-0.31 5.026,-0.448c1.634,-3.061 4.589,-6.839 5.451,-10.2m64.259,-40.459c-0.702,-2.742 -1.338,-5.374 -1.905,-7.89c-2.705,0.041 -6.314,0.062 -9.018,0.141c-2.264,2.367 -5.321,5.486 -7.542,7.892c0.361,2.617 0.806,5.34 1.337,8.166c2.832,-0.006 6.608,-0.048 9.44,-0.016c2.306,-2.488 5.341,-5.844 7.688,-8.293m76.874,-23.577c-1.474,-2.506 -2.959,-4.876 -4.453,-7.109c-3.257,-0.493 -7.593,-1.208 -10.859,-1.641c-2.035,1.566 -4.768,3.63 -6.783,5.222c1.273,2.277 2.557,4.689 3.848,7.231c3.37,0.56 7.874,1.25 11.234,1.873c2.104,-1.674 4.889,-3.929 7.013,-5.576m-163.96,92.544c0.184,-3.435 0.525,-6.83 1.019,-10.179c-0.316,-0.116 -0.793,-0.175 -1.051,-0.391c-0.672,2.89 -1.677,6.721 -2.233,9.635c-0.536,3.466 -0.914,6.967 -1.133,10.499c0.36,0.161 0.819,0.434 1.2,0.53c0.657,-3.028 1.727,-7.031 2.198,-10.094m8.586,-13.673c0.097,-3.296 0.343,-6.539 0.732,-9.722c-0.848,0.046 -1.98,0.131 -2.83,0.151c-1.125,2.912 -2.723,6.76 -3.745,9.71c-0.472,3.307 -0.794,6.663 -0.959,10.063c0.899,0 2.099,0.022 2.998,-0.001c1.139,-3.061 3.124,-7.007 3.804,-10.201m33.34,-30.396c-0.241,-2.989 -0.368,-5.893 -0.382,-8.707c-1.99,0.222 -4.645,0.489 -6.631,0.739c-1.992,2.819 -4.713,6.534 -6.636,9.401c-0.152,2.941 -0.179,5.962 -0.077,9.057c2.103,-0.215 4.904,-0.529 7.009,-0.715c2.014,-2.933 5.761,-6.348 6.717,-9.775m20.783,-13.018c-0.451,-2.857 -0.81,-5.615 -1.076,-8.271c-2.365,0.152 -5.52,0.323 -7.882,0.508c-2.168,2.605 -5.109,6.038 -7.223,8.687c0.077,2.771 0.261,5.636 0.554,8.589c2.488,-0.131 5.803,-0.337 8.292,-0.436c2.2,-2.724 5.082,-6.396 7.335,-9.077m50.038,-22.442c-0.958,-2.629 -1.875,-5.137 -2.75,-7.521c-2.962,-0.1 -6.911,-0.275 -9.875,-0.331c-2.267,2.101 -5.319,4.871 -7.552,7.007c0.655,2.468 1.371,5.053 2.146,7.752c3.088,0.148 7.209,0.302 10.295,0.495c2.32,-2.221 5.382,-5.216 7.736,-7.402m24.78,-7.602c-1.209,-2.553 -2.402,-4.976 -3.578,-7.267c-3.141,-0.271 -7.325,-0.679 -10.471,-0.898c-2.191,1.845 -5.136,4.277 -7.302,6.153c0.952,2.357 1.94,4.841 2.963,7.448c3.262,0.328 7.617,0.716 10.873,1.095c2.254,-1.96 5.235,-4.602 7.515,-6.531m51.608,-8.698c-1.732,-2.464 -3.501,-4.79 -5.302,-6.976c-3.281,-0.749 -7.642,-1.815 -10.939,-2.494c-1.795,1.265 -4.202,2.931 -5.982,4.217c1.589,2.207 3.163,4.553 4.717,7.036c3.384,0.82 7.914,1.847 11.28,2.739c1.868,-1.357 4.342,-3.187 6.226,-4.522m22.258,-0.108c-1.956,-2.464 -3.974,-4.789 -6.046,-6.973c-3.226,-1.032 -7.504,-2.485 -10.754,-3.435c-1.507,0.978 -3.526,2.265 -5.02,3.261c1.874,2.182 3.709,4.506 5.501,6.967c3.319,1.106 7.771,2.502 11.062,3.69c1.577,-1.054 3.667,-2.477 5.257,-3.51m-211.088,82.824c0.326,-1.315 0.675,-2.623 1.047,-3.922l-2.263,8.87l1.216,-4.948m16.974,-26.921c0.574,-2.945 1.282,-5.817 2.121,-8.609c-0.801,0.118 -1.867,0.285 -2.669,0.393c-1.516,2.654 -3.616,6.148 -5.049,8.848c-0.977,2.957 -1.816,5.986 -2.512,9.077c0.871,-0.071 2.033,-0.153 2.903,-0.238c1.56,-2.842 4.057,-6.439 5.206,-9.471m14.699,-13.417c0.351,-2.743 0.823,-5.398 1.411,-7.961c-1.358,0.252 -3.172,0.578 -4.529,0.84c-1.87,2.592 -4.431,6 -6.228,8.643c-0.782,2.733 -1.435,5.55 -1.958,8.442c1.438,-0.204 3.355,-0.479 4.793,-0.682c1.951,-2.786 5.243,-6.126 6.511,-9.282m40.872,-25.661c-0.265,-2.355 -0.452,-4.597 -0.561,-6.723c-2.188,0.187 -5.107,0.405 -7.292,0.624c-2.18,2.168 -5.125,5.02 -7.264,7.229c-0.152,2.266 -0.212,4.641 -0.178,7.121c2.345,-0.156 5.47,-0.393 7.816,-0.516c2.244,-2.321 5.195,-5.454 7.479,-7.735m21.896,-9.809c-0.595,-2.206 -1.135,-4.291 -1.617,-6.249c-2.494,0.102 -5.822,0.203 -8.314,0.344c-2.173,1.927 -5.1,4.464 -7.24,6.428c0.204,2.079 0.48,4.278 0.829,6.593c2.655,-0.058 6.195,-0.169 8.852,-0.19c2.246,-2.078 5.211,-4.883 7.49,-6.926m48.771,-14.962c-1.333,-1.98 -2.657,-3.823 -3.972,-5.526c-2.952,-0.191 -6.885,-0.495 -9.84,-0.634c-1.916,1.392 -4.489,3.223 -6.385,4.641c1.023,1.775 2.073,3.686 3.149,5.73c3.107,0.261 7.254,0.561 10.357,0.873c2.007,-1.525 4.664,-3.584 6.691,-5.084m-137.062,77.333c0.75,-3.151 1.646,-6.243 2.683,-9.269c-0.237,-0.056 -0.608,-0.03 -0.792,-0.192c-1.111,2.677 -2.684,6.211 -3.698,8.926c-1.118,3.183 -2.091,6.424 -2.913,9.716c0.297,0.103 0.682,0.291 0.993,0.339c1.116,-2.857 2.761,-6.609 3.727,-9.52m44.747,-40.764c0.07,-2.531 0.24,-4.962 0.508,-7.287c-1.797,0.241 -4.196,0.536 -5.988,0.806c-2.101,2.407 -4.951,5.573 -7,8.025c-0.502,2.485 -0.894,5.066 -1.171,7.739c1.943,-0.227 4.532,-0.553 6.479,-0.752c2.15,-2.56 5.952,-5.418 7.172,-8.531m137.524,-42.121c-2.023,-1.891 -4.084,-3.638 -6.178,-5.24c-3.102,-0.63 -7.226,-1.538 -10.342,-2.097c-1.385,0.845 -3.243,1.956 -4.617,2.821c1.824,1.615 3.63,3.375 5.414,5.276c3.239,0.719 7.575,1.61 10.798,2.399c1.477,-0.948 3.436,-2.23 4.925,-3.159m36.03,4.824c-2.572,-1.963 -5.218,-3.789 -7.931,-5.474c-2.806,-1.18 -6.514,-2.84 -9.357,-3.929c-0.584,0.339 -1.357,0.798 -1.945,1.129c2.509,1.634 4.962,3.412 7.352,5.331c2.968,1.296 6.967,2.934 9.892,4.327c0.597,-0.415 1.409,-0.945 1.989,-1.384m-196.261,41.651c0.974,-2.497 2.069,-4.903 3.281,-7.211c-0.673,0.18 -1.572,0.411 -2.242,0.601c-1.767,2.297 -4.185,5.312 -5.885,7.658c-1.413,2.513 -2.7,5.114 -3.858,7.798c0.772,-0.134 1.801,-0.31 2.572,-0.447c1.838,-2.521 4.597,-5.683 6.132,-8.399m53.387,-33.614c-0.155,-1.786 -0.243,-3.447 -0.263,-4.979c-1.935,0.242 -4.52,0.534 -6.45,0.812c-2.051,1.689 -4.817,3.905 -6.836,5.632c-0.308,1.692 -0.536,3.506 -0.681,5.438c2.126,-0.201 4.959,-0.498 7.088,-0.667c2.142,-1.871 4.968,-4.401 7.142,-6.236m63.867,-19.587c-1.506,-1.372 -3.008,-2.6 -4.502,-3.68c-2.706,-0.075 -6.312,-0.226 -9.019,-0.248c-1.541,0.936 -3.61,2.16 -5.135,3.121c1.145,1.151 2.311,2.446 3.496,3.883c2.892,0.161 6.751,0.328 9.64,0.541c1.656,-1.086 3.849,-2.556 5.52,-3.617m-136.073,76.868l0.124,-0.268l-0.377,0.811l0.253,-0.543m7.124,-11.345c1.234,-2.758 2.601,-5.437 4.096,-8.031c-0.128,0.003 -0.3,0.006 -0.428,0.009c0.001,0 0.001,-0.001 0.001,-0.002l-0.803,1.233l-1.348,2.133l-4.07,6.973c-1.099,2.013 -2.131,4.063 -3.092,6.15c0.212,0.043 0.492,0.136 0.71,0.14c1.478,-2.582 3.543,-5.974 4.934,-8.605m27.662,-25.22c0.646,-2.222 1.397,-4.339 2.25,-6.347c-1.171,0.273 -2.739,0.61 -3.902,0.912c-2.019,2.162 -4.76,5 -6.726,7.21c-1.118,2.21 -2.122,4.522 -3.01,6.928c1.336,-0.263 3.114,-0.635 4.456,-0.874c2.078,-2.35 5.388,-5.099 6.932,-7.829m17.244,-10.801c0.279,-1.992 0.646,-3.869 1.099,-5.626c-1.557,0.276 -3.638,0.615 -5.189,0.921c-2.074,1.933 -4.878,4.469 -6.912,6.445c-0.754,1.94 -1.409,3.993 -1.963,6.153c1.738,-0.25 4.054,-0.608 5.796,-0.831c2.15,-2.12 5.787,-4.378 7.169,-7.062m41.517,-18.62c-0.604,-1.596 -1.162,-3.058 -1.673,-4.383c-2.247,0.176 -5.245,0.374 -7.488,0.59c-1.943,1.427 -4.556,3.298 -6.474,4.758c0.164,1.458 0.389,3.048 0.675,4.765c2.442,-0.118 5.697,-0.31 8.141,-0.39c2.045,-1.603 4.749,-3.77 6.819,-5.34m20.56,-6.309c-1.041,-1.461 -2.057,-2.782 -3.045,-3.961c-2.496,0.076 -5.825,0.134 -8.318,0.256c-1.777,1.186 -4.164,2.739 -5.921,3.954c0.635,1.283 1.311,2.705 2.028,4.263c2.689,-0.004 6.275,-0.05 8.964,-0.01c1.888,-1.351 4.385,-3.179 6.292,-4.502m-93.172,39.791c1.498,-2.107 3.1,-4.128 4.804,-6.059c-3.423,3.971 -7.849,9.385 -11.042,13.542l0.427,-0.098c1.742,-2.217 4.091,-5.152 5.811,-7.385m11.329,-10.341c1.274,-1.955 2.657,-3.802 4.145,-5.535c-0.492,0.24 -1.172,0.519 -1.64,0.804c-1.887,1.854 -4.451,4.278 -6.287,6.183c-1.758,1.972 -3.403,4.05 -4.93,6.228c0.632,-0.197 1.471,-0.471 2.106,-0.656c1.981,-2.108 4.79,-4.772 6.606,-7.024m31.502,-19.778c0.359,-1.38 0.795,-2.633 1.305,-3.752c-1.302,0.328 -3.048,0.731 -4.34,1.097c-1.916,1.406 -4.501,3.241 -6.385,4.689c-0.877,1.317 -1.666,2.76 -2.368,4.326c1.519,-0.288 3.54,-0.698 5.064,-0.956c2.017,-1.622 5.297,-3.245 6.724,-5.404m71.868,-22.035c-1.728,-0.741 -3.453,-1.33 -5.173,-1.766c-2.422,0.068 -5.654,0.104 -8.074,0.229c-1.084,0.481 -2.541,1.096 -3.611,1.607c1.321,0.498 2.66,1.149 4.015,1.948c2.636,0.039 6.151,0.042 8.786,0.134c1.217,-0.646 2.827,-1.532 4.057,-2.152m-88.46,31.165c0.851,-1.642 1.796,-3.165 2.832,-4.565c-0.904,0.304 -2.123,0.674 -3.013,1.017c-1.962,1.642 -4.617,3.788 -6.539,5.478c-1.364,1.622 -2.626,3.361 -3.784,5.212c1.107,-0.282 2.577,-0.682 3.69,-0.937c2.043,-1.863 5.106,-4.032 6.814,-6.205m52.088,-23.404c-0.671,-0.959 -1.302,-1.774 -1.892,-2.443c-1.946,0.277 -4.547,0.604 -6.486,0.925c-1.607,0.926 -3.769,2.128 -5.356,3.089c0.183,0.806 0.421,1.755 0.711,2.842c2.172,-0.202 5.065,-0.508 7.241,-0.671c1.734,-1.124 4.027,-2.651 5.782,-3.742m53.733,-9.008c-2.241,-0.695 -4.498,-1.237 -6.764,-1.625c-2.566,-0.099 -5.986,-0.291 -8.554,-0.325c-0.735,0.257 -1.724,0.572 -2.448,0.858c1.889,0.405 3.78,0.966 5.667,1.678c2.765,0.22 6.456,0.456 9.215,0.739c0.865,-0.398 2.008,-0.952 2.884,-1.325m27.713,3.719l0.112,-0.047c-4.456,-1.135 -10.413,-2.596 -14.92,-3.509c1.907,0.359 3.8,0.788 5.677,1.285c2.739,0.679 6.313,2.44 9.131,2.271m-107.075,9.6c0.39,-0.715 0.847,-1.29 1.37,-1.722l-3.156,1.32l-0.315,0.153l-5.221,2.744c-0.948,0.637 -1.818,1.413 -2.61,2.323c1.22,-0.348 2.839,-0.845 4.069,-1.157c1.758,-1.099 4.422,-2.169 5.863,-3.661m44.575,-13.671c-1.416,-0.161 -2.814,-0.167 -4.19,-0.017l-4.24,0.722l-2.663,0.534l-2.358,0.624c0.925,-0.059 1.882,0.036 2.87,0.284c2.141,-0.226 4.991,-0.573 7.137,-0.75c1.032,-0.42 2.396,-1.016 3.444,-1.397m-70.574,28.159c1.031,-0.919 2.109,-1.775 3.235,-2.568c-3.051,2.245 -7.074,5.3 -10.03,7.668l-0.526,0.44l-0.609,0.52c0.445,-0.258 1.022,-0.637 1.487,-0.857c1.932,-1.562 4.528,-3.62 6.443,-5.203m12.008,-7.522c0.968,-0.992 2.02,-1.852 3.152,-2.576l-0.792,0.428c-2.32,1.404 -5.409,3.283 -7.685,4.756c-1.304,0.865 -2.539,1.829 -3.704,2.888c0.827,-0.317 1.918,-0.772 2.758,-1.054c1.881,-1.334 4.5,-2.966 6.271,-4.442m28.91,-12.966c-0.212,-0.463 -0.373,-0.779 -0.482,-0.945c-1.309,0.423 -3.073,0.939 -4.364,1.416c-1.424,0.621 -3.341,1.406 -4.744,2.072c-0.338,0.338 -0.614,0.822 -0.827,1.448c1.564,-0.346 3.643,-0.844 5.216,-1.15c1.56,-0.853 3.62,-2.029 5.201,-2.841m14.318,-4.393c-0.797,-0.283 -1.558,-0.415 -2.282,-0.393c-1.608,0.405 -3.766,0.893 -5.359,1.352c-1.18,0.417 -2.768,0.932 -3.93,1.394c0.268,0.113 0.584,0.377 0.947,0.789c1.861,-0.309 4.337,-0.761 6.205,-1.026c1.325,-0.635 3.075,-1.519 4.419,-2.115m-25.55,7.475l0.507,-0.222l-0.787,0.343l0.28,-0.121" name="Layer %{number}" zoom="1" data-layer-id="0418462622346" style="fill-rule: nonzero; fill-opacity: 1;" fill="#F2BE5C"></path><linearGradient id="_Linear1" x1="0" y1="0" x2="1" y2="0" gradientUnits="userSpaceOnUse" gradientTransform="matrix(273.995,0,0,290.899,1.13687e-13,145.449)" name="Layer %{number}" zoom="1" data-layer-id="3988908622346"><stop offset="0" style="stop-color: rgb(255, 242, 0); stop-opacity: 1;"></stop><stop offset="1" style="stop-color: rgb(247, 147, 29); stop-opacity: 1;"></stop></linearGradient></svg></g><g transform="rotate(0 0 0)"><svg viewBoxSize="575" data-root-id="2219719622346" xmlns="http://www.w3.org/2000/svg" y="303.88651171875" viewBox="1.2400000095367432 3.3399999141693115 132.6599884033203 10.84999942779541" x="255.19252014160156" height="10.84999942779541" width="132.6599884033203" fontUrl="https://fonts.gstatic.com/s/ubuntucondensed/v16/u-4k0rCzjgs5J7oXnJcM_0kACGMtf-fVqvHoJXw.ttf" zoom="1" editorType="buyer" data-layer-role="slogan" style="position: absolute; top: 303.887px; width: 132.66px; height: 10.85px; left: 255.193px;"><g data-horizontal-grow="center" zoom="1" root="[object Object]" style="fill-opacity: 1;" fill="#F2BE5C"><path d="M7.80 8.76L7.80 8.76Q7.80 10.21 7.49 11.22Q7.18 12.23 6.61 12.86Q6.03 13.48 5.22 13.77Q4.40 14.05 3.40 14.05L3.40 14.05Q2.38 14.05 1.24 13.78L1.24 13.78L1.24 3.73Q1.81 3.61 2.35 3.53Q2.89 3.46 3.38 3.46L3.38 3.46Q4.40 3.46 5.22 3.74Q6.03 4.03 6.61 4.65Q7.18 5.28 7.49 6.29Q7.80 7.30 7.80 8.76ZM6.36 8.76L6.36 8.76Q6.36 7.65 6.20 6.87Q6.03 6.09 5.69 5.60Q5.34 5.10 4.78 4.88Q4.22 4.65 3.44 4.65L3.44 4.65Q3.23 4.65 3.02 4.67Q2.81 4.68 2.59 4.71L2.59 4.71L2.59 12.80Q2.81 12.83 3.02 12.84Q3.23 12.86 3.43 12.86L3.43 12.86Q4.22 12.86 4.77 12.63Q5.33 12.41 5.68 11.92Q6.03 11.43 6.20 10.66Q6.36 9.88 6.36 8.76ZM15.41 13.95L15.41 3.58L16.76 3.58L16.76 13.95L15.41 13.95ZM24.38 8.76L24.38 8.76Q24.38 7.29 24.65 6.26Q24.92 5.22 25.42 4.57Q25.92 3.92 26.63 3.63Q27.34 3.34 28.23 3.34L28.23 3.34Q28.90 3.34 29.45 3.52Q30.01 3.71 30.35 3.95L30.35 3.95L29.93 5.07Q29.59 4.83 29.18 4.68Q28.78 4.52 28.26 4.52L28.26 4.52Q26.95 4.52 26.38 5.57Q25.82 6.63 25.82 8.76L25.82 8.76Q25.82 9.89 25.99 10.70Q26.16 11.51 26.47 12.02Q26.79 12.53 27.24 12.77Q27.69 13.01 28.24 13.01L28.24 13.01Q28.70 13.01 29.03 12.90L29.03 12.90L29.03 8.84L30.38 8.84L30.38 13.72Q29.98 13.92 29.38 14.05Q28.78 14.19 28.12 14.19L28.12 14.19Q27.31 14.19 26.62 13.87Q25.94 13.54 25.43 12.88Q24.93 12.21 24.66 11.19Q24.38 10.16 24.38 8.76ZM38.21 13.95L38.21 3.58L39.55 3.58L39.55 13.95L38.21 13.95ZM46.56 3.58L52.52 3.58L52.52 4.73L50.21 4.73L50.21 13.95L48.86 13.95L48.86 4.73L46.56 4.73L46.56 3.58ZM60.79 3.58L62.21 3.58Q62.57 4.70 62.92 5.84Q63.28 6.99 63.61 8.25Q63.95 9.50 64.29 10.91Q64.62 12.32 64.97 13.95L64.97 13.95L63.62 13.95Q63.50 13.27 63.37 12.62Q63.25 11.96 63.11 11.30L63.11 11.30L59.85 11.30Q59.70 11.96 59.58 12.62Q59.46 13.27 59.34 13.95L59.34 13.95L58.04 13.95Q58.37 12.32 58.71 10.91Q59.06 9.50 59.39 8.25Q59.73 6.99 60.08 5.84Q60.43 4.70 60.79 3.58L60.79 3.58ZM61.48 5.10L61.48 5.10Q61.11 6.35 60.76 7.60Q60.42 8.86 60.10 10.18L60.10 10.18L62.84 10.18Q62.54 8.86 62.20 7.60Q61.85 6.35 61.48 5.10ZM73.41 12.80L76.69 12.80L76.69 13.95L72.06 13.95L72.06 3.58L73.41 3.58L73.41 12.80ZM93.64 13.95L92.29 13.95L92.29 3.58L96.95 3.58L96.95 4.73L93.64 4.73L93.64 7.99L96.57 7.99L96.57 9.11L93.64 9.11L93.64 13.95ZM105.55 3.58L106.98 3.58Q107.34 4.70 107.69 5.84Q108.04 6.99 108.38 8.25Q108.71 9.50 109.05 10.91Q109.39 12.32 109.73 13.95L109.73 13.95L108.38 13.95Q108.26 13.27 108.14 12.62Q108.01 11.96 107.87 11.30L107.87 11.30L104.61 11.30Q104.46 11.96 104.34 12.62Q104.22 13.27 104.10 13.95L104.10 13.95L102.80 13.95Q103.13 12.32 103.47 10.91Q103.82 9.50 104.16 8.25Q104.49 6.99 104.84 5.84Q105.20 4.70 105.55 3.58L105.55 3.58ZM106.24 5.10L106.24 5.10Q105.87 6.35 105.52 7.60Q105.18 8.86 104.87 10.18L104.87 10.18L107.60 10.18Q107.31 8.86 106.96 7.60Q106.62 6.35 106.24 5.10ZM119.79 14.17L119.79 14.17Q117.96 14.17 116.99 12.81Q116.02 11.45 116.02 8.61L116.02 8.61Q116.02 7.15 116.29 6.15Q116.57 5.15 117.06 4.52Q117.56 3.89 118.23 3.61Q118.90 3.34 119.70 3.34L119.70 3.34Q120.36 3.34 120.92 3.51Q121.49 3.68 121.85 3.94L121.85 3.94L121.45 5.06Q121.09 4.82 120.68 4.67Q120.27 4.52 119.73 4.52L119.73 4.52Q118.53 4.52 117.99 5.51Q117.45 6.51 117.45 8.61L117.45 8.61Q117.45 10.72 118.02 11.85Q118.59 12.99 119.88 12.99L119.88 12.99Q120.49 12.99 120.87 12.84Q121.25 12.69 121.61 12.45L121.61 12.45L121.99 13.51Q121.64 13.78 121.08 13.98Q120.52 14.17 119.79 14.17ZM133.90 13.95L129.01 13.95L129.01 3.58L133.66 3.58L133.66 4.73L130.35 4.73L130.35 7.95L133.35 7.95L133.35 9.07L130.35 9.07L130.35 12.80L133.90 12.80L133.90 13.95Z" transform="translate(0, 0)" fill="#F2BE5C"></path></g></svg></g><g transform="rotate(0 0 0)"><svg viewBoxSize="575" data-root-id="8289064422346" xmlns="http://www.w3.org/2000/svg" y="255.89" viewBox="2.9100000858306885 13.09000015258789 186.6699981689453 31.610000610351562" x="255.193" height="31.610000610351562" width="186.6699981689453" fontUrl="https://fonts.gstatic.com/s/poppins/v23/pxiByp8kv8JHgFVrLEj6V1tvFP-KUEg.ttf" zoom="1" editorType="buyer" data-layer-role="brandName" style="position: absolute; top: 255.89px; width: 186.67px; height: 31.61px; left: 255.193px;"><g data-horizontal-grow="center" zoom="1" root="[object Object]" style="fill-opacity: 1;" fill="#FFFFFF"><path d="M20.01 19.63L8.82 19.63L8.82 27.02L18.74 27.02L18.74 31.70L8.82 31.70L8.82 39.51L20.01 39.51L20.01 44.32L2.91 44.32L2.91 14.82L20.01 14.82L20.01 19.63ZM41.07 25.71L30.77 39.47L41.20 39.47L41.20 44.32L24.06 44.32L24.06 39.55L34.28 25.79L24.10 25.79L24.10 20.94L41.07 20.94L41.07 25.71ZM45.84 26.76L63.74 26.76L63.74 31.75L45.84 31.75L45.84 26.76ZM74.21 20.94L80.12 38.88L86.03 20.94L92.32 20.94L83.67 44.32L76.49 44.32L67.88 20.94L74.21 20.94ZM94.14 32.63Q94.14 29.00 95.61 26.28Q97.09 23.56 99.71 22.06Q102.33 20.56 105.70 20.56L105.70 20.56Q110.05 20.56 112.90 22.73Q115.75 24.91 116.72 28.83L116.72 28.83L110.35 28.83Q109.84 27.31 108.64 26.45Q107.43 25.58 105.66 25.58L105.66 25.58Q103.13 25.58 101.65 27.42Q100.17 29.25 100.17 32.63L100.17 32.63Q100.17 35.97 101.65 37.80Q103.13 39.64 105.66 39.64L105.66 39.64Q109.25 39.64 110.35 36.43L110.35 36.43L116.72 36.43Q115.75 40.23 112.88 42.47Q110.01 44.70 105.70 44.70L105.70 44.70Q102.33 44.70 99.71 43.21Q97.09 41.71 95.61 38.98Q94.14 36.26 94.14 32.63L94.14 32.63ZM119.55 32.55Q119.55 29.00 120.96 26.26Q122.38 23.51 124.81 22.04Q127.23 20.56 130.23 20.56L130.23 20.56Q132.85 20.56 134.81 21.61Q136.77 22.67 137.96 24.27L137.96 24.27L137.96 20.94L143.91 20.94L143.91 44.32L137.96 44.32L137.96 40.91Q136.82 42.55 134.81 43.63Q132.81 44.70 130.19 44.70L130.19 44.70Q127.23 44.70 124.81 43.19Q122.38 41.67 120.96 38.90Q119.55 36.14 119.55 32.55L119.55 32.55ZM137.96 32.63Q137.96 30.48 137.11 28.94Q136.27 27.40 134.83 26.57Q133.40 25.75 131.75 25.75L131.75 25.75Q130.10 25.75 128.71 26.55Q127.32 27.35 126.45 28.90Q125.59 30.44 125.59 32.55L125.59 32.55Q125.59 34.66 126.45 36.24Q127.32 37.82 128.73 38.67Q130.15 39.51 131.75 39.51L131.75 39.51Q133.40 39.51 134.83 38.69Q136.27 37.87 137.11 36.33Q137.96 34.78 137.96 32.63L137.96 32.63ZM155.60 24.57Q156.74 22.71 158.58 21.66Q160.41 20.60 162.78 20.60L162.78 20.60L162.78 26.81L161.22 26.81Q158.43 26.81 157.02 28.11Q155.60 29.42 155.60 32.67L155.60 32.67L155.60 44.32L149.69 44.32L149.69 20.94L155.60 20.94L155.60 24.57ZM165.23 32.55Q165.23 29.00 166.64 26.26Q168.05 23.51 170.50 22.04Q172.95 20.56 175.95 20.56L175.95 20.56Q178.23 20.56 180.30 21.55Q182.36 22.54 183.59 24.19L183.59 24.19L183.59 13.09L189.58 13.09L189.58 44.32L183.59 44.32L183.59 40.86Q182.49 42.59 180.51 43.65Q178.52 44.70 175.91 44.70L175.91 44.70Q172.95 44.70 170.50 43.19Q168.05 41.67 166.64 38.90Q165.23 36.14 165.23 32.55L165.23 32.55ZM183.63 32.63Q183.63 30.48 182.79 28.94Q181.94 27.40 180.51 26.57Q179.07 25.75 177.43 25.75L177.43 25.75Q175.78 25.75 174.39 26.55Q172.99 27.35 172.13 28.90Q171.26 30.44 171.26 32.55L171.26 32.55Q171.26 34.66 172.13 36.24Q172.99 37.82 174.41 38.67Q175.82 39.51 177.43 39.51L177.43 39.51Q179.07 39.51 180.51 38.69Q181.94 37.87 182.79 36.33Q183.63 34.78 183.63 32.63L183.63 32.63Z" transform="translate(0, 0)" fill="#FFFFFF"></path></g></svg></g></svg>