<svg xmlns:xlink="http://www.w3.org/1999/xlink" xmlns="http://www.w3.org/2000/svg" class="roots-wrapper" viewBox="0 167.71 562.67 214.74"><g transform="rotate(0 84.6205 275.0845)"><svg xmlns="http://www.w3.org/2000/svg" xmlns:xlink="http://www.w3.org/1999/xlink" viewBoxSize="575" data-root-id="4039736287574" id="Layer_1" dataName="Layer 1" viewBox="6.336987018585205 36.13996887207031 299.9573669433594 380.603759765625" height="214.7433314713062" width="169.2412109375" y="167.713" x="0" preserveAspectRatio="xMinYMin" zoom="1" editorType="buyer" data-layer-role="icon" style="position: absolute; height: 214.743px; width: 169.241px; top: 167.713px; left: 0px; transform: rotate(0deg);"><defs><linearGradient id="linear-gradient" x1="67.79" y1="184.06" x2="318.1" y2="334.7" gradientUnits="userSpaceOnUse" name="Layer %{number}" zoom="1" data-layer-id="7925575987574"><stop offset="0" stop-color="#27384a"/><stop offset="0.48" stop-color="#0b0e15"/><stop offset="1" stop-color="#71d0f6"/></linearGradient><linearGradient id="linear-gradient-2" x1="62.15" y1="268.48" x2="177.64" y2="373.59" gradientUnits="userSpaceOnUse" name="Layer %{number}" zoom="1" data-layer-id="4674053487574"><stop offset="0" stop-color="#27384a"/><stop offset="0.48" stop-color="#307cc0"/><stop offset="1" stop-color="#71d0f6"/></linearGradient><linearGradient id="linear-gradient-3" x1="61.29" y1="272.28" x2="233.88" y2="372.2" xlink:href="#linear-gradient" name="Layer %{number}" zoom="1" data-layer-id="1631674787574"/><linearGradient id="linear-gradient-4" x1="60.67" y1="402.35" x2="172.59" y2="320.59" gradientUnits="userSpaceOnUse" name="Layer %{number}" zoom="1" data-layer-id="7337731287574"><stop offset="0" stop-color="#dde1ea"/><stop offset="1" stop-color="#85a7c5"/></linearGradient><linearGradient id="linear-gradient-5" x1="243.8" y1="265.25" x2="8.92" y2="105.64" xlink:href="#linear-gradient-2" name="Layer %{number}" zoom="1" data-layer-id="8135538287574"/><linearGradient id="linear-gradient-6" x1="246.53" y1="221.6" x2="62.26" y2="95.72" gradientUnits="userSpaceOnUse" name="Layer %{number}" zoom="1" data-layer-id="0146754587574"><stop offset="0" stop-color="#dde1ea"/><stop offset="0.48" stop-color="#85a7c5"/><stop offset="1" stop-color="#71d0f6"/></linearGradient><linearGradient id="linear-gradient" x1="67.79" y1="184.06" x2="318.1" y2="334.7" gradientUnits="userSpaceOnUse" name="Layer %{number}" zoom="1" data-layer-id="7925575987574"><stop offset="0" stop-color="#27384a"/><stop offset="0.48" stop-color="#0b0e15"/><stop offset="1" stop-color="#71d0f6"/></linearGradient><linearGradient id="linear-gradient-2" x1="62.15" y1="268.48" x2="177.64" y2="373.59" gradientUnits="userSpaceOnUse" name="Layer %{number}" zoom="1" data-layer-id="4674053487574"><stop offset="0" stop-color="#27384a"/><stop offset="0.48" stop-color="#307cc0"/><stop offset="1" stop-color="#71d0f6"/></linearGradient><linearGradient id="linear-gradient-3" x1="61.29" y1="272.28" x2="233.88" y2="372.2" xlink:href="#linear-gradient" name="Layer %{number}" zoom="1" data-layer-id="1631674787574"/><linearGradient id="linear-gradient-4" x1="60.67" y1="402.35" x2="172.59" y2="320.59" gradientUnits="userSpaceOnUse" name="Layer %{number}" zoom="1" data-layer-id="7337731287574"><stop offset="0" stop-color="#dde1ea"/><stop offset="1" stop-color="#85a7c5"/></linearGradient><linearGradient id="linear-gradient-5" x1="243.8" y1="265.25" x2="8.92" y2="105.64" xlink:href="#linear-gradient-2" name="Layer %{number}" zoom="1" data-layer-id="8135538287574"/><linearGradient id="linear-gradient-6" x1="246.53" y1="221.6" x2="62.26" y2="95.72" gradientUnits="userSpaceOnUse" name="Layer %{number}" zoom="1" data-layer-id="0146754587574"><stop offset="0" stop-color="#dde1ea"/><stop offset="0.48" stop-color="#85a7c5"/><stop offset="1" stop-color="#71d0f6"/></linearGradient><linearGradient id="linear-gradient" x1="67.79" y1="184.06" x2="318.1" y2="334.7" gradientUnits="userSpaceOnUse" name="Layer %{number}" zoom="1" data-layer-id="7925575987574"><stop offset="0" stop-color="#27384a"/><stop offset="0.48" stop-color="#0b0e15"/><stop offset="1" stop-color="#71d0f6"/></linearGradient><linearGradient id="linear-gradient-2" x1="62.15" y1="268.48" x2="177.64" y2="373.59" gradientUnits="userSpaceOnUse" name="Layer %{number}" zoom="1" data-layer-id="4674053487574"><stop offset="0" stop-color="#27384a"/><stop offset="0.48" stop-color="#307cc0"/><stop offset="1" stop-color="#71d0f6"/></linearGradient><linearGradient id="linear-gradient-3" x1="61.29" y1="272.28" x2="233.88" y2="372.2" xlink:href="#linear-gradient" name="Layer %{number}" zoom="1" data-layer-id="1631674787574"/><linearGradient id="linear-gradient-4" x1="60.67" y1="402.35" x2="172.59" y2="320.59" gradientUnits="userSpaceOnUse" name="Layer %{number}" zoom="1" data-layer-id="7337731287574"><stop offset="0" stop-color="#dde1ea"/><stop offset="1" stop-color="#85a7c5"/></linearGradient><linearGradient id="linear-gradient-5" x1="243.8" y1="265.25" x2="8.92" y2="105.64" xlink:href="#linear-gradient-2" name="Layer %{number}" zoom="1" data-layer-id="8135538287574"/><linearGradient id="linear-gradient-6" x1="246.53" y1="221.6" x2="62.26" y2="95.72" gradientUnits="userSpaceOnUse" name="Layer %{number}" zoom="1" data-layer-id="0146754587574"><stop offset="0" stop-color="#dde1ea"/><stop offset="0.48" stop-color="#85a7c5"/><stop offset="1" stop-color="#71d0f6"/></linearGradient></defs><linearGradient id="linear-gradient" x1="67.79" y1="184.06" x2="318.1" y2="334.7" gradientUnits="userSpaceOnUse" name="Layer %{number}" zoom="1" data-layer-id="7925575987574"><stop offset="0" stop-color="#27384a"/><stop offset="0.48" stop-color="#0b0e15"/><stop offset="1" stop-color="#71d0f6"/></linearGradient><linearGradient id="linear-gradient-2" x1="62.15" y1="268.48" x2="177.64" y2="373.59" gradientUnits="userSpaceOnUse" name="Layer %{number}" zoom="1" data-layer-id="4674053487574"><stop offset="0" stop-color="#27384a"/><stop offset="0.48" stop-color="#307cc0"/><stop offset="1" stop-color="#71d0f6"/></linearGradient><linearGradient id="linear-gradient-3" x1="61.29" y1="272.28" x2="233.88" y2="372.2" xlink:href="#linear-gradient" name="Layer %{number}" zoom="1" data-layer-id="1631674787574"/><linearGradient id="linear-gradient-4" x1="60.67" y1="402.35" x2="172.59" y2="320.59" gradientUnits="userSpaceOnUse" name="Layer %{number}" zoom="1" data-layer-id="7337731287574"><stop offset="0" stop-color="#dde1ea"/><stop offset="1" stop-color="#85a7c5"/></linearGradient><linearGradient id="linear-gradient-5" x1="243.8" y1="265.25" x2="8.92" y2="105.64" xlink:href="#linear-gradient-2" name="Layer %{number}" zoom="1" data-layer-id="8135538287574"/><linearGradient id="linear-gradient-6" x1="246.53" y1="221.6" x2="62.26" y2="95.72" gradientUnits="userSpaceOnUse" name="Layer %{number}" zoom="1" data-layer-id="0146754587574"><stop offset="0" stop-color="#dde1ea"/><stop offset="0.48" stop-color="#85a7c5"/><stop offset="1" stop-color="#71d0f6"/></linearGradient><path class="cls-1" d="M305.56,212.23c7.86,90.94-48.31,161.6-123.66,165.21C107.8,381,33,318.69,12,231.43c-23.08-96,26.26-187.21,113.92-194.79C215.34,28.91,296.88,111.86,305.56,212.23Z" name="Layer %{number}" zoom="1" data-layer-id="3481598687574" style="" fill="#27272C" fill-opacity="0"/><path class="cls-2" d="M139.89,124.71,232,265.29s-26.17-2.83-35.36,14.82C172,327.48,195,352.46,156.11,333.64s-97-52.07-97-52.07,63.26-38,23.68-69.91C50.21,185.35,123.67,118.87,139.89,124.71Z" name="Layer %{number}" zoom="1" data-layer-id="4848629587574" style="" fill="url(&quot;#linear-gradient&quot;)"/><path class="cls-3" d="M204.61,371.43s-48-85.64-81.75-94.08-81.76,1.3-79.16,22.06S190.26,416.09,200,405.76,211.1,378.57,204.61,371.43Z" name="Layer %{number}" zoom="1" data-layer-id="7853850887574" style="" fill="url(&quot;#linear-gradient-2&quot;)"/><path class="cls-4" d="M245.94,221.66s6.16-1.95,4.21-6.82-7-10.7-6-12.81c0,0,17.36-6.17,15.57-11.52s-24.33-33.58-24.33-33.58-3.24-4.54.16-9.08,1.63-37.79-37-64.4-97-10.7-118.09,20.12S41.23,182.73,96.38,236.9c0,0,14.92-15.24,11-49s19.14-32.77,29.2-22.71,14.27,25,18.16,38.93,22.39,49.63,57.75,58.72,36.77-7.79,35.9-12.33-8.65-14.92-2.16-19.9C246.26,230.63,252.53,228.69,245.94,221.66Z" name="Layer %{number}" zoom="1" data-layer-id="2882954387574" style="" fill="#EAE8E4"/><path class="cls-5" d="M187.9,286.11S158.05,311.74,177,341.59c31.24,49.12,24.33,48.34,24.33,48.34s-32.93-43.86-51.73-63.71-40-35.78-75.16-37.58c-24-1.23-40.5,11.08-27.53,15.31s66.18,13,116.33,74.41c55.58,68.11,55.94,15.78,52.69,5.08-.63-2.09-26.6-48-26.6-48S175.46,300.67,187.9,286.11Z" name="Layer %{number}" zoom="1" data-layer-id="2517382587574" style="" fill="url(&quot;#linear-gradient-3&quot;)"/><path class="cls-6" d="M203.92,271.45s-32.28,31.64-3.73,71.22,18.82,73.31-6.49,74-88.89-1.29-152.47-106.41c0,0-8.76-12.32,6.81-11.35s108.19,38.77,152,106.89l4.27,5.68s13.84-5.4,10.17-25.95-30.82-45.1-33.42-59.05c-1.74-9.36-4.21-21.64,3.32-34.94C188.06,285,194.16,278.23,203.92,271.45Z" name="Layer %{number}" zoom="1" data-layer-id="0864546287574" style="" fill="url(&quot;#linear-gradient-4&quot;)"/><path class="cls-7" d="M182.71,217.33c-25.14-45.74-2.43-90-65.37-100.57-21.52-3.6-37.65,1.22-49.68,9.75C54.94,156.1,53.45,194.73,96.38,236.9c0,0,14.92-15.24,11-49s19.14-32.77,29.2-22.71,14.27,25,18.16,38.93,22.39,49.63,57.75,58.72c15.74,4,24.74,2.94,29.82.08C228.81,262,203.28,254.76,182.71,217.33Z" name="Layer %{number}" zoom="1" data-layer-id="6397722687574" style="" fill="url(&quot;#linear-gradient-5&quot;)"/><path class="cls-8" d="M248.42,250.53c-.82-4.34-7.94-14-2.95-19.18-43.72-3.44-52.33-48.58-55-67.06-2.92-20.44-12.17-57.91-56-64.72a111.43,111.43,0,0,0-54.77,5.06,134.69,134.69,0,0,0-12.1,21.88c12-8.53,28.16-13.35,49.68-9.75,62.94,10.55,40.23,54.83,65.37,100.57,20.57,37.43,46.1,44.66,59.63,45.61A11.88,11.88,0,0,0,248.42,250.53Z" name="Layer %{number}" zoom="1" data-layer-id="5806653987574" style="" fill="url(&quot;#linear-gradient-6&quot;)"/></svg></g><g transform="rotate(0 379.41999999999996 300.57)"><svg xmlns="http://www.w3.org/2000/svg" viewBoxSize="575" data-root-id="7641469587574" y="287.5" viewBox="2.069999933242798 7.25 360.8399963378906 26.139999389648438" x="199" height="26.139999389648438" width="360.8399963378906" fontUrl="https://fonts.gstatic.com/s/jost/v20/92zPtBhPNqw79Ij1E865zBUv7myjJQVGPokMmuHL.ttf" zoom="1" editorType="buyer" data-layer-role="slogan" style="position: absolute; top: 287.5px; width: 360.84px; height: 26.14px; left: 199px; transform: rotate(0deg);"><g data-horizontal-grow="left" zoom="1" root="[object Object]" style="fill-opacity: 1;" fill="#FFFFFF"><path d="M4.27 9.58L2.07 9.58L2.07 27.70L11.39 27.70L11.39 25.63L4.27 25.63L4.27 9.58ZM27.00 27.96L27.00 27.96Q28.91 27.96 30.32 27.19Q31.74 26.43 32.67 24.93L32.67 24.93L30.98 23.87Q30.34 24.95 29.41 25.48Q28.47 26.01 27.26 26.01L27.26 26.01Q26.04 26.01 25.19 25.50Q24.33 24.98 23.89 24.00Q23.45 23.01 23.45 21.61L23.45 21.61Q23.48 20.24 23.93 19.30Q24.38 18.35 25.23 17.85Q26.07 17.34 27.26 17.34L27.26 17.34Q28.27 17.34 29.02 17.78Q29.77 18.22 30.20 19.00Q30.62 19.78 30.62 20.84L30.62 20.84Q30.62 21.02 30.54 21.29Q30.47 21.56 30.39 21.69L30.39 21.69L31.22 20.50L22.68 20.50L22.68 22.26L32.85 22.26Q32.85 22.21 32.86 22.02Q32.87 21.82 32.87 21.64L32.87 21.64Q32.87 19.75 32.20 18.38Q31.53 17.01 30.27 16.27Q29.02 15.53 27.26 15.53L27.26 15.53Q25.50 15.53 24.16 16.31Q22.83 17.08 22.09 18.48Q21.36 19.88 21.36 21.74L21.36 21.74Q21.36 23.58 22.07 24.98Q22.78 26.38 24.06 27.17Q25.34 27.96 27.00 27.96ZM48.66 15.79L42.71 15.79L42.71 17.73L48.66 17.73L48.66 15.79ZM46.72 11.65L44.65 11.65L44.65 27.70L46.72 27.70L46.72 11.65ZM78.74 20.19L77.97 22.26L87.54 22.26L86.77 20.19L78.74 20.19ZM79.65 20.86L82.70 13.67L85.81 20.97L86.02 21.48L88.66 27.70L91.12 27.70L82.70 8.67L74.29 27.70L76.75 27.70L79.44 21.33L79.65 20.86ZM104.32 9.58L102.12 9.58L102.12 27.70L104.32 27.70L104.32 9.58ZM134.22 15.79L131.89 15.79L137.06 28.60L140.45 19.93L144.05 28.60L149.23 15.79L146.90 15.79L143.90 23.58L140.43 14.88L137.19 23.53L134.22 15.79ZM158.68 21.74L158.68 21.74Q158.68 23.53 159.49 24.94Q160.31 26.35 161.71 27.15Q163.10 27.96 164.84 27.96L164.84 27.96Q166.60 27.96 167.98 27.15Q169.37 26.35 170.18 24.94Q171.00 23.53 171.00 21.74L171.00 21.74Q171.00 19.93 170.18 18.53Q169.37 17.14 167.98 16.33Q166.60 15.53 164.84 15.53L164.84 15.53Q163.10 15.53 161.71 16.33Q160.31 17.14 159.49 18.53Q158.68 19.93 158.68 21.74ZM160.77 21.74L160.77 21.74Q160.77 20.50 161.30 19.53Q161.84 18.56 162.75 18.02Q163.67 17.47 164.84 17.47L164.84 17.47Q166.00 17.47 166.92 18.02Q167.84 18.56 168.37 19.53Q168.90 20.50 168.90 21.74L168.90 21.74Q168.90 22.99 168.37 23.94Q167.84 24.90 166.92 25.46Q166.00 26.01 164.84 26.01L164.84 26.01Q163.67 26.01 162.75 25.46Q161.84 24.90 161.30 23.94Q160.77 22.99 160.77 21.74ZM184.72 27.70L184.72 15.79L182.65 15.79L182.65 27.70L184.72 27.70ZM188.32 18.07L188.32 18.07L189.45 16.36Q188.99 15.87 188.43 15.70Q187.88 15.53 187.23 15.53L187.23 15.53Q186.40 15.53 185.60 16.18Q184.80 16.83 184.29 17.93Q183.79 19.03 183.79 20.45L183.79 20.45L184.72 20.45Q184.72 19.60 184.89 18.92Q185.05 18.25 185.49 17.86Q185.93 17.47 186.71 17.47L186.71 17.47Q187.23 17.47 187.57 17.61Q187.90 17.76 188.32 18.07ZM202.27 7.51L200.20 7.51L200.20 27.70L202.27 27.70L202.27 7.51ZM209.26 15.79L206.67 15.79L201.49 20.71L207.19 27.70L209.77 27.70L204.08 20.71L209.26 15.79ZM242.13 15.79L236.18 15.79L236.18 17.73L242.13 17.73L242.13 15.79ZM241.92 9.99L241.92 9.99L243.06 8.28Q242.88 8.02 242.56 7.79Q242.24 7.56 241.79 7.40Q241.35 7.25 240.79 7.25L240.79 7.25Q239.70 7.25 238.93 7.70Q238.17 8.15 237.76 9.06Q237.34 9.97 237.34 11.39L237.34 11.39L237.34 27.70L239.41 27.70L239.41 11.65Q239.41 10.79 239.57 10.28Q239.72 9.76 240.00 9.54Q240.27 9.32 240.66 9.32L240.66 9.32Q240.97 9.32 241.32 9.44Q241.67 9.55 241.92 9.99ZM252.25 21.74L252.25 21.74Q252.25 23.53 253.07 24.94Q253.88 26.35 255.28 27.15Q256.68 27.96 258.41 27.96L258.41 27.96Q260.17 27.96 261.56 27.15Q262.94 26.35 263.76 24.94Q264.57 23.53 264.57 21.74L264.57 21.74Q264.57 19.93 263.76 18.53Q262.94 17.14 261.56 16.33Q260.17 15.53 258.41 15.53L258.41 15.53Q256.68 15.53 255.28 16.33Q253.88 17.14 253.07 18.53Q252.25 19.93 252.25 21.74ZM254.35 21.74L254.35 21.74Q254.35 20.50 254.88 19.53Q255.41 18.56 256.33 18.02Q257.25 17.47 258.41 17.47L258.41 17.47Q259.58 17.47 260.50 18.02Q261.42 18.56 261.95 19.53Q262.48 20.50 262.48 21.74L262.48 21.74Q262.48 22.99 261.95 23.94Q261.42 24.90 260.50 25.46Q259.58 26.01 258.41 26.01L258.41 26.01Q257.25 26.01 256.33 25.46Q255.41 24.90 254.88 23.94Q254.35 22.99 254.35 21.74ZM278.29 27.70L278.29 15.79L276.22 15.79L276.22 27.70L278.29 27.70ZM281.89 18.07L281.89 18.07L283.03 16.36Q282.56 15.87 282.01 15.70Q281.45 15.53 280.80 15.53L280.80 15.53Q279.98 15.53 279.17 16.18Q278.37 16.83 277.87 17.93Q277.36 19.03 277.36 20.45L277.36 20.45L278.29 20.45Q278.29 19.60 278.46 18.92Q278.63 18.25 279.07 17.86Q279.51 17.47 280.29 17.47L280.29 17.47Q280.80 17.47 281.14 17.61Q281.48 17.76 281.89 18.07ZM312.15 33.39L319.92 15.79L317.59 15.79L313.91 25.01L314.77 25.11L310.99 15.79L308.53 15.79L313.08 26.01L309.82 33.39L312.15 33.39ZM329.24 21.74L329.24 21.74Q329.24 23.53 330.05 24.94Q330.87 26.35 332.26 27.15Q333.66 27.96 335.40 27.96L335.40 27.96Q337.16 27.96 338.54 27.15Q339.93 26.35 340.74 24.94Q341.56 23.53 341.56 21.74L341.56 21.74Q341.56 19.93 340.74 18.53Q339.93 17.14 338.54 16.33Q337.16 15.53 335.40 15.53L335.40 15.53Q333.66 15.53 332.26 16.33Q330.87 17.14 330.05 18.53Q329.24 19.93 329.24 21.74ZM331.33 21.74L331.33 21.74Q331.33 20.50 331.86 19.53Q332.39 18.56 333.31 18.02Q334.23 17.47 335.40 17.47L335.40 17.47Q336.56 17.47 337.48 18.02Q338.40 18.56 338.93 19.53Q339.46 20.50 339.46 21.74L339.46 21.74Q339.46 22.99 338.93 23.94Q338.40 24.90 337.48 25.46Q336.56 26.01 335.40 26.01L335.40 26.01Q334.23 26.01 333.31 25.46Q332.39 24.90 331.86 23.94Q331.33 22.99 331.33 21.74ZM355.28 23.04L355.28 23.04L355.28 15.79L353.21 15.79L353.21 23.30Q353.21 25.42 354.32 26.69Q355.43 27.96 357.30 27.96L357.30 27.96Q358.49 27.96 359.37 27.43Q360.25 26.89 360.84 25.83L360.84 25.83L360.84 27.70L362.91 27.70L362.91 15.79L360.84 15.79L360.84 23.04Q360.84 23.92 360.47 24.59Q360.09 25.26 359.41 25.64Q358.72 26.01 357.81 26.01L357.81 26.01Q356.57 26.01 355.92 25.24Q355.28 24.46 355.28 23.04Z" transform="translate(0, 0)" fill="#FFFFFF"/></g></svg></g><g transform="rotate(0 380.83299999999997 260.66975)"><svg xmlns="http://www.w3.org/2000/svg" viewBoxSize="575" data-root-id="2827767587574" y="246.255" viewBox="-188.20814514160156 -28.827138900756836 363.6658935546875 28.829452514648438" x="199" height="28.829452514648438" width="363.6658935546875" fontUrl="https://fonts.gstatic.com/s/staatliches/v15/HI_OiY8KO6hCsQSoAPmtMbectJG9O9PS.ttf" zoom="1" editorType="buyer" data-layer-role="brandName" style="position: absolute; top: 246.255px; width: 363.666px; height: 28.8295px; left: 199px; transform: rotate(0deg);"><g data-horizontal-grow="left" zoom="1" root="[object Object]" style="fill-opacity: 1;" fill="#FFFFFF"><path d="M13.19 0L1.58 0Q1.44 0 1.44-0.18L1.44-0.18L1.47-24.88Q1.47-25.02 1.62-25.02L1.62-25.02L13.16-25.02Q13.30-25.02 13.30-24.84L13.30-24.84L13.30-20.82Q13.30-20.67 13.16-20.67L13.16-20.67L5.79-20.67L5.79-15.06L13.16-15.06Q13.30-15.06 13.30-14.92L13.30-14.92L13.34-10.86Q13.34-10.71 13.19-10.71L13.19-10.71L5.79-10.71L5.79-4.42L13.19-4.42Q13.34-4.42 13.34-4.24L13.34-4.24L13.34-0.14Q13.34 0 13.19 0L13.19 0Z" transform="translate(-14.380963542901906 0), rotate(2.3082822085889565 7.388220020165855 -4351.7483945141885)" fill="#FFFFFF"/><path d="M13.88 0L0.47 0Q0.29 0 0.29-0.18L0.29-0.18L0.32-4.10L9.13-20.92L0.79-20.92Q0.65-20.92 0.65-21.07L0.65-21.07L0.65-24.84Q0.65-25.02 0.79-25.02L0.79-25.02L13.81-25.02Q13.99-25.02 13.99-24.84L13.99-24.84L13.99-20.96L5.21-4.21L13.88-4.21Q14.02-4.21 14.02-4.03L14.02-4.03L14.06-0.18Q14.06 0 13.88 0L13.88 0Z" transform="translate(-14.273106316330143 0), rotate(1.9262845092024534 7.172505567022326 -4351.7483945141885)" fill="#FFFFFF"/><path d="" transform="translate(-9.49143593831526 0), rotate(1.6094708588957052 0 -4351.7483945141885)" fill="#FFFFFF"/><path d="M8.66-10.39L1.73-10.39Q1.55-10.39 1.55-10.53L1.55-10.53L1.55-14.45Q1.55-14.60 1.73-14.60L1.73-14.60L8.66-14.60Q8.84-14.60 8.84-14.45L8.84-14.45L8.84-10.53Q8.84-10.39 8.66-10.39L8.66-10.39Z" transform="translate(-12.277747624752504 0), rotate(1.3192580521472388 5.195123079873314 -4351.7483945141885)" fill="#FFFFFF"/><path d="" transform="translate(-9.49143593831526 0), rotate(1.0290452453987724 0 -4351.7483945141885)" fill="#FFFFFF"/><path d="M5.68 0L1.62 0Q1.44 0 1.44-0.18L1.44-0.18L1.47-24.88Q1.47-25.02 1.62-25.02L1.62-25.02L5.64-25.02Q5.79-25.02 5.79-24.88L5.79-24.88L5.82-0.18Q5.82 0 5.68 0L5.68 0Z" transform="translate(-10.605960612890156 0), rotate(0.7611196319018401 3.631193294582731 -4351.7483945141885)" fill="#FFFFFF"/><path d="M5.36 0L1.76 0Q1.47 0 1.47-0.25L1.47-0.25L1.44-24.74Q1.44-25.02 1.73-25.02L1.73-25.02L4.96-25.02L11.04-10.86L10.86-24.74Q10.86-25.02 11.18-25.02L11.18-25.02L14.74-25.02Q14.96-25.02 14.96-24.74L14.96-24.74L14.99-0.22Q14.99 0 14.81 0L14.81 0L11.65 0L5.43-13.23L5.68-0.29Q5.68 0 5.36 0L5.36 0Z" transform="translate(-15.171916537761511 0), rotate(0.4174654907975457 8.215125423882714 -4351.7483945141885)" fill="#FFFFFF"/><path d="M9.82 0L5.46 0Q5.32 0 5.29-0.18L5.29-0.18L0.32-24.88Q0.29-25.02 0.47-25.02L0.47-25.02L4.53-25.02Q4.67-25.02 4.71-24.88L4.71-24.88L7.66-8.41L10.53-24.88Q10.57-25.02 10.71-25.02L10.71-25.02L14.74-25.02Q14.92-25.02 14.88-24.88L14.88-24.88L9.99-0.18Q9.96 0 9.82 0L9.82 0Z" transform="translate(-14.614654200474064 0), rotate(0.02037001533742311 7.604121714009884 -4351.7483945141885)" fill="#FFFFFF"/><path d="M13.19 0L1.58 0Q1.44 0 1.44-0.18L1.44-0.18L1.47-24.88Q1.47-25.02 1.62-25.02L1.62-25.02L13.16-25.02Q13.30-25.02 13.30-24.84L13.30-24.84L13.30-20.82Q13.30-20.67 13.16-20.67L13.16-20.67L5.79-20.67L5.79-15.06L13.16-15.06Q13.30-15.06 13.30-14.92L13.30-14.92L13.34-10.86Q13.34-10.71 13.19-10.71L13.19-10.71L5.79-10.71L5.79-4.42L13.19-4.42Q13.34-4.42 13.34-4.24L13.34-4.24L13.34-0.14Q13.34 0 13.19 0L13.19 0Z" transform="translate(-14.380963542901906 0), rotate(-0.36618098159509227 7.388220020165855 -4351.7483945141885)" fill="#FFFFFF"/><path d="M5.36 0L1.76 0Q1.47 0 1.47-0.25L1.47-0.25L1.44-24.74Q1.44-25.02 1.73-25.02L1.73-25.02L4.96-25.02L11.04-10.86L10.86-24.74Q10.86-25.02 11.18-25.02L11.18-25.02L14.74-25.02Q14.96-25.02 14.96-24.74L14.96-24.74L14.99-0.22Q14.99 0 14.81 0L14.81 0L11.65 0L5.43-13.23L5.68-0.29Q5.68 0 5.36 0L5.36 0Z" transform="translate(-15.171916537761511 0), rotate(-0.7601610429447851 8.215125423882714 -4351.7483945141885)" fill="#FFFFFF"/><path d="M9.10 0L5.03 0Q4.89 0 4.89-0.18L4.89-0.18L4.89-20.67L0.22-20.67Q0.04-20.67 0.04-20.85L0.04-20.85L0.07-24.88Q0.07-25.02 0.22-25.02L0.22-25.02L13.88-25.02Q14.06-25.02 14.06-24.88L14.06-24.88L14.06-20.85Q14.06-20.67 13.91-20.67L13.91-20.67L9.20-20.67L9.24-0.18Q9.24 0 9.10 0L9.10 0Z" transform="translate(-13.625962956899556 0), rotate(-1.1440759202453985 7.046672136021933 -4351.7483945141885)" fill="#FFFFFF"/><path d="M8.09 0.36L8.09 0.36Q6.15 0.36 4.55-0.63Q2.95-1.62 1.98-3.25Q1.01-4.89 1.01-6.87L1.01-6.87L1.04-18.26Q1.04-20.24 2.00-21.86Q2.95-23.48 4.57-24.45Q6.18-25.42 8.09-25.42L8.09-25.42Q10.03-25.42 11.61-24.45Q13.19-23.48 14.15-21.86Q15.10-20.24 15.10-18.26L15.10-18.26L15.14-6.87Q15.14-4.89 14.18-3.25Q13.23-1.62 11.63-0.63Q10.03 0.36 8.09 0.36ZM8.09-3.99L8.09-3.99Q9.17-3.99 9.98-4.87Q10.79-5.75 10.79-6.87L10.79-6.87L10.75-18.26Q10.75-19.45 9.99-20.28Q9.24-21.10 8.09-21.10L8.09-21.10Q6.97-21.10 6.18-20.30Q5.39-19.49 5.39-18.26L5.39-18.26L5.39-6.87Q5.39-5.68 6.18-4.84Q6.97-3.99 8.09-3.99Z" transform="translate(-15.04608310676112 0), rotate(-1.5263132668711656 8.071315788453695 -4351.7483945141885)" fill="#FFFFFF"/><path d="M5.64 0L1.58 0Q1.44 0 1.44-0.18L1.44-0.18L1.51-24.88Q1.51-25.02 1.65-25.02L1.65-25.02L8.92-25.02Q10.86-25.02 12.49-24.07Q14.13-23.12 15.10-21.52Q16.07-19.92 16.07-17.90L16.07-17.90Q16.07-16.57 15.68-15.51Q15.28-14.45 14.74-13.72Q14.20-12.98 13.77-12.62L13.77-12.62Q15.71-10.46 15.71-7.55L15.71-7.55L15.75-0.18Q15.75 0 15.57 0L15.57 0L11.50 0Q11.36 0 11.36-0.11L11.36-0.11L11.36-7.55Q11.36-8.84 10.44-9.80Q9.53-10.75 8.20-10.75L8.20-10.75L5.82-10.75L5.79-0.18Q5.79 0 5.64 0L5.64 0ZM5.82-20.71L5.82-15.06L8.92-15.06Q10.03-15.06 10.89-15.89Q11.76-16.72 11.76-17.90L11.76-17.90Q11.76-19.05 10.91-19.88Q10.07-20.71 8.92-20.71L8.92-20.71L5.82-20.71Z" transform="translate(-14.956202084617983 0), rotate(-1.9262845092024539 8.754411556741536 -4351.7483945141885)" fill="#FFFFFF"/><path d="M8.92 0L4.78 0Q4.67 0 4.67-0.14L4.67-0.14L4.71-10.35L-0.11-24.88Q-0.14-25.02 0-25.02L0-25.02L3.99-25.02Q4.17-25.02 4.21-24.88L4.21-24.88L6.87-15.21L9.56-24.88Q9.60-25.02 9.74-25.02L9.74-25.02L13.77-25.02Q13.91-25.02 13.88-24.88L13.88-24.88L9.02-10.50L9.06-0.14Q9.06 0 8.92 0L8.92 0Z" transform="translate(-14.039415658757987 0), rotate(-2.312835506134969 6.885110998719646 -4351.7483945141885)" fill="#FFFFFF"/></g></svg></g></svg>