<svg xmlns:xlink="http://www.w3.org/1999/xlink" xmlns="http://www.w3.org/2000/svg" viewBox="0 0 575 575" class="roots-wrapper" width="575"  height="575" ><g transform="rotate(0 0 0)"><svg viewBoxSize="575" data-root-id="5291196682235" xmlns="http://www.w3.org/2000/svg" xmlns:xlink="http://www.w3.org/1999/xlink" id="Layer_1" dataName="Layer 1" viewBox="6.336987018585205 36.13996887207031 299.9573669433594 380.603759765625" height="534.1201000767462" width="420.945068359375" y="20.4399" x="77.0275" preserveAspectRatio="xMinYMin" zoom="1" editorType="buyer" data-layer-role="icon" style="position: absolute; height: 534.12px; width: 420.945px; top: 20.4399px; left: 77.0275px;"><defs><linearGradient id="linear-gradient" x1="67.79" y1="184.06" x2="318.1" y2="334.7" gradientUnits="userSpaceOnUse" name="Layer %{number}" zoom="1" data-layer-id="6382896582235"><stop offset="0" stop-color="#27384a"></stop><stop offset="0.48" stop-color="#0b0e15"></stop><stop offset="1" stop-color="#71d0f6"></stop></linearGradient><linearGradient id="linear-gradient-2" x1="62.15" y1="268.48" x2="177.64" y2="373.59" gradientUnits="userSpaceOnUse" name="Layer %{number}" zoom="1" data-layer-id="6326440982235"><stop offset="0" stop-color="#27384a"></stop><stop offset="0.48" stop-color="#307cc0"></stop><stop offset="1" stop-color="#71d0f6"></stop></linearGradient><linearGradient id="linear-gradient-3" x1="61.29" y1="272.28" x2="233.88" y2="372.2" xlink:href="#linear-gradient" name="Layer %{number}" zoom="1" data-layer-id="6875476182235"></linearGradient><linearGradient id="linear-gradient-4" x1="60.67" y1="402.35" x2="172.59" y2="320.59" gradientUnits="userSpaceOnUse" name="Layer %{number}" zoom="1" data-layer-id="8021674682235"><stop offset="0" stop-color="#dde1ea"></stop><stop offset="1" stop-color="#85a7c5"></stop></linearGradient><linearGradient id="linear-gradient-5" x1="243.8" y1="265.25" x2="8.92" y2="105.64" xlink:href="#linear-gradient-2" name="Layer %{number}" zoom="1" data-layer-id="3076895582235"></linearGradient><linearGradient id="linear-gradient-6" x1="246.53" y1="221.6" x2="62.26" y2="95.72" gradientUnits="userSpaceOnUse" name="Layer %{number}" zoom="1" data-layer-id="5164872782235"><stop offset="0" stop-color="#dde1ea"></stop><stop offset="0.48" stop-color="#85a7c5"></stop><stop offset="1" stop-color="#71d0f6"></stop></linearGradient></defs><linearGradient id="linear-gradient" x1="67.79" y1="184.06" x2="318.1" y2="334.7" gradientUnits="userSpaceOnUse" name="Layer %{number}" zoom="1" data-layer-id="6382896582235"><stop offset="0" stop-color="#27384a"></stop><stop offset="0.48" stop-color="#0b0e15"></stop><stop offset="1" stop-color="#71d0f6"></stop></linearGradient><linearGradient id="linear-gradient-2" x1="62.15" y1="268.48" x2="177.64" y2="373.59" gradientUnits="userSpaceOnUse" name="Layer %{number}" zoom="1" data-layer-id="6326440982235"><stop offset="0" stop-color="#27384a"></stop><stop offset="0.48" stop-color="#307cc0"></stop><stop offset="1" stop-color="#71d0f6"></stop></linearGradient><linearGradient id="linear-gradient-3" x1="61.29" y1="272.28" x2="233.88" y2="372.2" xlink:href="#linear-gradient" name="Layer %{number}" zoom="1" data-layer-id="6875476182235"></linearGradient><linearGradient id="linear-gradient-4" x1="60.67" y1="402.35" x2="172.59" y2="320.59" gradientUnits="userSpaceOnUse" name="Layer %{number}" zoom="1" data-layer-id="8021674682235"><stop offset="0" stop-color="#dde1ea"></stop><stop offset="1" stop-color="#85a7c5"></stop></linearGradient><linearGradient id="linear-gradient-5" x1="243.8" y1="265.25" x2="8.92" y2="105.64" xlink:href="#linear-gradient-2" name="Layer %{number}" zoom="1" data-layer-id="3076895582235"></linearGradient><linearGradient id="linear-gradient-6" x1="246.53" y1="221.6" x2="62.26" y2="95.72" gradientUnits="userSpaceOnUse" name="Layer %{number}" zoom="1" data-layer-id="5164872782235"><stop offset="0" stop-color="#dde1ea"></stop><stop offset="0.48" stop-color="#85a7c5"></stop><stop offset="1" stop-color="#71d0f6"></stop></linearGradient><path class="cls-1" d="M305.56,212.23c7.86,90.94-48.31,161.6-123.66,165.21C107.8,381,33,318.69,12,231.43c-23.08-96,26.26-187.21,113.92-194.79C215.34,28.91,296.88,111.86,305.56,212.23Z" name="Layer %{number}" zoom="1" data-layer-id="3800968482235" style="" fill="#1860A4" fill-opacity="0.95"></path><path class="cls-2" d="M139.89,124.71,232,265.29s-26.17-2.83-35.36,14.82C172,327.48,195,352.46,156.11,333.64s-97-52.07-97-52.07,63.26-38,23.68-69.91C50.21,185.35,123.67,118.87,139.89,124.71Z" name="Layer %{number}" zoom="1" data-layer-id="8693868682235" style="" fill="url(&quot;#linear-gradient&quot;)"></path><path class="cls-3" d="M204.61,371.43s-48-85.64-81.75-94.08-81.76,1.3-79.16,22.06S190.26,416.09,200,405.76,211.1,378.57,204.61,371.43Z" name="Layer %{number}" zoom="1" data-layer-id="6921368582235" style="" fill="url(&quot;#linear-gradient-2&quot;)"></path><path class="cls-4" d="M245.94,221.66s6.16-1.95,4.21-6.82-7-10.7-6-12.81c0,0,17.36-6.17,15.57-11.52s-24.33-33.58-24.33-33.58-3.24-4.54.16-9.08,1.63-37.79-37-64.4-97-10.7-118.09,20.12S41.23,182.73,96.38,236.9c0,0,14.92-15.24,11-49s19.14-32.77,29.2-22.71,14.27,25,18.16,38.93,22.39,49.63,57.75,58.72,36.77-7.79,35.9-12.33-8.65-14.92-2.16-19.9C246.26,230.63,252.53,228.69,245.94,221.66Z" name="Layer %{number}" zoom="1" data-layer-id="2116902582235" style="" fill="#EAE8E4"></path><path class="cls-5" d="M187.9,286.11S158.05,311.74,177,341.59c31.24,49.12,24.33,48.34,24.33,48.34s-32.93-43.86-51.73-63.71-40-35.78-75.16-37.58c-24-1.23-40.5,11.08-27.53,15.31s66.18,13,116.33,74.41c55.58,68.11,55.94,15.78,52.69,5.08-.63-2.09-26.6-48-26.6-48S175.46,300.67,187.9,286.11Z" name="Layer %{number}" zoom="1" data-layer-id="7090096882235" style="" fill="url(&quot;#linear-gradient-3&quot;)"></path><path class="cls-6" d="M203.92,271.45s-32.28,31.64-3.73,71.22,18.82,73.31-6.49,74-88.89-1.29-152.47-106.41c0,0-8.76-12.32,6.81-11.35s108.19,38.77,152,106.89l4.27,5.68s13.84-5.4,10.17-25.95-30.82-45.1-33.42-59.05c-1.74-9.36-4.21-21.64,3.32-34.94C188.06,285,194.16,278.23,203.92,271.45Z" name="Layer %{number}" zoom="1" data-layer-id="5902746582235" style="" fill="url(&quot;#linear-gradient-4&quot;)"></path><path class="cls-7" d="M182.71,217.33c-25.14-45.74-2.43-90-65.37-100.57-21.52-3.6-37.65,1.22-49.68,9.75C54.94,156.1,53.45,194.73,96.38,236.9c0,0,14.92-15.24,11-49s19.14-32.77,29.2-22.71,14.27,25,18.16,38.93,22.39,49.63,57.75,58.72c15.74,4,24.74,2.94,29.82.08C228.81,262,203.28,254.76,182.71,217.33Z" name="Layer %{number}" zoom="1" data-layer-id="6974293282235" style="" fill="url(&quot;#linear-gradient-5&quot;)"></path><path class="cls-8" d="M248.42,250.53c-.82-4.34-7.94-14-2.95-19.18-43.72-3.44-52.33-48.58-55-67.06-2.92-20.44-12.17-57.91-56-64.72a111.43,111.43,0,0,0-54.77,5.06,134.69,134.69,0,0,0-12.1,21.88c12-8.53,28.16-13.35,49.68-9.75,62.94,10.55,40.23,54.83,65.37,100.57,20.57,37.43,46.1,44.66,59.63,45.61A11.88,11.88,0,0,0,248.42,250.53Z" name="Layer %{number}" zoom="1" data-layer-id="9010807182235" style="" fill="url(&quot;#linear-gradient-6&quot;)"></path></svg></g><g transform="rotate(0 0 0)"><svg viewBoxSize="575" data-root-id="3262347282235" xmlns="http://www.w3.org/2000/svg" y="392.4949951171875" viewBox="0 0 0 0" x="287.5000149536133"   fontUrl="https://fonts.gstatic.com/s/jost/v20/92zPtBhPNqw79Ij1E865zBUv7myjJQVGPokMmuHL.ttf" zoom="1" editorType="buyer" data-layer-role="slogan" style="position: absolute; top: 392.495px; width: 0px; height: 0px; left: 287.5px;"><g data-horizontal-grow="center" zoom="1" root="[object Object]" style="fill-opacity: 1;" fill="#27272C"><path d="" transform="translate(0, 0)" fill="#27272C"></path></g></svg></g><g transform="rotate(0 0 0)"><svg viewBoxSize="575" data-root-id="7681362382235" xmlns="http://www.w3.org/2000/svg" y="348.4949951171875" viewBox="0 0 0 0" x="287.5000131225586"   fontUrl="https://fonts.gstatic.com/s/antonio/v22/gNMbW3NwSYq_9WD34ngK5F8vR8T0PVxD8RtIY2DwSXlM.ttf" zoom="1" editorType="buyer" data-layer-role="brandName" style="position: absolute; top: 348.495px; width: 0px; height: 0px; left: 287.5px;"><g data-horizontal-grow="center" zoom="1" root="[object Object]" style="fill-opacity: 1;" fill="#27272C"><path d="" transform="translate(0, 0)" fill="#27272C"></path></g></svg></g></svg>