<svg xmlns:xlink="http://www.w3.org/1999/xlink" xmlns="http://www.w3.org/2000/svg" viewBox="0 0 575 575" class="roots-wrapper" width="575"  height="575" ><g transform="rotate(0 114.67689999999999 287.5)"><svg viewBoxSize="575" data-root-id="4039736287574" xmlns="http://www.w3.org/2000/svg" xmlns:xlink="http://www.w3.org/1999/xlink" id="Layer_1" dataName="Layer 1" viewBox="6.336987018585205 36.13996887207031 299.9573669433594 380.603759765625" height="144.95613707632737" width="114.2412109375" y="215.022" x="57.5564" preserveAspectRatio="xMinYMin" zoom="1" editorType="buyer" data-layer-role="icon" style="position: absolute; height: 144.956px; width: 114.241px; top: 215.022px; left: 57.5564px; transform: rotate(0deg);"><defs><linearGradient id="linear-gradient" x1="67.79" y1="184.06" x2="318.1" y2="334.7" gradientUnits="userSpaceOnUse" name="Layer %{number}" zoom="1" data-layer-id="7925575987574"><stop offset="0" stop-color="#27384a"></stop><stop offset="0.48" stop-color="#0b0e15"></stop><stop offset="1" stop-color="#71d0f6"></stop></linearGradient><linearGradient id="linear-gradient-2" x1="62.15" y1="268.48" x2="177.64" y2="373.59" gradientUnits="userSpaceOnUse" name="Layer %{number}" zoom="1" data-layer-id="4674053487574"><stop offset="0" stop-color="#27384a"></stop><stop offset="0.48" stop-color="#307cc0"></stop><stop offset="1" stop-color="#71d0f6"></stop></linearGradient><linearGradient id="linear-gradient-3" x1="61.29" y1="272.28" x2="233.88" y2="372.2" xlink:href="#linear-gradient" name="Layer %{number}" zoom="1" data-layer-id="1631674787574"></linearGradient><linearGradient id="linear-gradient-4" x1="60.67" y1="402.35" x2="172.59" y2="320.59" gradientUnits="userSpaceOnUse" name="Layer %{number}" zoom="1" data-layer-id="7337731287574"><stop offset="0" stop-color="#dde1ea"></stop><stop offset="1" stop-color="#85a7c5"></stop></linearGradient><linearGradient id="linear-gradient-5" x1="243.8" y1="265.25" x2="8.92" y2="105.64" xlink:href="#linear-gradient-2" name="Layer %{number}" zoom="1" data-layer-id="8135538287574"></linearGradient><linearGradient id="linear-gradient-6" x1="246.53" y1="221.6" x2="62.26" y2="95.72" gradientUnits="userSpaceOnUse" name="Layer %{number}" zoom="1" data-layer-id="0146754587574"><stop offset="0" stop-color="#dde1ea"></stop><stop offset="0.48" stop-color="#85a7c5"></stop><stop offset="1" stop-color="#71d0f6"></stop></linearGradient></defs><linearGradient id="linear-gradient" x1="67.79" y1="184.06" x2="318.1" y2="334.7" gradientUnits="userSpaceOnUse" name="Layer %{number}" zoom="1" data-layer-id="7925575987574"><stop offset="0" stop-color="#27384a"></stop><stop offset="0.48" stop-color="#0b0e15"></stop><stop offset="1" stop-color="#71d0f6"></stop></linearGradient><linearGradient id="linear-gradient-2" x1="62.15" y1="268.48" x2="177.64" y2="373.59" gradientUnits="userSpaceOnUse" name="Layer %{number}" zoom="1" data-layer-id="4674053487574"><stop offset="0" stop-color="#27384a"></stop><stop offset="0.48" stop-color="#307cc0"></stop><stop offset="1" stop-color="#71d0f6"></stop></linearGradient><linearGradient id="linear-gradient-3" x1="61.29" y1="272.28" x2="233.88" y2="372.2" xlink:href="#linear-gradient" name="Layer %{number}" zoom="1" data-layer-id="1631674787574"></linearGradient><linearGradient id="linear-gradient-4" x1="60.67" y1="402.35" x2="172.59" y2="320.59" gradientUnits="userSpaceOnUse" name="Layer %{number}" zoom="1" data-layer-id="7337731287574"><stop offset="0" stop-color="#dde1ea"></stop><stop offset="1" stop-color="#85a7c5"></stop></linearGradient><linearGradient id="linear-gradient-5" x1="243.8" y1="265.25" x2="8.92" y2="105.64" xlink:href="#linear-gradient-2" name="Layer %{number}" zoom="1" data-layer-id="8135538287574"></linearGradient><linearGradient id="linear-gradient-6" x1="246.53" y1="221.6" x2="62.26" y2="95.72" gradientUnits="userSpaceOnUse" name="Layer %{number}" zoom="1" data-layer-id="0146754587574"><stop offset="0" stop-color="#dde1ea"></stop><stop offset="0.48" stop-color="#85a7c5"></stop><stop offset="1" stop-color="#71d0f6"></stop></linearGradient><path class="cls-1" d="M305.56,212.23c7.86,90.94-48.31,161.6-123.66,165.21C107.8,381,33,318.69,12,231.43c-23.08-96,26.26-187.21,113.92-194.79C215.34,28.91,296.88,111.86,305.56,212.23Z" name="Layer %{number}" zoom="1" data-layer-id="3481598687574" style="" fill="#27272C" fill-opacity="0"></path><path class="cls-2" d="M139.89,124.71,232,265.29s-26.17-2.83-35.36,14.82C172,327.48,195,352.46,156.11,333.64s-97-52.07-97-52.07,63.26-38,23.68-69.91C50.21,185.35,123.67,118.87,139.89,124.71Z" name="Layer %{number}" zoom="1" data-layer-id="4848629587574" style="" fill="url(&quot;#linear-gradient&quot;)"></path><path class="cls-3" d="M204.61,371.43s-48-85.64-81.75-94.08-81.76,1.3-79.16,22.06S190.26,416.09,200,405.76,211.1,378.57,204.61,371.43Z" name="Layer %{number}" zoom="1" data-layer-id="7853850887574" style="" fill="url(&quot;#linear-gradient-2&quot;)"></path><path class="cls-4" d="M245.94,221.66s6.16-1.95,4.21-6.82-7-10.7-6-12.81c0,0,17.36-6.17,15.57-11.52s-24.33-33.58-24.33-33.58-3.24-4.54.16-9.08,1.63-37.79-37-64.4-97-10.7-118.09,20.12S41.23,182.73,96.38,236.9c0,0,14.92-15.24,11-49s19.14-32.77,29.2-22.71,14.27,25,18.16,38.93,22.39,49.63,57.75,58.72,36.77-7.79,35.9-12.33-8.65-14.92-2.16-19.9C246.26,230.63,252.53,228.69,245.94,221.66Z" name="Layer %{number}" zoom="1" data-layer-id="2882954387574" style="" fill="#EAE8E4"></path><path class="cls-5" d="M187.9,286.11S158.05,311.74,177,341.59c31.24,49.12,24.33,48.34,24.33,48.34s-32.93-43.86-51.73-63.71-40-35.78-75.16-37.58c-24-1.23-40.5,11.08-27.53,15.31s66.18,13,116.33,74.41c55.58,68.11,55.94,15.78,52.69,5.08-.63-2.09-26.6-48-26.6-48S175.46,300.67,187.9,286.11Z" name="Layer %{number}" zoom="1" data-layer-id="2517382587574" style="" fill="url(&quot;#linear-gradient-3&quot;)"></path><path class="cls-6" d="M203.92,271.45s-32.28,31.64-3.73,71.22,18.82,73.31-6.49,74-88.89-1.29-152.47-106.41c0,0-8.76-12.32,6.81-11.35s108.19,38.77,152,106.89l4.27,5.68s13.84-5.4,10.17-25.95-30.82-45.1-33.42-59.05c-1.74-9.36-4.21-21.64,3.32-34.94C188.06,285,194.16,278.23,203.92,271.45Z" name="Layer %{number}" zoom="1" data-layer-id="0864546287574" style="" fill="url(&quot;#linear-gradient-4&quot;)"></path><path class="cls-7" d="M182.71,217.33c-25.14-45.74-2.43-90-65.37-100.57-21.52-3.6-37.65,1.22-49.68,9.75C54.94,156.1,53.45,194.73,96.38,236.9c0,0,14.92-15.24,11-49s19.14-32.77,29.2-22.71,14.27,25,18.16,38.93,22.39,49.63,57.75,58.72c15.74,4,24.74,2.94,29.82.08C228.81,262,203.28,254.76,182.71,217.33Z" name="Layer %{number}" zoom="1" data-layer-id="6397722687574" style="" fill="url(&quot;#linear-gradient-5&quot;)"></path><path class="cls-8" d="M248.42,250.53c-.82-4.34-7.94-14-2.95-19.18-43.72-3.44-52.33-48.58-55-67.06-2.92-20.44-12.17-57.91-56-64.72a111.43,111.43,0,0,0-54.77,5.06,134.69,134.69,0,0,0-12.1,21.88c12-8.53,28.16-13.35,49.68-9.75,62.94,10.55,40.23,54.83,65.37,100.57,20.57,37.43,46.1,44.66,59.63,45.61A11.88,11.88,0,0,0,248.42,250.53Z" name="Layer %{number}" zoom="1" data-layer-id="5806653987574" style="" fill="url(&quot;#linear-gradient-6&quot;)"></path></svg></g><g transform="rotate(0 318.92 310.685)"><svg viewBoxSize="575" data-root-id="7641469587574" xmlns="http://www.w3.org/2000/svg" y="302" viewBox="1.3799999952316284 4.820000171661377 239.83999633789062 17.3700008392334" x="199" height="17.3700008392334" width="239.83999633789062" fontUrl="https://fonts.gstatic.com/s/jost/v20/92zPtBhPNqw79Ij1E865zBUv7myjJQVGPokMmuHL.ttf" zoom="1" editorType="buyer" data-layer-role="slogan" style="position: absolute; top: 302px; width: 239.84px; height: 17.37px; left: 199px; transform: rotate(0deg);"><g data-horizontal-grow="left" zoom="1" root="[object Object]" style="fill-opacity: 1;" fill="#8ABAE8"><path d="M2.84 6.37L1.38 6.37L1.38 18.41L7.57 18.41L7.57 17.03L2.84 17.03L2.84 6.37ZM17.95 18.58L17.95 18.58Q19.22 18.58 20.16 18.07Q21.09 17.57 21.71 16.57L21.71 16.57L20.59 15.86Q20.16 16.59 19.55 16.94Q18.93 17.29 18.12 17.29L18.12 17.29Q17.31 17.29 16.74 16.95Q16.17 16.60 15.88 15.95Q15.59 15.30 15.59 14.37L15.59 14.37Q15.61 13.45 15.91 12.83Q16.21 12.20 16.77 11.86Q17.33 11.53 18.12 11.53L18.12 11.53Q18.79 11.53 19.29 11.82Q19.79 12.11 20.07 12.63Q20.35 13.14 20.35 13.85L20.35 13.85Q20.35 13.97 20.30 14.15Q20.25 14.33 20.20 14.42L20.20 14.42L20.75 13.63L15.07 13.63L15.07 14.80L21.83 14.80Q21.83 14.76 21.84 14.63Q21.85 14.50 21.85 14.38L21.85 14.38Q21.85 13.13 21.40 12.22Q20.96 11.30 20.12 10.81Q19.29 10.32 18.12 10.32L18.12 10.32Q16.95 10.32 16.06 10.84Q15.18 11.36 14.68 12.28Q14.19 13.21 14.19 14.45L14.19 14.45Q14.19 15.67 14.67 16.60Q15.14 17.53 15.99 18.06Q16.84 18.58 17.95 18.58ZM32.35 10.50L28.39 10.50L28.39 11.79L32.35 11.79L32.35 10.50ZM31.06 7.74L29.68 7.74L29.68 18.41L31.06 18.41L31.06 7.74ZM52.34 13.42L51.82 14.80L58.19 14.80L57.67 13.42L52.34 13.42ZM52.94 13.87L54.97 9.08L57.04 13.94L57.17 14.28L58.93 18.41L60.56 18.41L54.97 5.76L49.38 18.41L51.01 18.41L52.80 14.18L52.94 13.87ZM69.34 6.37L67.87 6.37L67.87 18.41L69.34 18.41L69.34 6.37ZM89.21 10.50L87.66 10.50L91.10 19.01L93.36 13.25L95.75 19.01L99.19 10.50L97.64 10.50L95.64 15.67L93.34 9.89L91.19 15.64L89.21 10.50ZM105.47 14.45L105.47 14.45Q105.47 15.64 106.01 16.58Q106.55 17.51 107.48 18.05Q108.41 18.58 109.56 18.58L109.56 18.58Q110.73 18.58 111.65 18.05Q112.57 17.51 113.12 16.58Q113.66 15.64 113.66 14.45L113.66 14.45Q113.66 13.25 113.12 12.32Q112.57 11.39 111.65 10.86Q110.73 10.32 109.56 10.32L109.56 10.32Q108.41 10.32 107.48 10.86Q106.55 11.39 106.01 12.32Q105.47 13.25 105.47 14.45ZM106.86 14.45L106.86 14.45Q106.86 13.63 107.21 12.98Q107.57 12.34 108.18 11.97Q108.79 11.61 109.56 11.61L109.56 11.61Q110.34 11.61 110.95 11.97Q111.56 12.34 111.91 12.98Q112.26 13.63 112.26 14.45L112.26 14.45Q112.26 15.28 111.91 15.91Q111.56 16.55 110.95 16.92Q110.34 17.29 109.56 17.29L109.56 17.29Q108.79 17.29 108.18 16.92Q107.57 16.55 107.21 15.91Q106.86 15.28 106.86 14.45ZM122.78 18.41L122.78 10.50L121.40 10.50L121.40 18.41L122.78 18.41ZM125.17 12.01L125.17 12.01L125.93 10.87Q125.62 10.55 125.25 10.43Q124.88 10.32 124.45 10.32L124.45 10.32Q123.89 10.32 123.36 10.75Q122.83 11.18 122.49 11.91Q122.16 12.65 122.16 13.59L122.16 13.59L122.78 13.59Q122.78 13.02 122.89 12.58Q123.00 12.13 123.29 11.87Q123.59 11.61 124.10 11.61L124.10 11.61Q124.45 11.61 124.67 11.71Q124.89 11.80 125.17 12.01ZM134.44 4.99L133.07 4.99L133.07 18.41L134.44 18.41L134.44 4.99ZM139.09 10.50L137.37 10.50L133.93 13.76L137.71 18.41L139.43 18.41L135.65 13.76L139.09 10.50ZM160.94 10.50L156.98 10.50L156.98 11.79L160.94 11.79L160.94 10.50ZM160.80 6.64L160.80 6.64L161.56 5.51Q161.44 5.33 161.22 5.18Q161.01 5.02 160.71 4.92Q160.42 4.82 160.04 4.82L160.04 4.82Q159.32 4.82 158.81 5.12Q158.31 5.42 158.03 6.02Q157.75 6.62 157.75 7.57L157.75 7.57L157.75 18.41L159.13 18.41L159.13 7.74Q159.13 7.17 159.23 6.83Q159.34 6.49 159.52 6.34Q159.70 6.19 159.96 6.19L159.96 6.19Q160.16 6.19 160.40 6.27Q160.63 6.35 160.80 6.64ZM167.67 14.45L167.67 14.45Q167.67 15.64 168.21 16.58Q168.75 17.51 169.68 18.05Q170.61 18.58 171.76 18.58L171.76 18.58Q172.93 18.58 173.85 18.05Q174.77 17.51 175.31 16.58Q175.85 15.64 175.85 14.45L175.85 14.45Q175.85 13.25 175.31 12.32Q174.77 11.39 173.85 10.86Q172.93 10.32 171.76 10.32L171.76 10.32Q170.61 10.32 169.68 10.86Q168.75 11.39 168.21 12.32Q167.67 13.25 167.67 14.45ZM169.06 14.45L169.06 14.45Q169.06 13.63 169.41 12.98Q169.76 12.34 170.37 11.97Q170.99 11.61 171.76 11.61L171.76 11.61Q172.53 11.61 173.14 11.97Q173.76 12.34 174.11 12.98Q174.46 13.63 174.46 14.45L174.46 14.45Q174.46 15.28 174.11 15.91Q173.76 16.55 173.14 16.92Q172.53 17.29 171.76 17.29L171.76 17.29Q170.99 17.29 170.37 16.92Q169.76 16.55 169.41 15.91Q169.06 15.28 169.06 14.45ZM184.97 18.41L184.97 10.50L183.60 10.50L183.60 18.41L184.97 18.41ZM187.37 12.01L187.37 12.01L188.12 10.87Q187.81 10.55 187.44 10.43Q187.07 10.32 186.64 10.32L186.64 10.32Q186.09 10.32 185.56 10.75Q185.03 11.18 184.69 11.91Q184.35 12.65 184.35 13.59L184.35 13.59L184.97 13.59Q184.97 13.02 185.09 12.58Q185.20 12.13 185.49 11.87Q185.78 11.61 186.30 11.61L186.30 11.61Q186.64 11.61 186.87 11.71Q187.09 11.80 187.37 12.01ZM207.48 22.19L212.64 10.50L211.09 10.50L208.65 16.62L209.22 16.69L206.70 10.50L205.07 10.50L208.10 17.29L205.93 22.19L207.48 22.19ZM218.83 14.45L218.83 14.45Q218.83 15.64 219.38 16.58Q219.92 17.51 220.85 18.05Q221.78 18.58 222.93 18.58L222.93 18.58Q224.10 18.58 225.02 18.05Q225.94 17.51 226.48 16.58Q227.02 15.64 227.02 14.45L227.02 14.45Q227.02 13.25 226.48 12.32Q225.94 11.39 225.02 10.86Q224.10 10.32 222.93 10.32L222.93 10.32Q221.78 10.32 220.85 10.86Q219.92 11.39 219.38 12.32Q218.83 13.25 218.83 14.45ZM220.23 14.45L220.23 14.45Q220.23 13.63 220.58 12.98Q220.93 12.34 221.54 11.97Q222.15 11.61 222.93 11.61L222.93 11.61Q223.70 11.61 224.31 11.97Q224.92 12.34 225.28 12.98Q225.63 13.63 225.63 14.45L225.63 14.45Q225.63 15.28 225.28 15.91Q224.92 16.55 224.31 16.92Q223.70 17.29 222.93 17.29L222.93 17.29Q222.15 17.29 221.54 16.92Q220.93 16.55 220.58 15.91Q220.23 15.28 220.23 14.45ZM236.14 15.31L236.14 15.31L236.14 10.50L234.77 10.50L234.77 15.48Q234.77 16.90 235.51 17.74Q236.25 18.58 237.48 18.58L237.48 18.58Q238.28 18.58 238.86 18.23Q239.45 17.88 239.84 17.17L239.84 17.17L239.84 18.41L241.22 18.41L241.22 10.50L239.84 10.50L239.84 15.31Q239.84 15.90 239.59 16.34Q239.34 16.79 238.89 17.04Q238.43 17.29 237.83 17.29L237.83 17.29Q237.00 17.29 236.57 16.78Q236.14 16.26 236.14 15.31Z" transform="translate(0, 0)" fill="#8ABAE8"></path></g></svg></g><g transform="rotate(0 355.60400000000004 275.08439999999996)"><svg viewBoxSize="575" data-root-id="2827767587574" xmlns="http://www.w3.org/2000/svg" y="262.669" viewBox="-162.0962677001953 -24.82881736755371 313.20806884765625 24.830812454223633" x="199" height="24.830812454223633" width="313.20806884765625" fontUrl="https://fonts.gstatic.com/s/staatliches/v15/HI_OiY8KO6hCsQSoAPmtMbectJG9O9PS.ttf" zoom="1" editorType="buyer" data-layer-role="brandName" style="position: absolute; top: 262.669px; width: 313.208px; height: 24.8308px; left: 199px; transform: rotate(0deg);"><g data-horizontal-grow="left" zoom="1" root="[object Object]" style="fill-opacity: 1;" fill="#FFFFFF"><path d="M11.36 0L1.36 0Q1.24 0 1.24-0.15L1.24-0.15L1.27-21.43Q1.27-21.55 1.39-21.55L1.39-21.55L11.33-21.55Q11.46-21.55 11.46-21.40L11.46-21.40L11.46-17.93Q11.46-17.80 11.33-17.80L11.33-17.80L4.99-17.80L4.99-12.97L11.33-12.97Q11.46-12.97 11.46-12.85L11.46-12.85L11.49-9.35Q11.49-9.23 11.36-9.23L11.36-9.23L4.99-9.23L4.99-3.81L11.36-3.81Q11.49-3.81 11.49-3.65L11.49-3.65L11.49-0.12Q11.49 0 11.36 0L11.36 0Z" transform="translate(-12.385742004538232 0), rotate(2.3082822085889565 6.363174954831517 -3747.984807994299)" fill="#FFFFFF"></path><path d="M11.95 0L0.40 0Q0.25 0 0.25-0.15L0.25-0.15L0.28-3.53L7.86-18.02L0.68-18.02Q0.56-18.02 0.56-18.15L0.56-18.15L0.56-21.40Q0.56-21.55 0.68-21.55L0.68-21.55L11.89-21.55Q12.05-21.55 12.05-21.40L12.05-21.40L12.05-18.05L4.49-3.62L11.95-3.62Q12.08-3.62 12.08-3.47L12.08-3.47L12.11-0.15Q12.11 0 11.95 0L11.95 0Z" transform="translate(-12.292848939504196 0), rotate(1.9262845092024536 6.177388824763442 -3747.984807994299)" fill="#FFFFFF"></path><path d="" transform="translate(-8.174589722995233 0), rotate(1.6094708588957052 0 -3747.984807994299)" fill="#FFFFFF"></path><path d="M7.46-8.95L1.49-8.95Q1.33-8.95 1.33-9.07L1.33-9.07L1.33-12.45Q1.33-12.57 1.49-12.57L1.49-12.57L7.46-12.57Q7.62-12.57 7.62-12.45L7.62-12.45L7.62-9.07Q7.62-8.95 7.46-8.95L7.46-8.95Z" transform="translate(-10.574327236374515 0), rotate(1.3192580521472388 4.474349299139436 -3747.984807994299)" fill="#FFFFFF"></path><path d="" transform="translate(-8.174589722995233 0), rotate(1.0290452453987728 0 -3747.984807994299)" fill="#FFFFFF"></path><path d="M4.89 0L1.39 0Q1.24 0 1.24-0.15L1.24-0.15L1.27-21.43Q1.27-21.55 1.39-21.55L1.39-21.55L4.86-21.55Q4.99-21.55 4.99-21.43L4.99-21.43L5.02-0.15Q5.02 0 4.89 0L4.89 0Z" transform="translate(-9.134484728346946 0), rotate(0.7611196319018403 3.1273998561459035 -3747.984807994299)" fill="#FFFFFF"></path><path d="M4.61 0L1.52 0Q1.27 0 1.27-0.22L1.27-0.22L1.24-21.30Q1.24-21.55 1.49-21.55L1.49-21.55L4.27-21.55L9.51-9.35L9.35-21.30Q9.35-21.55 9.63-21.55L9.63-21.55L12.70-21.55Q12.88-21.55 12.88-21.30L12.88-21.30L12.91-0.19Q12.91 0 12.76 0L12.76 0L10.03 0L4.68-11.39L4.89-0.25Q4.89 0 4.61 0L4.61 0Z" transform="translate(-13.066957814787834 0), rotate(0.41746549079754613 7.075355120092465 -3747.984807994299)" fill="#FFFFFF"></path><path d="M8.45 0L4.71 0Q4.58 0 4.55-0.15L4.55-0.15L0.28-21.43Q0.25-21.55 0.40-21.55L0.40-21.55L3.90-21.55Q4.03-21.55 4.06-21.43L4.06-21.43L6.60-7.25L9.07-21.43Q9.10-21.55 9.23-21.55L9.23-21.55L12.70-21.55Q12.85-21.55 12.82-21.43L12.82-21.43L8.61-0.15Q8.58 0 8.45 0L8.45 0Z" transform="translate(-12.587010312111978 0), rotate(0.020370015337423553 6.5491223182087275 -3747.984807994299)" fill="#FFFFFF"></path><path d="M11.36 0L1.36 0Q1.24 0 1.24-0.15L1.24-0.15L1.27-21.43Q1.27-21.55 1.39-21.55L1.39-21.55L11.33-21.55Q11.46-21.55 11.46-21.40L11.46-21.40L11.46-17.93Q11.46-17.80 11.33-17.80L11.33-17.80L4.99-17.80L4.99-12.97L11.33-12.97Q11.46-12.97 11.46-12.85L11.46-12.85L11.49-9.35Q11.49-9.23 11.36-9.23L11.36-9.23L4.99-9.23L4.99-3.81L11.36-3.81Q11.49-3.81 11.49-3.65L11.49-3.65L11.49-0.12Q11.49 0 11.36 0L11.36 0Z" transform="translate(-12.385742004538232 0), rotate(-0.3661809815950918 6.363174954831517 -3747.984807994299)" fill="#FFFFFF"></path><path d="M4.61 0L1.52 0Q1.27 0 1.27-0.22L1.27-0.22L1.24-21.30Q1.24-21.55 1.49-21.55L1.49-21.55L4.27-21.55L9.51-9.35L9.35-21.30Q9.35-21.55 9.63-21.55L9.63-21.55L12.70-21.55Q12.88-21.55 12.88-21.30L12.88-21.30L12.91-0.19Q12.91 0 12.76 0L12.76 0L10.03 0L4.68-11.39L4.89-0.25Q4.89 0 4.61 0L4.61 0Z" transform="translate(-13.066957814787834 0), rotate(-0.7601610429447847 7.075355120092465 -3747.984807994299)" fill="#FFFFFF"></path><path d="M7.83 0L4.34 0Q4.21 0 4.21-0.15L4.21-0.15L4.21-17.80L0.19-17.80Q0.03-17.80 0.03-17.96L0.03-17.96L0.06-21.43Q0.06-21.55 0.19-21.55L0.19-21.55L11.95-21.55Q12.11-21.55 12.11-21.43L12.11-21.43L12.11-17.96Q12.11-17.80 11.98-17.80L11.98-17.80L7.93-17.80L7.96-0.15Q7.96 0 7.83 0L7.83 0Z" transform="translate(-11.735490549299975 0), rotate(-1.144075920245398 6.069013582223733 -3747.984807994299)" fill="#FFFFFF"></path><path d="M6.97 0.31L6.97 0.31Q5.29 0.31 3.92-0.54Q2.54-1.39 1.70-2.80Q0.87-4.21 0.87-5.91L0.87-5.91L0.90-15.73Q0.90-17.43 1.72-18.83Q2.54-20.22 3.93-21.06Q5.33-21.89 6.97-21.89L6.97-21.89Q8.64-21.89 10.00-21.06Q11.36-20.22 12.18-18.83Q13.01-17.43 13.01-15.73L13.01-15.73L13.04-5.91Q13.04-4.21 12.22-2.80Q11.39-1.39 10.02-0.54Q8.64 0.31 6.97 0.31ZM6.97-3.44L6.97-3.44Q7.90-3.44 8.59-4.20Q9.29-4.95 9.29-5.91L9.29-5.91L9.26-15.73Q9.26-16.75 8.61-17.46Q7.96-18.18 6.97-18.18L6.97-18.18Q6.01-18.18 5.33-17.48Q4.64-16.78 4.64-15.73L4.64-15.73L4.64-5.91Q4.64-4.89 5.33-4.16Q6.01-3.44 6.97-3.44Z" transform="translate(-12.958582572248126 0), rotate(-1.5263132668711648 6.951497700047082 -3747.984807994299)" fill="#FFFFFF"></path><path d="M4.86 0L1.36 0Q1.24 0 1.24-0.15L1.24-0.15L1.30-21.43Q1.30-21.55 1.42-21.55L1.42-21.55L7.68-21.55Q9.35-21.55 10.76-20.73Q12.17-19.91 13.01-18.53Q13.84-17.15 13.84-15.42L13.84-15.42Q13.84-14.27 13.50-13.36Q13.16-12.45 12.70-11.81Q12.23-11.18 11.86-10.87L11.86-10.87Q13.53-9.01 13.53-6.50L13.53-6.50L13.56-0.15Q13.56 0 13.41 0L13.41 0L9.91 0Q9.78 0 9.78-0.09L9.78-0.09L9.78-6.50Q9.78-7.62 9.00-8.44Q8.21-9.26 7.06-9.26L7.06-9.26L5.02-9.26L4.99-0.15Q4.99 0 4.86 0L4.86 0ZM5.02-17.84L5.02-12.97L7.68-12.97Q8.64-12.97 9.38-13.69Q10.13-14.40 10.13-15.42L10.13-15.42Q10.13-16.41 9.40-17.12Q8.67-17.84 7.68-17.84L7.68-17.84L5.02-17.84Z" transform="translate(-12.88117168471976 0), rotate(-1.9262845092024539 7.539820445262648 -3747.984807994299)" fill="#FFFFFF"></path><path d="M7.68 0L4.12 0Q4.03 0 4.03-0.12L4.03-0.12L4.06-8.92L-0.09-21.43Q-0.12-21.55 0-21.55L0-21.55L3.44-21.55Q3.59-21.55 3.62-21.43L3.62-21.43L5.91-13.10L8.24-21.43Q8.27-21.55 8.39-21.55L8.39-21.55L11.86-21.55Q11.98-21.55 11.95-21.43L11.95-21.43L7.77-9.04L7.80-0.12Q7.80 0 7.68 0L7.68 0Z" transform="translate(-12.091580631930448 0), rotate(-2.312835506134969 5.9298675118915005 -3747.984807994299)" fill="#FFFFFF"></path></g></svg></g></svg>