<svg xmlns:xlink="http://www.w3.org/1999/xlink" xmlns="http://www.w3.org/2000/svg" class="roots-wrapper" viewBox="158.21 172.49 258.58 230.01"><g transform="rotate(0 0 0)"><svg xmlns="http://www.w3.org/2000/svg" xmlns:xlink="http://www.w3.org/1999/xlink" viewBoxSize="575" data-root-id="3406832285682" id="Layer_1" dataName="Layer 1" viewBox="6.336987018585205 36.13996887207031 299.9573669433594 380.603759765625" height="156" width="122.94506893183596" y="172.4949951171875" x="226.02701525878905" preserveAspectRatio="xMinYMin" zoom="1" editorType="buyer" data-layer-role="icon" style="position: absolute; height: 156px; width: 122.945px; top: 172.495px; left: 226.027px;"><defs><linearGradient id="linear-gradient" x1="67.79" y1="184.06" x2="318.1" y2="334.7" gradientUnits="userSpaceOnUse" name="Layer %{number}" zoom="1" data-layer-id="2819222485713"><stop offset="0" stop-color="#27384a"/><stop offset="0.48" stop-color="#0b0e15"/><stop offset="1" stop-color="#71d0f6"/></linearGradient><linearGradient id="linear-gradient-2" x1="62.15" y1="268.48" x2="177.64" y2="373.59" gradientUnits="userSpaceOnUse" name="Layer %{number}" zoom="1" data-layer-id="0184272885725"><stop offset="0" stop-color="#27384a"/><stop offset="0.48" stop-color="#307cc0"/><stop offset="1" stop-color="#71d0f6"/></linearGradient><linearGradient id="linear-gradient-3" x1="61.29" y1="272.28" x2="233.88" y2="372.2" xlink:href="#linear-gradient" name="Layer %{number}" zoom="1" data-layer-id="4581578585735"/><linearGradient id="linear-gradient-4" x1="60.67" y1="402.35" x2="172.59" y2="320.59" gradientUnits="userSpaceOnUse" name="Layer %{number}" zoom="1" data-layer-id="6181222185744"><stop offset="0" stop-color="#dde1ea"/><stop offset="1" stop-color="#85a7c5"/></linearGradient><linearGradient id="linear-gradient-5" x1="243.8" y1="265.25" x2="8.92" y2="105.64" xlink:href="#linear-gradient-2" name="Layer %{number}" zoom="1" data-layer-id="2299538585753"/><linearGradient id="linear-gradient-6" x1="246.53" y1="221.6" x2="62.26" y2="95.72" gradientUnits="userSpaceOnUse" name="Layer %{number}" zoom="1" data-layer-id="5158786785761"><stop offset="0" stop-color="#dde1ea"/><stop offset="0.48" stop-color="#85a7c5"/><stop offset="1" stop-color="#71d0f6"/></linearGradient></defs><linearGradient id="linear-gradient" x1="67.79" y1="184.06" x2="318.1" y2="334.7" gradientUnits="userSpaceOnUse" name="Layer %{number}" zoom="1" data-layer-id="2819222485713"><stop offset="0" stop-color="#27384a"/><stop offset="0.48" stop-color="#0b0e15"/><stop offset="1" stop-color="#71d0f6"/></linearGradient><linearGradient id="linear-gradient-2" x1="62.15" y1="268.48" x2="177.64" y2="373.59" gradientUnits="userSpaceOnUse" name="Layer %{number}" zoom="1" data-layer-id="0184272885725"><stop offset="0" stop-color="#27384a"/><stop offset="0.48" stop-color="#307cc0"/><stop offset="1" stop-color="#71d0f6"/></linearGradient><linearGradient id="linear-gradient-3" x1="61.29" y1="272.28" x2="233.88" y2="372.2" xlink:href="#linear-gradient" name="Layer %{number}" zoom="1" data-layer-id="4581578585735"/><linearGradient id="linear-gradient-4" x1="60.67" y1="402.35" x2="172.59" y2="320.59" gradientUnits="userSpaceOnUse" name="Layer %{number}" zoom="1" data-layer-id="6181222185744"><stop offset="0" stop-color="#dde1ea"/><stop offset="1" stop-color="#85a7c5"/></linearGradient><linearGradient id="linear-gradient-5" x1="243.8" y1="265.25" x2="8.92" y2="105.64" xlink:href="#linear-gradient-2" name="Layer %{number}" zoom="1" data-layer-id="2299538585753"/><linearGradient id="linear-gradient-6" x1="246.53" y1="221.6" x2="62.26" y2="95.72" gradientUnits="userSpaceOnUse" name="Layer %{number}" zoom="1" data-layer-id="5158786785761"><stop offset="0" stop-color="#dde1ea"/><stop offset="0.48" stop-color="#85a7c5"/><stop offset="1" stop-color="#71d0f6"/></linearGradient><path class="cls-1" d="M305.56,212.23c7.86,90.94-48.31,161.6-123.66,165.21C107.8,381,33,318.69,12,231.43c-23.08-96,26.26-187.21,113.92-194.79C215.34,28.91,296.88,111.86,305.56,212.23Z" name="Layer %{number}" zoom="1" data-layer-id="6923184885769" style="" fill="#1860A4" fill-opacity="0.95"/><path class="cls-2" d="M139.89,124.71,232,265.29s-26.17-2.83-35.36,14.82C172,327.48,195,352.46,156.11,333.64s-97-52.07-97-52.07,63.26-38,23.68-69.91C50.21,185.35,123.67,118.87,139.89,124.71Z" name="Layer %{number}" zoom="1" data-layer-id="6159095585777" style="" fill="url(&quot;#linear-gradient&quot;)"/><path class="cls-3" d="M204.61,371.43s-48-85.64-81.75-94.08-81.76,1.3-79.16,22.06S190.26,416.09,200,405.76,211.1,378.57,204.61,371.43Z" name="Layer %{number}" zoom="1" data-layer-id="0119444685785" style="" fill="url(&quot;#linear-gradient-2&quot;)"/><path class="cls-4" d="M245.94,221.66s6.16-1.95,4.21-6.82-7-10.7-6-12.81c0,0,17.36-6.17,15.57-11.52s-24.33-33.58-24.33-33.58-3.24-4.54.16-9.08,1.63-37.79-37-64.4-97-10.7-118.09,20.12S41.23,182.73,96.38,236.9c0,0,14.92-15.24,11-49s19.14-32.77,29.2-22.71,14.27,25,18.16,38.93,22.39,49.63,57.75,58.72,36.77-7.79,35.9-12.33-8.65-14.92-2.16-19.9C246.26,230.63,252.53,228.69,245.94,221.66Z" name="Layer %{number}" zoom="1" data-layer-id="1000262585792" style="" fill="#EAE8E4"/><path class="cls-5" d="M187.9,286.11S158.05,311.74,177,341.59c31.24,49.12,24.33,48.34,24.33,48.34s-32.93-43.86-51.73-63.71-40-35.78-75.16-37.58c-24-1.23-40.5,11.08-27.53,15.31s66.18,13,116.33,74.41c55.58,68.11,55.94,15.78,52.69,5.08-.63-2.09-26.6-48-26.6-48S175.46,300.67,187.9,286.11Z" name="Layer %{number}" zoom="1" data-layer-id="9111572485800" style="" fill="url(&quot;#linear-gradient-3&quot;)"/><path class="cls-6" d="M203.92,271.45s-32.28,31.64-3.73,71.22,18.82,73.31-6.49,74-88.89-1.29-152.47-106.41c0,0-8.76-12.32,6.81-11.35s108.19,38.77,152,106.89l4.27,5.68s13.84-5.4,10.17-25.95-30.82-45.1-33.42-59.05c-1.74-9.36-4.21-21.64,3.32-34.94C188.06,285,194.16,278.23,203.92,271.45Z" name="Layer %{number}" zoom="1" data-layer-id="4685139485808" style="" fill="url(&quot;#linear-gradient-4&quot;)"/><path class="cls-7" d="M182.71,217.33c-25.14-45.74-2.43-90-65.37-100.57-21.52-3.6-37.65,1.22-49.68,9.75C54.94,156.1,53.45,194.73,96.38,236.9c0,0,14.92-15.24,11-49s19.14-32.77,29.2-22.71,14.27,25,18.16,38.93,22.39,49.63,57.75,58.72c15.74,4,24.74,2.94,29.82.08C228.81,262,203.28,254.76,182.71,217.33Z" name="Layer %{number}" zoom="1" data-layer-id="6920323185816" style="" fill="url(&quot;#linear-gradient-5&quot;)"/><path class="cls-8" d="M248.42,250.53c-.82-4.34-7.94-14-2.95-19.18-43.72-3.44-52.33-48.58-55-67.06-2.92-20.44-12.17-57.91-56-64.72a111.43,111.43,0,0,0-54.77,5.06,134.69,134.69,0,0,0-12.1,21.88c12-8.53,28.16-13.35,49.68-9.75,62.94,10.55,40.23,54.83,65.37,100.57,20.57,37.43,46.1,44.66,59.63,45.61A11.88,11.88,0,0,0,248.42,250.53Z" name="Layer %{number}" zoom="1" data-layer-id="5822723585824" style="" fill="url(&quot;#linear-gradient-6&quot;)"/></svg></g><g transform="rotate(0 0 0)"><svg xmlns="http://www.w3.org/2000/svg" viewBoxSize="575" data-root-id="0019146285832" y="392.4949951171875" viewBox="1.0399999618530273 4.360000133514404 222.17001342773438 10.010001182556152" x="176.4150082397461" height="10.010001182556152" width="222.17001342773438" fontUrl="https://fonts.gstatic.com/s/jost/v20/92zPtBhPNqw79Ij1E865zBUv7myjJQVGPokMmuHL.ttf" zoom="1" editorType="buyer" data-layer-role="slogan" style="position: absolute; top: 392.495px; width: 222.17px; height: 10.01px; left: 176.415px;"><g data-horizontal-grow="center" zoom="1" root="[object Object]" style="fill-opacity: 1;" fill="#27272C"><path d="M2.15 4.81L1.04 4.81L1.04 13.91L5.72 13.91L5.72 12.87L2.15 12.87L2.15 4.81ZM11.92 12.87L11.92 13.91L16.51 13.91L16.51 12.87L11.92 12.87ZM11.92 4.81L11.92 5.85L16.51 5.85L16.51 4.81L11.92 4.81ZM11.92 8.45L11.92 9.49L16.25 9.49L16.25 8.45L11.92 8.45ZM12.41 4.81L11.31 4.81L11.31 13.91L12.41 13.91L12.41 4.81ZM21.97 4.81L21.97 5.85L24.31 5.85L24.31 13.91L25.42 13.91L25.42 5.85L27.76 5.85L27.76 4.81L21.97 4.81ZM33.68 11.15L33.68 11.15L32.80 11.75Q33.10 12.35 33.57 12.88Q34.05 13.40 34.68 13.72Q35.31 14.04 36.05 14.04L36.05 14.04Q36.60 14.04 37.10 13.86Q37.60 13.68 37.99 13.34Q38.39 13.00 38.62 12.52Q38.84 12.04 38.84 11.44L38.84 11.44Q38.84 10.82 38.62 10.37Q38.40 9.92 38.06 9.60Q37.71 9.28 37.31 9.07Q36.91 8.87 36.54 8.74L36.54 8.74Q35.75 8.46 35.29 8.18Q34.83 7.90 34.63 7.59Q34.44 7.27 34.44 6.89L34.44 6.89Q34.44 6.45 34.78 6.09Q35.11 5.73 35.85 5.73L35.85 5.73Q36.39 5.73 36.76 5.94Q37.13 6.15 37.39 6.47Q37.65 6.80 37.82 7.14L37.82 7.14L38.77 6.59Q38.55 6.11 38.16 5.67Q37.77 5.24 37.21 4.96Q36.66 4.68 35.92 4.68L35.92 4.68Q35.15 4.68 34.55 4.99Q33.96 5.29 33.62 5.82Q33.28 6.36 33.28 7.03L33.28 7.03Q33.28 7.66 33.52 8.09Q33.76 8.52 34.14 8.81Q34.52 9.10 34.93 9.29Q35.35 9.48 35.69 9.59L35.69 9.59Q36.21 9.78 36.67 10.00Q37.13 10.23 37.41 10.60Q37.70 10.96 37.70 11.57L37.70 11.57Q37.70 12.19 37.26 12.60Q36.82 13.00 36.09 13.00L36.09 13.00Q35.54 13.00 35.11 12.77Q34.68 12.53 34.34 12.12Q34.00 11.70 33.68 11.15ZM54.47 10.14L54.08 11.18L58.89 11.18L58.50 10.14L54.47 10.14ZM54.93 10.48L56.46 6.86L58.02 10.53L58.12 10.79L59.45 13.91L60.68 13.91L56.46 4.36L52.23 13.91L53.47 13.91L54.82 10.71L54.93 10.48ZM67.31 4.81L66.21 4.81L66.21 13.91L67.31 13.91L67.31 4.81ZM92.60 4.81L90.23 11.51L87.53 4.36L84.88 11.51L82.46 4.81L81.22 4.81L84.80 14.37L87.53 7.29L90.26 14.37L93.83 4.81L92.60 4.81ZM99.88 9.36L99.88 9.36Q99.88 8.33 100.33 7.53Q100.78 6.72 101.56 6.25Q102.34 5.79 103.32 5.79L103.32 5.79Q104.33 5.79 105.10 6.25Q105.87 6.72 106.32 7.53Q106.77 8.33 106.77 9.36L106.77 9.36Q106.77 10.39 106.32 11.19Q105.87 12.00 105.10 12.47Q104.33 12.94 103.32 12.94L103.32 12.94Q102.34 12.94 101.56 12.47Q100.78 12.00 100.33 11.19Q99.88 10.39 99.88 9.36ZM98.71 9.36L98.71 9.36Q98.71 10.35 99.05 11.21Q99.40 12.06 100.02 12.69Q100.65 13.33 101.49 13.68Q102.34 14.04 103.32 14.04L103.32 14.04Q104.33 14.04 105.16 13.68Q106.00 13.33 106.63 12.69Q107.25 12.06 107.59 11.21Q107.94 10.35 107.94 9.36L107.94 9.36Q107.94 8.36 107.59 7.51Q107.25 6.66 106.63 6.03Q106.00 5.40 105.16 5.04Q104.33 4.68 103.32 4.68L103.32 4.68Q102.34 4.68 101.49 5.04Q100.65 5.40 100.02 6.03Q99.40 6.66 99.05 7.51Q98.71 8.36 98.71 9.36ZM116.78 9.43L115.54 9.43L118.66 13.91L120.03 13.91L116.78 9.43ZM115.02 4.81L113.92 4.81L113.92 13.91L115.02 13.91L115.02 4.81ZM114.53 4.81L114.53 5.79L116.39 5.79Q116.97 5.79 117.42 5.99Q117.87 6.20 118.12 6.59Q118.38 6.98 118.38 7.54L118.38 7.54Q118.38 8.10 118.12 8.49Q117.87 8.88 117.42 9.09Q116.97 9.30 116.39 9.30L116.39 9.30L114.53 9.30L114.53 10.27L116.39 10.27Q117.27 10.27 117.97 9.94Q118.66 9.61 119.07 8.99Q119.48 8.37 119.48 7.54L119.48 7.54Q119.48 6.70 119.07 6.08Q118.66 5.47 117.97 5.14Q117.27 4.81 116.39 4.81L116.39 4.81L114.53 4.81ZM126.72 4.81L125.62 4.81L125.62 13.91L126.72 13.91L126.72 4.81ZM131.66 4.81L130.30 4.81L126.39 9.10L130.49 13.91L131.86 13.91L127.73 9.07L131.66 4.81ZM146.32 4.81L146.32 5.85L150.38 5.85L150.38 4.81L146.32 4.81ZM146.32 8.45L146.32 9.49L150.25 9.49L150.25 8.45L146.32 8.45ZM146.81 4.81L145.70 4.81L145.70 13.91L146.81 13.91L146.81 4.81ZM157.27 9.36L157.27 9.36Q157.27 8.33 157.72 7.53Q158.17 6.72 158.95 6.25Q159.73 5.79 160.72 5.79L160.72 5.79Q161.72 5.79 162.49 6.25Q163.27 6.72 163.72 7.53Q164.16 8.33 164.16 9.36L164.16 9.36Q164.16 10.39 163.72 11.19Q163.27 12.00 162.49 12.47Q161.72 12.94 160.72 12.94L160.72 12.94Q159.73 12.94 158.95 12.47Q158.17 12.00 157.72 11.19Q157.27 10.39 157.27 9.36ZM156.10 9.36L156.10 9.36Q156.10 10.35 156.45 11.21Q156.79 12.06 157.42 12.69Q158.04 13.33 158.89 13.68Q159.73 14.04 160.72 14.04L160.72 14.04Q161.72 14.04 162.56 13.68Q163.40 13.33 164.02 12.69Q164.65 12.06 164.99 11.21Q165.33 10.35 165.33 9.36L165.33 9.36Q165.33 8.36 164.99 7.51Q164.65 6.66 164.02 6.03Q163.40 5.40 162.56 5.04Q161.72 4.68 160.72 4.68L160.72 4.68Q159.73 4.68 158.89 5.04Q158.04 5.40 157.42 6.03Q156.79 6.66 156.45 7.51Q156.10 8.36 156.10 9.36ZM174.17 9.43L172.94 9.43L176.06 13.91L177.42 13.91L174.17 9.43ZM172.42 4.81L171.31 4.81L171.31 13.91L172.42 13.91L172.42 4.81ZM171.93 4.81L171.93 5.79L173.78 5.79Q174.37 5.79 174.82 5.99Q175.27 6.20 175.52 6.59Q175.77 6.98 175.77 7.54L175.77 7.54Q175.77 8.10 175.52 8.49Q175.27 8.88 174.82 9.09Q174.37 9.30 173.78 9.30L173.78 9.30L171.93 9.30L171.93 10.27L173.78 10.27Q174.67 10.27 175.36 9.94Q176.06 9.61 176.47 8.99Q176.88 8.37 176.88 7.54L176.88 7.54Q176.88 6.70 176.47 6.08Q176.06 5.47 175.36 5.14Q174.67 4.81 173.78 4.81L173.78 4.81L171.93 4.81ZM197.52 4.81L196.29 4.81L193.93 9.02L191.59 4.81L190.36 4.81L193.39 10.00L193.39 13.91L194.49 13.91L194.49 9.98L197.52 4.81ZM203.05 9.36L203.05 9.36Q203.05 8.33 203.50 7.53Q203.94 6.72 204.72 6.25Q205.50 5.79 206.49 5.79L206.49 5.79Q207.49 5.79 208.27 6.25Q209.04 6.72 209.49 7.53Q209.94 8.33 209.94 9.36L209.94 9.36Q209.94 10.39 209.49 11.19Q209.04 12.00 208.27 12.47Q207.49 12.94 206.49 12.94L206.49 12.94Q205.50 12.94 204.72 12.47Q203.94 12.00 203.50 11.19Q203.05 10.39 203.05 9.36ZM201.88 9.36L201.88 9.36Q201.88 10.35 202.22 11.21Q202.57 12.06 203.19 12.69Q203.81 13.33 204.66 13.68Q205.50 14.04 206.49 14.04L206.49 14.04Q207.49 14.04 208.33 13.68Q209.17 13.33 209.79 12.69Q210.42 12.06 210.76 11.21Q211.11 10.35 211.11 9.36L211.11 9.36Q211.11 8.36 210.76 7.51Q210.42 6.66 209.79 6.03Q209.17 5.40 208.33 5.04Q207.49 4.68 206.49 4.68L206.49 4.68Q205.50 4.68 204.66 5.04Q203.81 5.40 203.19 6.03Q202.57 6.66 202.22 7.51Q201.88 8.36 201.88 9.36ZM218.13 4.81L217.02 4.81L217.02 10.92Q217.02 11.60 217.24 12.17Q217.45 12.74 217.86 13.16Q218.27 13.57 218.84 13.81Q219.41 14.04 220.12 14.04L220.12 14.04Q220.82 14.04 221.39 13.81Q221.96 13.57 222.37 13.16Q222.78 12.74 223.00 12.17Q223.21 11.60 223.21 10.92L223.21 10.92L223.21 4.81L222.10 4.81L222.10 10.92Q222.10 11.86 221.60 12.43Q221.09 13.00 220.12 13.00L220.12 13.00Q219.14 13.00 218.63 12.43Q218.13 11.86 218.13 10.92L218.13 10.92L218.13 4.81Z" transform="translate(0, 0)" fill="#27272C"/></g></svg></g><g transform="rotate(0 0 0)"><svg xmlns="http://www.w3.org/2000/svg" viewBoxSize="575" data-root-id="6436729885855" y="348.4949951171875" viewBox="2.5 10.25 258.5799865722656 31.669998168945312" x="158.21001983642577" height="31.669998168945312" width="258.5799865722656" fontUrl="https://fonts.gstatic.com/s/antonio/v22/gNMbW3NwSYq_9WD34ngK5F8vR8T0PVxD8RtIY2DwSXlM.ttf" zoom="1" editorType="buyer" data-layer-role="brandName" style="position: absolute; top: 348.495px; width: 258.58px; height: 31.67px; left: 158.21px;"><g data-horizontal-grow="center" zoom="1" root="[object Object]" style="fill-opacity: 1;" fill="#27272C"><path d="M12.06 41.57L2.50 41.57L2.50 10.63L11.97 10.63L11.97 13.87L6.35 13.87L6.35 24.13L11.67 24.13L11.67 27.35L6.35 27.35L6.35 38.34L12.06 38.34L12.06 41.57ZM33.15 41.57L22.91 41.57L22.91 38.21L29.29 13.87L23.49 13.87L23.49 10.63L33.29 10.63L33.29 13.62L26.91 38.34L33.15 38.34L33.15 41.57ZM51.93 28.53L43.88 28.53L43.88 25.88L51.93 25.88L51.93 28.53ZM69.21 41.57L65.36 41.57L65.36 10.63L69.21 10.63L69.21 41.57ZM86.05 41.57L82.50 41.57L82.50 10.63L85.43 10.63L92.46 31.17L92.11 22.32L92.11 10.63L95.54 10.63L95.54 41.57L92.73 41.57L85.84 20.76L86.05 28.63L86.05 41.57ZM116.65 41.57L112.08 41.57L107.00 10.63L110.68 10.63L112.73 23.91L114.38 35.09L114.47 35.09L115.90 23.91L117.65 10.63L121.29 10.63L116.65 41.57ZM142.33 41.57L132.77 41.57L132.77 10.63L142.25 10.63L142.25 13.87L136.62 13.87L136.62 24.13L141.95 24.13L141.95 27.35L136.62 27.35L136.62 38.34L142.33 38.34L142.33 41.57ZM158.33 41.57L154.48 41.57L154.48 10.63L161.23 10.63Q163.67 10.63 164.86 11.52Q166.05 12.41 166.41 14.18Q166.77 15.94 166.77 18.60L166.77 18.60Q166.77 21.43 166.20 23.09Q165.63 24.75 163.96 25.24L163.96 25.24Q164.78 25.38 165.34 25.95Q165.89 26.53 166.21 27.70Q166.52 28.88 166.66 30.84Q166.80 32.80 166.80 35.75L166.80 35.75Q166.80 36.02 166.80 36.63Q166.80 37.25 166.82 38.00Q166.84 38.76 166.86 39.51Q166.87 40.25 166.93 40.81Q166.98 41.36 167.05 41.57L167.05 41.57L163.22 41.57Q163.15 41.43 163.09 40.83Q163.04 40.22 163.02 39.25Q162.99 38.29 162.97 36.99Q162.95 35.70 162.95 34.19Q162.95 32.68 162.95 31.01L162.95 31.01Q162.95 29.32 162.80 28.44Q162.64 27.56 162.08 27.22Q161.53 26.88 160.35 26.82L160.35 26.82L158.33 26.70L158.33 41.57ZM158.33 13.68L158.33 23.82L160.56 23.82Q161.55 23.82 162.06 23.43Q162.57 23.04 162.76 21.88Q162.95 20.72 162.95 18.44L162.95 18.44L162.95 18.23Q162.95 16.33 162.77 15.35Q162.59 14.36 162.07 14.02Q161.55 13.68 160.48 13.68L160.48 13.68L158.33 13.68ZM184.66 41.57L180.81 41.57L180.81 13.87L177.37 13.87L177.37 10.63L187.90 10.63L187.90 13.87L184.66 13.87L184.66 41.57ZM205.02 41.92L205.02 41.92Q202.68 41.92 201.30 40.90Q199.92 39.88 199.32 37.84Q198.71 35.79 198.71 32.73L198.71 32.73L198.71 18.98Q198.71 16.31 199.27 14.36Q199.83 12.41 201.22 11.33Q202.61 10.25 205.09 10.25L205.09 10.25Q206.95 10.25 208.16 10.86Q209.36 11.48 210.03 12.62Q210.70 13.76 210.97 15.37Q211.24 16.98 211.24 18.98L211.24 18.98L211.24 32.73Q211.24 35.79 210.66 37.84Q210.08 39.88 208.72 40.90Q207.36 41.92 205.02 41.92ZM205.02 38.60L205.02 38.60Q205.99 38.60 206.50 38.04Q207.01 37.48 207.19 36.19Q207.38 34.91 207.38 32.77L207.38 32.77L207.38 18.77Q207.38 16.15 206.95 14.86Q206.53 13.57 205.09 13.57L205.09 13.57Q203.61 13.57 203.10 14.84Q202.58 16.12 202.58 18.76L202.58 18.76L202.58 32.77Q202.58 34.93 202.76 36.20Q202.95 37.48 203.47 38.04Q204.00 38.60 205.02 38.60ZM228.00 41.57L224.15 41.57L224.15 10.63L230.90 10.63Q233.34 10.63 234.53 11.52Q235.71 12.41 236.07 14.18Q236.43 15.94 236.43 18.60L236.43 18.60Q236.43 21.43 235.86 23.09Q235.29 24.75 233.62 25.24L233.62 25.24Q234.45 25.38 235.00 25.95Q235.55 26.53 235.87 27.70Q236.19 28.88 236.33 30.84Q236.47 32.80 236.47 35.75L236.47 35.75Q236.47 36.02 236.47 36.63Q236.47 37.25 236.49 38.00Q236.50 38.76 236.52 39.51Q236.54 40.25 236.59 40.81Q236.64 41.36 236.71 41.57L236.71 41.57L232.88 41.57Q232.81 41.43 232.76 40.83Q232.71 40.22 232.68 39.25Q232.65 38.29 232.64 36.99Q232.62 35.70 232.62 34.19Q232.62 32.68 232.62 31.01L232.62 31.01Q232.62 29.32 232.46 28.44Q232.30 27.56 231.75 27.22Q231.19 26.88 230.02 26.82L230.02 26.82L228.00 26.70L228.00 41.57ZM228.00 13.68L228.00 23.82L230.23 23.82Q231.21 23.82 231.72 23.43Q232.23 23.04 232.43 21.88Q232.62 20.72 232.62 18.44L232.62 18.44L232.62 18.23Q232.62 16.33 232.43 15.35Q232.25 14.36 231.73 14.02Q231.21 13.68 230.14 13.68L230.14 13.68L228.00 13.68ZM256.10 41.57L252.24 41.57L252.24 28.71L246.89 10.63L250.69 10.63L254.17 22.99L254.24 22.99L257.26 10.63L261.08 10.63L256.10 28.71L256.10 41.57Z" transform="translate(0, 0)" fill="#27272C"/></g></svg></g></svg>