<svg xmlns:xlink="http://www.w3.org/1999/xlink" xmlns="http://www.w3.org/2000/svg" viewBox="0 0 575 575" class="roots-wrapper" width="575"  height="575" ><g transform="rotate(0 0 0)"><svg viewBoxSize="575" data-root-id="9405460765780" xmlns="http://www.w3.org/2000/svg" xmlns:xlink="http://www.w3.org/1999/xlink" version="1.1" id="Vrstva_1" x="73.96499633789062" y="240.50142724609375" viewBox="81 7.5 297.8999938964844 315.29998779296875" xml:space="preserve" height="93.9971923828125" width="88.80984809438823" preserveAspectRatio="xMinYMin" zoom="1" editorType="buyer" data-layer-role="icon" style="position: absolute; height: 93.9972px; width: 88.8098px; top: 240.501px; left: 73.965px;"><polygon points="106.2,234.1 207.7,266.3 283.2,203.8 81,138.5   " name="Layer %{number}" zoom="1" data-layer-id="9128963165780" style="fill: rgb(0, 0, 0); fill-opacity: 1;"></polygon><polygon points="259.1,7.5 180.5,79.2 196.9,175.9 354.5,33.4   " name="Layer %{number}" zoom="1" data-layer-id="7983185665780" style="fill: rgb(0, 0, 0); fill-opacity: 1;"></polygon><polygon points="378.9,253.2 356.1,149.2 264.2,115 308.8,322.8   " name="Layer %{number}" zoom="1" data-layer-id="1363052865780" style="fill: rgb(0, 0, 0); fill-opacity: 1;"></polygon></svg></g><g transform="rotate(0 0 0)"><svg viewBoxSize="575" data-root-id="1786162765780" xmlns="http://www.w3.org/2000/svg" y="298" viewBox="1.9200000762939453 8.729999542236328 244.32000732421875 13.09000015258789" x="196.44998168945312" height="13.09000015258789" width="244.32000732421875" fontUrl="https://fonts.gstatic.com/s/monda/v18/TK3-WkYFABsmjuBtFuvTIFRAPpWsH3oMoWtGaA-Ijw.ttf" zoom="1" editorType="buyer" data-layer-role="slogan" style="position: absolute; top: 298px; width: 244.32px; height: 13.09px; left: 196.45px;"><g data-horizontal-grow="center" zoom="1" root="[object Object]" style="fill-opacity: 1;" fill="#070D1D"><path d="M6.98 21.63L1.92 21.63L1.92 8.92L6.96 8.92Q8.73 8.92 9.78 9.49Q10.84 10.05 11.31 11.02Q11.78 11.99 11.78 13.20L11.78 13.20L11.78 17.39Q11.78 18.76 11.25 19.71Q10.72 20.65 9.66 21.14Q8.60 21.63 6.98 21.63L6.98 21.63ZM3.69 10.25L3.69 20.31L6.80 20.31Q7.72 20.31 8.44 20.11Q9.17 19.92 9.59 19.33Q10.01 18.74 10.01 17.57L10.01 17.57L10.01 13.10Q10.01 11.92 9.58 11.31Q9.16 10.70 8.43 10.47Q7.71 10.25 6.80 10.25L6.80 10.25L3.69 10.25ZM25.67 21.63L25.67 20.31L28.09 20.31L28.09 10.23L25.67 10.23L25.67 8.92L32.28 8.92L32.28 10.23L29.86 10.23L29.86 20.31L32.28 20.31L32.28 21.63L25.67 21.63ZM51.49 21.82L51.49 21.82Q49.90 21.82 48.87 21.50Q47.84 21.17 47.26 20.58Q46.68 19.99 46.44 19.17Q46.20 18.35 46.20 17.36L46.20 17.36L46.20 13.37Q46.20 12.36 46.43 11.51Q46.67 10.66 47.25 10.04Q47.83 9.41 48.86 9.07Q49.89 8.73 51.49 8.73L51.49 8.73Q53.03 8.73 53.99 9.01Q54.95 9.30 55.47 9.81Q55.99 10.33 56.19 11.02Q56.38 11.71 56.38 12.52L56.38 12.52L56.38 12.71L54.76 12.84L54.76 12.65Q54.76 11.66 54.49 11.12Q54.23 10.58 53.52 10.37Q52.81 10.15 51.49 10.15L51.49 10.15Q50.38 10.15 49.59 10.40Q48.80 10.65 48.39 11.28Q47.98 11.91 47.98 13.04L47.98 13.04L47.98 17.63Q47.98 18.76 48.39 19.35Q48.79 19.95 49.58 20.18Q50.37 20.40 51.49 20.40L51.49 20.40Q52.63 20.40 53.35 20.18Q54.07 19.95 54.41 19.35Q54.74 18.76 54.74 17.63L54.74 17.63L54.74 16.46L51.73 16.46L51.73 15.17L56.52 15.17L56.52 21.63L55.55 21.63L55.33 19.47Q55.25 19.99 54.99 20.42Q54.74 20.85 54.27 21.16Q53.81 21.48 53.12 21.65Q52.43 21.82 51.49 21.82ZM70.53 21.63L70.53 20.31L72.96 20.31L72.96 10.23L70.53 10.23L70.53 8.92L77.14 8.92L77.14 10.23L74.72 10.23L74.72 20.31L77.14 20.31L77.14 21.63L70.53 21.63ZM95.60 21.63L93.83 21.63L93.83 10.37L90.17 10.37L90.17 8.92L99.27 8.92L99.27 10.37L95.60 10.37L95.60 21.63ZM112.65 21.63L110.81 21.63L115.55 8.92L117.10 8.92L121.85 21.63L120.05 21.63L116.24 10.56L116.50 10.57L112.65 21.63ZM119.92 19.15L112.74 19.15L113.16 17.85L119.52 17.85L119.92 19.15ZM135.14 21.63L135.14 8.92L136.91 8.92L136.91 20.27L142.61 20.27L142.61 21.63L135.14 21.63ZM170.94 21.63L170.94 8.92L178.16 8.92L178.16 10.24L172.71 10.24L172.71 14.48L177.84 14.48L177.84 15.79L172.71 15.79L172.71 21.63L170.94 21.63ZM192.43 21.63L190.59 21.63L195.33 8.92L196.88 8.92L201.63 21.63L199.83 21.63L196.02 10.56L196.29 10.57L192.43 21.63ZM199.70 19.15L192.52 19.15L192.95 17.85L199.30 17.85L199.70 19.15ZM219.55 21.82L219.55 21.82Q217.96 21.82 216.96 21.50Q215.96 21.17 215.42 20.58Q214.88 19.99 214.67 19.17Q214.46 18.35 214.46 17.36L214.46 17.36L214.46 13.37Q214.46 12.36 214.66 11.51Q214.86 10.66 215.40 10.04Q215.94 9.41 216.94 9.07Q217.94 8.73 219.53 8.73L219.53 8.73Q220.98 8.73 221.91 8.99Q222.84 9.25 223.36 9.76Q223.88 10.27 224.08 11.02Q224.29 11.77 224.29 12.75L224.29 12.75L224.29 12.87L222.61 13.02L222.61 12.78Q222.61 11.63 222.32 11.07Q222.02 10.50 221.35 10.33Q220.67 10.15 219.53 10.15L219.53 10.15Q218.42 10.15 217.69 10.40Q216.96 10.65 216.60 11.28Q216.24 11.91 216.24 13.04L216.24 13.04L216.24 17.63Q216.24 18.76 216.61 19.35Q216.98 19.95 217.72 20.18Q218.46 20.40 219.59 20.40L219.59 20.40Q220.70 20.40 221.36 20.25Q222.02 20.10 222.32 19.57Q222.61 19.04 222.61 17.90L222.61 17.90L222.61 17.69L224.29 17.69L224.29 17.78Q224.29 18.74 224.11 19.49Q223.93 20.24 223.44 20.76Q222.95 21.28 222.01 21.55Q221.07 21.82 219.55 21.82ZM238.20 21.63L238.20 8.92L246.13 8.92L246.13 10.24L239.96 10.24L239.96 14.42L245.41 14.42L245.41 15.74L239.96 15.74L239.96 20.31L246.24 20.31L246.24 21.63L238.20 21.63Z" transform="translate(0, 0)" fill="#070D1D"></path></g></svg></g><g transform="rotate(0 0 0)"><svg viewBoxSize="575" data-root-id="5045477765780" xmlns="http://www.w3.org/2000/svg" y="260.75042724609375" viewBox="3.190000057220459 13.279999732971191 252.4199981689453 26.560001373291016" x="193.98499633789064" height="26.560001373291016" width="252.4199981689453" fontUrl="https://fonts.gstatic.com/s/michroma/v20/PN_zRfy9qWD8fEagAMg6rzjb_-Da.ttf" zoom="1" editorType="buyer" data-layer-role="brandName" style="position: absolute; top: 260.75px; width: 252.42px; height: 26.56px; left: 193.985px;"><g data-horizontal-grow="left" zoom="1" root="[object Object]" style="fill-opacity: 1;" fill="#070D1D"><path d="M28.69 39.31L3.19 39.31L3.19 13.81L28.22 13.81L28.22 16.47L6.38 16.47L6.38 24.97L27.31 24.97L27.31 27.63L6.38 27.63L6.38 36.66L28.69 36.66L28.69 39.31ZM61.63 39.31L31.88 39.31L31.88 36.66L56.54 16.47L32.94 16.47L32.94 13.81L61.09 13.81L61.09 16.47L36.29 36.66L61.63 36.66L61.63 39.31ZM78.59 30.81L65.84 30.81L65.84 28.16L78.59 28.16L78.59 30.81ZM99.84 39.31L95.59 39.31L81.85 13.81L85.50 13.81L97.72 37.05L109.94 13.81L113.54 13.81L99.84 39.31ZM116.84 26.89L116.84 26.89L116.84 26.23Q116.84 22.84 117.17 20.54Q117.51 18.25 118.32 16.80Q119.13 15.36 120.54 14.59Q121.94 13.83 124.06 13.56Q126.19 13.28 129.18 13.28L129.18 13.28L135.87 13.28Q139.29 13.28 141.64 13.60Q143.99 13.93 145.42 14.88Q146.86 15.84 147.50 17.69Q148.15 19.54 148.15 22.59L148.15 22.59L144.96 22.59Q144.96 20.19 144.53 18.85Q144.10 17.51 143.08 16.92Q142.06 16.32 140.30 16.18Q138.54 16.04 135.87 16.04L135.87 16.04L129.18 16.04Q126.80 16.04 125.18 16.18Q123.55 16.32 122.53 16.83Q121.51 17.33 120.97 18.43Q120.43 19.52 120.23 21.42Q120.03 23.31 120.03 26.23L120.03 26.23L120.03 26.89Q120.03 29.72 120.23 31.58Q120.43 33.44 120.97 34.55Q121.51 35.66 122.53 36.21Q123.55 36.76 125.18 36.92Q126.80 37.09 129.18 37.09L129.18 37.09L135.87 37.09Q138.54 37.09 140.30 36.97Q142.06 36.86 143.08 36.29Q144.10 35.73 144.53 34.41Q144.96 33.09 144.96 30.70L144.96 30.70L148.15 30.70Q148.15 33.75 147.50 35.58Q146.86 37.40 145.42 38.32Q143.99 39.25 141.64 39.54Q139.29 39.84 135.87 39.84L135.87 39.84L129.18 39.84Q125.44 39.84 123.03 39.34Q120.63 38.83 119.27 37.47Q117.92 36.11 117.38 33.55Q116.84 31.00 116.84 26.89ZM155.11 39.31L151.39 39.31L166.26 13.81L170.51 13.81L185.39 39.31L181.67 39.31L178.48 33.47L158.30 33.47L155.11 39.31ZM168.39 15.94L159.89 30.81L176.89 30.81L168.39 15.94ZM189.71 39.31L189.71 13.81L206.77 13.81Q210.51 13.81 212.79 14.14Q215.07 14.48 216.25 15.29Q217.43 16.10 217.85 17.51Q218.26 18.93 218.26 21.08L218.26 21.08L218.26 21.75Q218.26 23.74 217.79 25.18Q217.31 26.61 215.97 27.50Q214.63 28.39 211.99 28.75L211.99 28.75L217.53 39.31L214.34 39.31L208.91 28.99Q208.58 29.00 208.23 29.00Q207.87 29.00 207.49 29.00L207.49 29.00L192.89 29.00L192.89 39.31L189.71 39.31ZM192.89 16.57L192.89 26.25L206.99 26.25Q209.83 26.25 211.46 26.06Q213.10 25.87 213.87 25.38Q214.64 24.90 214.86 24.02Q215.07 23.14 215.07 21.75L215.07 21.75L215.07 21.08Q215.07 19.51 214.77 18.59Q214.48 17.68 213.58 17.25Q212.68 16.82 210.91 16.69Q209.13 16.57 206.16 16.57L206.16 16.57L192.89 16.57ZM243.28 39.31L224.35 39.31L224.35 13.81L243.28 13.81Q247.01 13.81 249.42 14.26Q251.83 14.71 253.18 16.00Q254.54 17.28 255.07 19.74Q255.61 22.20 255.61 26.23L255.61 26.23L255.61 26.89Q255.61 30.80 255.07 33.24Q254.54 35.69 253.18 37.01Q251.83 38.33 249.42 38.82Q247.01 39.31 243.28 39.31L243.28 39.31ZM227.54 16.57L227.54 36.56L243.28 36.56Q246.25 36.56 248.06 36.27Q249.87 35.99 250.82 35.05Q251.76 34.10 252.09 32.16Q252.43 30.21 252.43 26.89L252.43 26.89L252.43 26.23Q252.43 23.47 252.23 21.68Q252.03 19.89 251.49 18.85Q250.95 17.81 249.93 17.32Q248.91 16.83 247.28 16.70Q245.65 16.57 243.28 16.57L243.28 16.57L227.54 16.57Z" transform="translate(0, 0)" fill="#070D1D"></path></g></svg></g></svg>